<?xml version="1.0" encoding="utf-8"?>
<!-- Generator: Adobe Illustrator 16.0.0, SVG Export Plug-In . SVG Version: 6.00 Build 0)  -->
<!DOCTYPE svg PUBLIC "-//W3C//DTD SVG 1.1//EN" "http://www.w3.org/Graphics/SVG/1.1/DTD/svg11.dtd">
<svg version="1.1" id="Layer_1" xmlns="http://www.w3.org/2000/svg" xmlns:xlink="http://www.w3.org/1999/xlink" x="0px" y="0px"
	 width="26.299px" height="24.152px" viewBox="0 0 26.299 24.152" enable-background="new 0 0 26.299 24.152" xml:space="preserve">
<path fill="#FFFFFF" d="M16.656,8.278h-0.039C16.6,3.711,12.881,0,8.31,0C3.728,0,0,3.728,0,8.309c0,4.185,3.114,7.648,7.145,8.218
	v0.029v7.596h19.154V8.278H16.656z M1.5,8.309C1.5,4.555,4.555,1.5,8.31,1.5c3.744,0,6.79,3.038,6.808,6.778H7.145v6.733
	C3.944,14.456,1.5,11.666,1.5,8.309z M24.799,22.652H8.645v-6.05c0.167-0.006,0.334-0.01,0.498-0.027
	c0.046-0.004,0.091-0.014,0.137-0.019c0.232-0.027,0.463-0.06,0.689-0.105c0.023-0.005,0.047-0.012,0.07-0.017
	c2.679-0.561,4.881-2.398,5.924-4.89c0.001-0.002,0.001-0.004,0.002-0.006c0.087-0.208,0.164-0.422,0.234-0.64
	c0.018-0.054,0.038-0.105,0.055-0.16c0.047-0.155,0.084-0.315,0.123-0.475c0.027-0.114,0.059-0.228,0.082-0.344
	c0.009-0.047,0.015-0.095,0.023-0.143h8.316V22.652z"/>
</svg>
