<?xml version="1.0" encoding="utf-8"?>
<!-- Generator: Adobe Illustrator 16.0.0, SVG Export Plug-In . SVG Version: 6.00 Build 0)  -->
<!DOCTYPE svg PUBLIC "-//W3C//DTD SVG 1.1//EN" "http://www.w3.org/Graphics/SVG/1.1/DTD/svg11.dtd">
<svg version="1.1" id="Layer_1" xmlns="http://www.w3.org/2000/svg" xmlns:xlink="http://www.w3.org/1999/xlink" x="0px" y="0px"
	 width="37.334px" height="37.334px" viewBox="0 0 37.334 37.334" enable-background="new 0 0 37.334 37.334" xml:space="preserve">
<g>
	<path d="M30.247,4c1.702,0,3.087,1.385,3.087,3.087v23.16c0,1.702-1.385,3.087-3.087,3.087H7.087C5.385,33.334,4,31.949,4,30.247
		V7.087C4,5.385,5.385,4,7.087,4H30.247 M30.247,0H7.087C3.173,0,0,3.173,0,7.087v23.16c0,3.914,3.173,7.087,7.087,7.087h23.16
		c3.914,0,7.087-3.173,7.087-7.087V7.087C37.334,3.173,34.161,0,30.247,0L30.247,0z"/>
</g>
</svg>
