<?xml version="1.0" encoding="utf-8"?>
<!-- Generator: Adobe Illustrator 16.0.0, SVG Export Plug-In . SVG Version: 6.00 Build 0)  -->
<!DOCTYPE svg PUBLIC "-//W3C//DTD SVG 1.0//EN" "http://www.w3.org/TR/2001/REC-SVG-20010904/DTD/svg10.dtd" [
	<!ENTITY ns_flows "http://ns.adobe.com/Flows/1.0/">
	<!ENTITY ns_extend "http://ns.adobe.com/Extensibility/1.0/">
	<!ENTITY ns_ai "http://ns.adobe.com/AdobeIllustrator/10.0/">
	<!ENTITY ns_graphs "http://ns.adobe.com/Graphs/1.0/">
]>
<svg version="1.0" id="Layer_1" xmlns:x="&ns_extend;" xmlns:i="&ns_ai;" xmlns:graph="&ns_graphs;"
	 xmlns="http://www.w3.org/2000/svg" xmlns:xlink="http://www.w3.org/1999/xlink" xmlns:a="http://ns.adobe.com/AdobeSVGViewerExtensions/3.0/"
	 x="0px" y="0px" width="21.0527px" height="21.0527px" viewBox="0 0 21.0527 21.0527" enable-background="new 0 0 21.0527 21.0527"
	 xml:space="preserve">
<g>
	<path fill="#B7B7B7" d="M17.2178,0H3.835C1.7202,0,0,1.7202,0,3.835v13.3828c0,2.1147,1.7202,3.835,3.835,3.835h13.3828
		c2.1147,0,3.835-1.7202,3.835-3.835V3.835C21.0527,1.7202,19.3325,0,17.2178,0z M19.0527,17.2178
		c0,1.0117-0.8232,1.835-1.835,1.835H3.835c-1.0117,0-1.835-0.8232-1.835-1.835V3.835C2,2.8232,2.8232,2,3.835,2h13.3828
		c1.0117,0,1.835,0.8232,1.835,1.835V17.2178z"/>
	<path fill="#B7B7B7" d="M14.8262,9.5264h-3.2998V6.2275c0-0.5522-0.4478-1-1-1s-1,0.4478-1,1v3.2988H6.2266c-0.5522,0-1,0.4478-1,1
		s0.4478,1,1,1h3.2998v3.2988c0,0.5522,0.4478,1,1,1s1-0.4478,1-1v-3.2988h3.2998c0.5522,0,1-0.4478,1-1
		S15.3784,9.5264,14.8262,9.5264z"/>
</g>
</svg>
