<?xml version="1.0" encoding="utf-8"?>
<!-- Generator: Adobe Illustrator 16.0.0, SVG Export Plug-In . SVG Version: 6.00 Build 0)  -->
<!DOCTYPE svg PUBLIC "-//W3C//DTD SVG 1.0//EN" "http://www.w3.org/TR/2001/REC-SVG-20010904/DTD/svg10.dtd" [
	<!ENTITY ns_flows "http://ns.adobe.com/Flows/1.0/">
	<!ENTITY ns_extend "http://ns.adobe.com/Extensibility/1.0/">
	<!ENTITY ns_ai "http://ns.adobe.com/AdobeIllustrator/10.0/">
	<!ENTITY ns_graphs "http://ns.adobe.com/Graphs/1.0/">
]>
<svg version="1.0" id="Layer_1" xmlns:x="&ns_extend;" xmlns:i="&ns_ai;" xmlns:graph="&ns_graphs;"
	 xmlns="http://www.w3.org/2000/svg" xmlns:xlink="http://www.w3.org/1999/xlink" xmlns:a="http://ns.adobe.com/AdobeSVGViewerExtensions/3.0/"
	 x="0px" y="0px" width="22.9624px" height="24.4229px" viewBox="0 0 22.9624 24.4229" enable-background="new 0 0 22.9624 24.4229"
	 xml:space="preserve">
<g>
	<path fill="#B7B7B7" d="M17.7114,13.6416c-0.5522,0-1,0.4478-1,1v5.9463c0,1.0117-0.8232,1.835-1.835,1.835H3.835
		c-1.0117,0-1.835-0.8232-1.835-1.835V8.1338c0-1.0117,0.8232-1.835,1.835-1.835h4.3989c0.5522,0,1-0.4478,1-1s-0.4478-1-1-1H3.835
		C1.7202,4.2988,0,6.019,0,8.1338v12.4541c0,2.1147,1.7202,3.835,3.835,3.835h11.0415c2.1147,0,3.835-1.7202,3.835-3.835v-5.9463
		C18.7114,14.0894,18.2637,13.6416,17.7114,13.6416z"/>
	<path fill="#B7B7B7" d="M21.9624,4.2988h-3.2998V1c0-0.5522-0.4478-1-1-1s-1,0.4478-1,1v3.2988h-3.2998c-0.5522,0-1,0.4478-1,1
		s0.4478,1,1,1h3.2998v3.2988c0,0.5522,0.4478,1,1,1s1-0.4478,1-1V6.2988h3.2998c0.5522,0,1-0.4478,1-1
		S22.5146,4.2988,21.9624,4.2988z"/>
</g>
</svg>
