{"asset":{"version":"2.0","generator":"babylon.js glTF exporter for 3dsmax 2021 v20201207.3"},"scene":0,"scenes":[{"nodes":[0,1,2,3]}],"nodes":[{"mesh":0,"translation":[0.0,-0.0237546023,0.103868335],"name":"Cone001"},{"mesh":1,"translation":[0.0,0.05999293,0.104042873],"name":"Cylinder001"},{"mesh":2,"translation":[-1.90734872E-09,-0.0253044218,0.104142167],"name":"Cone002"},{"name":"Default light"}],"meshes":[{"primitives":[{"attributes":{"POSITION":1,"NORMAL":2,"TEXCOORD_0":3},"indices":0,"material":0}],"name":"Cone001"},{"primitives":[{"attributes":{"POSITION":5,"NORMAL":6,"TEXCOORD_0":7},"indices":4,"material":1}],"name":"Cylinder001"},{"primitives":[{"attributes":{"POSITION":9,"NORMAL":10,"TEXCOORD_0":11},"indices":8,"material":2}],"name":"Cone002"}],"accessors":[{"bufferView":0,"componentType":5125,"count":156720,"type":"SCALAR","name":"accessorIndices"},{"bufferView":1,"componentType":5126,"count":156720,"max":[0.0438249223,0.0750583559,0.0439991169],"min":[-0.0438249223,-0.0750583559,-0.0439991243],"type":"VEC3","name":"accessorPositions"},{"bufferView":1,"byteOffset":1880640,"componentType":5126,"count":156720,"type":"VEC3","name":"accessorNormals"},{"bufferView":2,"componentType":5126,"count":156720,"type":"VEC2","name":"accessorUVs"},{"bufferView":0,"byteOffset":626880,"componentType":5125,"count":400320,"type":"SCALAR","name":"accessorIndices"},{"bufferView":1,"byteOffset":3761280,"componentType":5126,"count":400320,"max":[0.0467361249,0.0163188241,0.0465075262],"min":[-0.0467361249,-0.0114787119,-0.0465075262],"type":"VEC3","name":"accessorPositions"},{"bufferView":1,"byteOffset":8565120,"componentType":5126,"count":400320,"type":"VEC3","name":"accessorNormals"},{"bufferView":2,"byteOffset":1253760,"componentType":5126,"count":400320,"type":"VEC2","name":"accessorUVs"},{"bufferView":0,"byteOffset":2228160,"componentType":5125,"count":120732,"type":"SCALAR","name":"accessorIndices"},{"bufferView":1,"byteOffset":13368960,"componentType":5126,"count":120732,"max":[0.0420384929,0.07268767,0.04193888],"min":[-0.0420384929,-0.07268767,-0.0419388823],"type":"VEC3","name":"accessorPositions"},{"bufferView":1,"byteOffset":14817744,"componentType":5126,"count":120732,"type":"VEC3","name":"accessorNormals"},{"bufferView":2,"byteOffset":4456320,"componentType":5126,"count":120732,"type":"VEC2","name":"accessorUVs"}],"bufferViews":[{"buffer":0,"byteLength":2711088,"name":"bufferViewScalar"},{"buffer":0,"byteOffset":2711088,"byteLength":16266528,"byteStride":12,"name":"bufferViewFloatVec3"},{"buffer":0,"byteOffset":18977616,"byteLength":5422176,"byteStride":8,"name":"bufferViewFloatVec2"}],"buffers":[{"uri":"scene.bin","byteLength":24399792}],"materials":[{"pbrMetallicRoughness":{"baseColorFactor":[0.862745166,0.862745166,0.862745166,1.0],"metallicFactor":0.0,"roughnessFactor":0.450053632},"name":"Than coc"},{"pbrMetallicRoughness":{"baseColorFactor":[0.9490197,0.1137255,0.0196078438,1.0],"metallicFactor":0.0,"roughnessFactor":0.450053632},"name":"Nap coc"},{"pbrMetallicRoughness":{"baseColorTexture":{"index":0},"metallicFactor":0.0,"roughnessFactor":0.450053632},"name":"Map coc nhua"}],"textures":[{"sampler":0,"source":0,"name":"Map coc nhua.png"}],"images":[{"uri":"./Map coc nhua.png"}],"samplers":[{"magFilter":9729,"minFilter":9987}]}