{"asset":{"version":"2.0","generator":"babylon.js glTF exporter for 3dsmax 2021 v20201207.3"},"scene":0,"scenes":[{"nodes":[0,1]}],"nodes":[{"mesh":0,"translation":[-0.00101106742,0.0,0.000282797817],"name":"Box001"},{"name":"Default light"}],"meshes":[{"primitives":[{"attributes":{"POSITION":1,"NORMAL":2,"TEXCOORD_0":3},"indices":0}],"name":"Box001"}],"accessors":[{"bufferView":0,"componentType":5123,"count":36,"type":"SCALAR","name":"accessorIndices"},{"bufferView":1,"componentType":5126,"count":36,"max":[0.0185737927,0.0329134166,0.0194348544],"min":[-0.0185737927,0.0,-0.0194348544],"type":"VEC3","name":"accessorPositions"},{"bufferView":1,"byteOffset":432,"componentType":5126,"count":36,"type":"VEC3","name":"accessorNormals"},{"bufferView":2,"componentType":5126,"count":36,"type":"VEC2","name":"accessorUVs"}],"bufferViews":[{"buffer":0,"byteLength":72,"name":"bufferViewScalar"},{"buffer":0,"byteOffset":72,"byteLength":864,"byteStride":12,"name":"bufferViewFloatVec3"},{"buffer":0,"byteOffset":936,"byteLength":288,"byteStride":8,"name":"bufferViewFloatVec2"}],"buffers":[{"uri":"test.bin","byteLength":1224}]}