{"asset":{"version":"2.0","generator":"babylon.js glTF exporter for 3dsmax 2021 v20201207.3"},"scene":0,"scenes":[{"nodes":[0,1,2,3,4,5,6]}],"nodes":[{"mesh":0,"translation":[0.0,-0.0237546023,0.103868335],"name":"Cone001"},{"mesh":1,"translation":[0.0,0.05999293,0.104042873],"name":"Cylinder001"},{"mesh":2,"translation":[-1.90734872E-09,-0.0253044218,0.104142167],"name":"Cone002"},{"mesh":3,"translation":[-0.12882179,-0.0237546023,0.103868335],"name":"Cone003"},{"mesh":4,"translation":[-0.12882179,-0.0253044218,0.104142167],"name":"Cone004"},{"mesh":5,"translation":[-0.24252589,-0.0619799048,0.108462386],"rotation":[0.2610512,-0.09378877,0.126675844,0.9523703],"scale":[0.99999994,0.99999994,0.99999994],"name":"Cylinder002"},{"name":"Default light"}],"meshes":[{"primitives":[{"attributes":{"POSITION":1,"NORMAL":2,"TEXCOORD_0":3},"indices":0,"material":0}],"name":"Cone001"},{"primitives":[{"attributes":{"POSITION":5,"NORMAL":6,"TEXCOORD_0":7},"indices":4,"material":1}],"name":"Cylinder001"},{"primitives":[{"attributes":{"POSITION":9,"NORMAL":10,"TEXCOORD_0":11},"indices":8,"material":2}],"name":"Cone002"},{"primitives":[{"attributes":{"POSITION":13,"NORMAL":14,"TEXCOORD_0":15},"indices":12,"material":0}],"name":"Cone003"},{"primitives":[{"attributes":{"POSITION":17,"NORMAL":18,"TEXCOORD_0":19},"indices":16,"material":2}],"name":"Cone004"},{"primitives":[{"attributes":{"POSITION":21,"NORMAL":22,"TEXCOORD_0":23},"indices":20,"material":1}],"name":"Cylinder002"}],"accessors":[{"bufferView":0,"componentType":5125,"count":156720,"type":"SCALAR","name":"accessorIndices"},{"bufferView":1,"componentType":5126,"count":156720,"max":[0.0438249223,0.0750583559,0.0439991169],"min":[-0.0438249223,-0.0750583559,-0.0439991243],"type":"VEC3","name":"accessorPositions"},{"bufferView":1,"byteOffset":1880640,"componentType":5126,"count":156720,"type":"VEC3","name":"accessorNormals"},{"bufferView":2,"componentType":5126,"count":156720,"type":"VEC2","name":"accessorUVs"},{"bufferView":0,"byteOffset":626880,"componentType":5125,"count":424896,"type":"SCALAR","name":"accessorIndices"},{"bufferView":1,"byteOffset":3761280,"componentType":5126,"count":424896,"max":[0.0467361249,0.0163188241,0.0465075262],"min":[-0.0467361249,-0.0114786094,-0.04675396],"type":"VEC3","name":"accessorPositions"},{"bufferView":1,"byteOffset":8860032,"componentType":5126,"count":424896,"type":"VEC3","name":"accessorNormals"},{"bufferView":2,"byteOffset":1253760,"componentType":5126,"count":424896,"type":"VEC2","name":"accessorUVs"},{"bufferView":0,"byteOffset":2326464,"componentType":5125,"count":120732,"type":"SCALAR","name":"accessorIndices"},{"bufferView":1,"byteOffset":13958784,"componentType":5126,"count":120732,"max":[0.0420384929,0.07268767,0.04193888],"min":[-0.0420384929,-0.07268767,-0.0419388823],"type":"VEC3","name":"accessorPositions"},{"bufferView":1,"byteOffset":15407568,"componentType":5126,"count":120732,"type":"VEC3","name":"accessorNormals"},{"bufferView":2,"byteOffset":4652928,"componentType":5126,"count":120732,"type":"VEC2","name":"accessorUVs"},{"bufferView":0,"byteOffset":2809392,"componentType":5125,"count":156720,"type":"SCALAR","name":"accessorIndices"},{"bufferView":1,"byteOffset":16856352,"componentType":5126,"count":156720,"max":[0.0438249223,0.0750583559,0.0439991169],"min":[-0.0438249223,-0.0750583559,-0.0439991243],"type":"VEC3","name":"accessorPositions"},{"bufferView":1,"byteOffset":18736992,"componentType":5126,"count":156720,"type":"VEC3","name":"accessorNormals"},{"bufferView":2,"byteOffset":5618784,"componentType":5126,"count":156720,"type":"VEC2","name":"accessorUVs"},{"bufferView":0,"byteOffset":3436272,"componentType":5125,"count":120732,"type":"SCALAR","name":"accessorIndices"},{"bufferView":1,"byteOffset":20617632,"componentType":5126,"count":120732,"max":[0.0420384929,0.07268767,0.04193888],"min":[-0.0420384929,-0.07268767,-0.0419388823],"type":"VEC3","name":"accessorPositions"},{"bufferView":1,"byteOffset":22066416,"componentType":5126,"count":120732,"type":"VEC3","name":"accessorNormals"},{"bufferView":2,"byteOffset":6872544,"componentType":5126,"count":120732,"type":"VEC2","name":"accessorUVs"},{"bufferView":0,"byteOffset":3919200,"componentType":5125,"count":424896,"type":"SCALAR","name":"accessorIndices"},{"bufferView":1,"byteOffset":23515200,"componentType":5126,"count":424896,"max":[0.0467361249,0.0163188241,0.0465075262],"min":[-0.0467361249,-0.0114786094,-0.04675396],"type":"VEC3","name":"accessorPositions"},{"bufferView":1,"byteOffset":28613952,"componentType":5126,"count":424896,"type":"VEC3","name":"accessorNormals"},{"bufferView":2,"byteOffset":7838400,"componentType":5126,"count":424896,"type":"VEC2","name":"accessorUVs"}],"bufferViews":[{"buffer":0,"byteLength":5618784,"name":"bufferViewScalar"},{"buffer":0,"byteOffset":5618784,"byteLength":33712704,"byteStride":12,"name":"bufferViewFloatVec3"},{"buffer":0,"byteOffset":39331488,"byteLength":11237568,"byteStride":8,"name":"bufferViewFloatVec2"}],"buffers":[{"uri":"scene.bin","byteLength":50569056}],"materials":[{"pbrMetallicRoughness":{"baseColorFactor":[0.862745166,0.862745166,0.862745166,1.0],"metallicFactor":0.0,"roughnessFactor":0.358472824},"name":"Than coc"},{"pbrMetallicRoughness":{"baseColorFactor":[0.9490197,0.1137255,0.0196078438,1.0],"metallicFactor":0.0,"roughnessFactor":0.3048167},"name":"Nap coc"},{"pbrMetallicRoughness":{"baseColorTexture":{"index":0},"metallicFactor":0.0,"roughnessFactor":0.450053632},"name":"Mat truoc coc nhua 1 Set16"}],"textures":[{"sampler":0,"source":0,"name":"Mat truoc coc nhua 1 Set16.png"}],"images":[{"uri":"textures/Mat truoc coc nhua 1 Set16.png"}],"samplers":[{"magFilter":9729,"minFilter":9987}]}