<svg xmlns="http://www.w3.org/2000/svg" xmlns:xlink="http://www.w3.org/1999/xlink" version="1.1" id="Layer_1" x="0px" y="0px" viewBox="0 0 14 17" style="enable-background:new 0 0 14 17;" xml:space="preserve">
<style type="text/css">
	.st0{fill:none;}
	.st1{fill:#3F4652;}
</style>
<g id="XMLID_883_">
	<rect id="XMLID_910_" x="8" y="8" class="st0" width="1" height="6"/>
	<rect id="XMLID_909_" x="5" y="2" class="st0" width="4" height="1"/>
	<rect id="XMLID_908_" x="5" y="8" class="st0" width="1" height="6"/>
	<path id="XMLID_888_" class="st1" d="M13,5h1V3h-3V2c0-1.1-0.9-2-2-2H5C3.9,0,3,0.9,3,2v1H0v2h1H13z M5,2h4v1H5V2z"/>
	<path id="XMLID_884_" class="st1" d="M1,15c0,1.1,0.9,2,2,2h8c1.1,0,2-0.9,2-2V6H1V15z M8,8h1v6H8V8z M5,8h1v6H5V8z"/>
</g>
</svg>