{"asset":{"version":"2.0","generator":"babylon.js glTF exporter for 3dsmax 2021 v20201207.3"},"scene":0,"scenes":[{"nodes":[0,4]}],"nodes":[{"children":[1,2,3],"translation":[0.0,1.53541566E-06,0.0],"name":"Group001"},{"mesh":0,"translation":[0.0,8.060043E-06,0.0172798969],"rotation":[0.7071068,0.0,0.0,0.7071067],"name":"Plane002"},{"mesh":1,"translation":[3.504753E-07,8.032463E-06,-0.0183068216],"rotation":[0.7071068,0.0,0.0,0.7071067],"name":"Mat truoc"},{"mesh":2,"translation":[0.0,-4.5838533E-10,2.14576712E-08],"rotation":[0.7071068,0.0,0.0,0.7071067],"name":"Plane001"},{"name":"Default light"}],"meshes":[{"primitives":[{"attributes":{"POSITION":1,"NORMAL":2,"TEXCOORD_0":3},"indices":0,"material":0}],"name":"Plane002"},{"primitives":[{"attributes":{"POSITION":5,"NORMAL":6,"TEXCOORD_0":7},"indices":4,"material":1}],"name":"Mat truoc"},{"primitives":[{"attributes":{"POSITION":9,"NORMAL":10,"TEXCOORD_0":11},"indices":8,"material":2}],"name":"Plane001"}],"accessors":[{"bufferView":0,"componentType":5123,"count":10809,"type":"SCALAR","name":"accessorIndices"},{"bufferView":1,"componentType":5126,"count":10809,"max":[0.0749499947,0.0194889661,0.124959774],"min":[-0.0749499947,-0.019488968,-0.124959774],"type":"VEC3","name":"accessorPositions"},{"bufferView":1,"byteOffset":129708,"componentType":5126,"count":10809,"type":"VEC3","name":"accessorNormals"},{"bufferView":2,"componentType":5126,"count":10809,"type":"VEC2","name":"accessorUVs"},{"bufferView":0,"byteOffset":21620,"componentType":5123,"count":10818,"type":"SCALAR","name":"accessorIndices"},{"bufferView":1,"byteOffset":259416,"componentType":5126,"count":10818,"max":[0.07495035,0.0184620023,0.12495973],"min":[-0.07495035,-0.0184620023,-0.12495973],"type":"VEC3","name":"accessorPositions"},{"bufferView":1,"byteOffset":389232,"componentType":5126,"count":10818,"type":"VEC3","name":"accessorNormals"},{"bufferView":2,"byteOffset":86472,"componentType":5126,"count":10818,"type":"VEC2","name":"accessorUVs"},{"bufferView":0,"byteOffset":43256,"componentType":5123,"count":14085,"type":"SCALAR","name":"accessorIndices"},{"bufferView":1,"byteOffset":519048,"componentType":5126,"count":14085,"max":[0.0749999955,0.0367688425,0.125017539],"min":[-0.0749999955,-0.0367688425,-0.125017539],"type":"VEC3","name":"accessorPositions"},{"bufferView":1,"byteOffset":688068,"componentType":5126,"count":14085,"type":"VEC3","name":"accessorNormals"},{"bufferView":2,"byteOffset":173016,"componentType":5126,"count":14085,"type":"VEC2","name":"accessorUVs"}],"bufferViews":[{"buffer":0,"byteLength":71428,"name":"bufferViewScalar"},{"buffer":0,"byteOffset":71428,"byteLength":857088,"byteStride":12,"name":"bufferViewFloatVec3"},{"buffer":0,"byteOffset":928516,"byteLength":285696,"byteStride":8,"name":"bufferViewFloatVec2"}],"buffers":[{"uri":"scene.bin","byteLength":1214212}],"materials":[{"pbrMetallicRoughness":{"baseColorTexture":{"index":0},"metallicFactor":0.0,"roughnessFactor":0.450053632},"name":"Mattruoc"},{"pbrMetallicRoughness":{"baseColorTexture":{"index":1},"metallicFactor":0.0,"roughnessFactor":0.450053632},"name":"Matsau"},{"pbrMetallicRoughness":{"baseColorFactor":[0.9490197,0.9490197,0.9490197,1.0],"metallicFactor":0.0,"roughnessFactor":0.450053632},"name":"Material #27"}],"textures":[{"sampler":0,"source":0,"name":"Mattruoc.png"},{"sampler":0,"source":1,"name":"Matsau.png"}],"images":[{"uri":"textures/Mattruoc.png"},{"uri":"textures/Matsau.png"}],"samplers":[{"magFilter":9729,"minFilter":9987}]}