<?xml version="1.0" encoding="utf-8"?>
<!-- Generator: Adobe Illustrator 16.0.0, SVG Export Plug-In . SVG Version: 6.00 Build 0)  -->
<!DOCTYPE svg PUBLIC "-//W3C//DTD SVG 1.1//EN" "http://www.w3.org/Graphics/SVG/1.1/DTD/svg11.dtd">
<svg version="1.1" id="Layer_1" xmlns="http://www.w3.org/2000/svg" xmlns:xlink="http://www.w3.org/1999/xlink" x="0px" y="0px"
	 width="113.06px" height="72.006px" viewBox="0 0 113.06 72.006" enable-background="new 0 0 113.06 72.006" xml:space="preserve">
<g>
	<circle fill="#E7417A" cx="18" cy="54" r="18"/>
	<g>
		<path fill="#FFFFFF" d="M110.254,39.717c-1.869-2.898-4.643-5.016-8.316-6.352c2.419-1.236,4.249-2.605,5.492-4.104
			c2.222-2.67,3.335-6.203,3.335-10.6c0-4.266-1.103-7.93-3.306-10.992C103.798,2.688,97.577,0.131,88.798,0H54v12.506h30.025
			c3.448,0,6.285,0.375,8.51,1.123c2.578,1.076,3.866,3.291,3.866,6.645c0,3.029-0.976,5.139-2.924,6.326
			c-1.951,1.189-4.489,1.783-7.616,1.783H54v43.623h32.444c3.658,0,7.05-0.326,10.175-0.977c3.124-0.652,5.835-1.857,8.136-3.615
			c2.039-1.531,3.739-3.42,5.099-5.666c2.137-3.389,3.206-7.215,3.206-11.48C113.06,46.133,112.125,42.615,110.254,39.717z
			 M93.135,58.23c-1.738,0.846-4.17,1.27-7.292,1.27h-17.48V40.303h17.723c3.09,0.031,5.487,0.439,7.194,1.221
			c3.058,1.4,4.589,3.975,4.589,7.717C97.868,53.67,96.289,56.666,93.135,58.23z"/>
	</g>
</g>
</svg>
