<?xml version="1.0" encoding="utf-8"?>
<!-- Generator: Adobe Illustrator 16.0.0, SVG Export Plug-In . SVG Version: 6.00 Build 0)  -->
<!DOCTYPE svg PUBLIC "-//W3C//DTD SVG 1.1//EN" "http://www.w3.org/Graphics/SVG/1.1/DTD/svg11.dtd">
<svg xmlns="http://www.w3.org/2000/svg" width="40" height="40" viewBox="0 0 40 40"><path fill="#b0c1d4" d="M7,37.5c-2.481,0-4.5-2.019-4.5-4.5V7c0-2.481,2.019-4.5,4.5-4.5h26c2.481,0,4.5,2.019,4.5,4.5v26 c0,2.481-2.019,4.5-4.5,4.5H7z"></path><path fill="#66798f" d="M33,3c2.206,0,4,1.794,4,4v26c0,2.206-1.794,4-4,4H7c-2.206,0-4-1.794-4-4V7c0-2.206,1.794-4,4-4 H33 M33,2H7C4.239,2,2,4.239,2,7v26c0,2.761,2.239,5,5,5h26c2.761,0,5-2.239,5-5V7C38,4.239,35.761,2,33,2L33,2z"></path></svg>