<?xml version="1.0" encoding="utf-8"?>
<!-- Generator: Adobe Illustrator 16.0.0, SVG Export Plug-In . SVG Version: 6.00 Build 0)  -->
<!DOCTYPE svg PUBLIC "-//W3C//DTD SVG 1.1//EN" "http://www.w3.org/Graphics/SVG/1.1/DTD/svg11.dtd">
<svg version="1.1" id="Layer_1" xmlns="http://www.w3.org/2000/svg" xmlns:xlink="http://www.w3.org/1999/xlink" x="0px" y="0px"
	 width="173.132px" height="148.25px" viewBox="0 0 173.132 148.25" enable-background="new 0 0 173.132 148.25"
	 xml:space="preserve">
<path fill="#231F20" d="M86.566,4.504l53.505,15.287v7.002v4.332h4.331h7.855c10.088,8.446,16.543,25.115,16.543,43
	s-6.455,34.554-16.543,43h-7.855h-4.331v4.332v7.002l-53.505,15.287l-53.506-15.287v-7.002v-4.332h-4.33h-7.856
	c-10.091-8.446-16.543-25.115-16.543-43s6.452-34.554,16.543-43h7.856h4.33v-4.332v-7.002L86.566,4.504 M86.566,0L28.73,16.524
	v10.269h-9.369C7.576,35.729,0,54.189,0,74.125s7.576,38.396,19.361,47.332h9.369v10.269l57.836,16.524l57.836-16.524v-10.269h9.369
	c11.783-8.936,19.36-27.396,19.36-47.332s-7.577-38.396-19.36-47.332h-9.369V16.524L86.566,0L86.566,0z"/>
<path fill="#231F20" d="M86.566,8.311l50.093,14.312v10.506v1.216h1.214h12.279c9.082,8.065,14.707,23.252,14.707,39.78
	c0,16.529-5.625,31.715-14.707,39.781h-12.279h-1.214v1.215v10.507l-50.093,14.312l-50.094-14.312v-10.507v-1.215h-1.214H22.98
	C13.898,105.84,8.271,90.654,8.271,74.125c0-16.528,5.627-31.715,14.709-39.78h12.278h1.214v-1.216V22.623L86.566,8.311"/>
</svg>
