<?xml version="1.0" encoding="utf-8"?>
<!-- Generator: Adobe Illustrator 16.0.0, SVG Export Plug-In . SVG Version: 6.00 Build 0)  -->
<!DOCTYPE svg PUBLIC "-//W3C//DTD SVG 1.1//EN" "http://www.w3.org/Graphics/SVG/1.1/DTD/svg11.dtd">
<svg version="1.1" id="Layer_1" xmlns="http://www.w3.org/2000/svg" xmlns:xlink="http://www.w3.org/1999/xlink" x="0px" y="0px"
	 width="121.65px" height="150.112px" viewBox="0 0 121.65 150.112" enable-background="new 0 0 121.65 150.112"
	 xml:space="preserve">
<path fill="#231F20" d="M60.823,6.007c12.566,11.406,28.167,17.64,44.361,17.64c1.349,0,2.709-0.044,4.07-0.133l7.042,15.303
	c-6.886,5.865-10.965,12.542-12.143,19.887c-1.398,8.713,2.414,15.16,5.778,20.851c3.32,5.616,6.754,11.423,6.754,20.868
	c0,7.828-2.693,13.658-8.472,18.349c-5.575,4.524-13.354,7.604-21.589,10.864c-9.327,3.691-18.922,7.49-25.803,14.026
	c-6.879-6.536-16.473-10.335-25.799-14.026c-8.236-3.262-16.016-6.341-21.589-10.865c-5.78-4.689-8.472-10.52-8.472-18.348
	c0-9.445,3.434-15.252,6.755-20.869c3.363-5.689,7.175-12.137,5.777-20.85c-1.179-7.345-5.259-14.021-12.144-19.887l7.041-15.303
	c1.361,0.089,2.723,0.133,4.072,0.133C32.659,23.646,48.259,17.412,60.823,6.007 M60.823,0
	C48.575,12.477,32.921,19.314,16.465,19.316c-2.233,0-4.489-0.131-6.727-0.389L0,40.09c7.631,5.68,12.075,12.166,13.22,19.299
	c1.15,7.169-1.949,12.41-5.229,17.96c-3.45,5.833-7.357,12.443-7.357,23.073c0,20.255,15.931,26.562,32.797,33.239
	c10.481,4.149,21.277,8.423,27.394,16.451c6.119-8.028,16.915-12.302,27.396-16.451c16.866-6.677,32.798-12.984,32.798-33.239
	c0-10.63-3.909-17.24-7.358-23.073c-3.28-5.55-6.379-10.791-5.229-17.96c1.145-7.133,5.589-13.619,13.22-19.299l-9.739-21.162
	c-2.236,0.258-4.492,0.389-6.727,0.389C88.729,19.316,73.074,12.479,60.823,0L60.823,0z"/>
<path fill="#231F20" d="M60.823,11.602c12.385,10.617,27.164,16.223,42.81,16.223c0.806,0,1.622-0.015,2.436-0.048l5.376,11.685
	c-6.262,5.743-10.018,12.276-11.164,19.427c-1.486,9.26,2.426,15.876,5.879,21.715c3.18,5.379,6.184,10.462,6.184,18.924
	c0,6.797-2.195,11.635-7.121,15.689c-4.789,3.942-12.062,6.988-20.384,10.283c-8.497,3.363-17.271,6.837-24.015,12.524
	c-6.743-5.688-15.52-9.163-24.018-12.527c-8.315-3.292-15.588-6.338-20.377-10.28c-4.926-4.055-7.123-8.893-7.123-15.689
	c0-8.462,3.006-13.545,6.186-18.926c3.451-5.837,7.365-12.453,5.878-21.713c-1.147-7.15-4.902-13.684-11.165-19.427l5.378-11.685
	c0.813,0.033,1.63,0.048,2.435,0.048C33.664,27.824,48.442,22.218,60.823,11.602"/>
</svg>
