<?xml version="1.0" encoding="utf-8"?>
<!-- Generator: Adobe Illustrator 16.0.0, SVG Export Plug-In . SVG Version: 6.00 Build 0)  -->
<!DOCTYPE svg PUBLIC "-//W3C//DTD SVG 1.1//EN" "http://www.w3.org/Graphics/SVG/1.1/DTD/svg11.dtd">
<svg version="1.1" id="Layer_1" xmlns="http://www.w3.org/2000/svg" xmlns:xlink="http://www.w3.org/1999/xlink" x="0px" y="0px"
	 width="24.982px" height="20.996px" viewBox="0 0 24.982 20.996" enable-background="new 0 0 24.982 20.996" xml:space="preserve">
<path fill="#FFFFFF" d="M19.128,9.018c1.72-0.693,2.94-2.373,2.94-4.337C22.068,2.1,19.968,0,17.387,0c-2.581,0-4.68,2.1-4.68,4.681
	c0,1.965,1.22,3.644,2.939,4.337c-1.175,0.224-2.251,0.764-3.151,1.54c-0.92-0.793-2-1.323-3.147-1.543
	c1.714-0.696,2.929-2.373,2.929-4.334C12.277,2.1,10.177,0,7.596,0S2.915,2.1,2.915,4.681c0,1.965,1.22,3.644,2.939,4.337
	C2.534,9.651,0,12.815,0,16.621v4.375h9.792h4.649h10.541v-4.375C24.982,12.815,22.449,9.652,19.128,9.018z M4.415,4.681
	c0-1.754,1.427-3.181,3.181-3.181s3.181,1.427,3.181,3.181S9.35,7.862,7.596,7.862S4.415,6.435,4.415,4.681z M1.5,19.496v-2.875
	c0-3.433,2.5-6.226,5.573-6.226h1.046c1.21,0,2.37,0.46,3.331,1.266c-1.033,1.343-1.658,3.072-1.658,4.96v2.875H1.5z M23.482,19.496
	h-9.041h-3.149v-2.875c0-3.433,2.5-6.226,5.572-6.226h1.046c3.073,0,5.572,2.793,5.572,6.226V19.496z"/>
</svg>
