<?xml version="1.0" encoding="utf-8"?>
<!-- Generator: Adobe Illustrator 16.0.0, SVG Export Plug-In . SVG Version: 6.00 Build 0)  -->
<!DOCTYPE svg PUBLIC "-//W3C//DTD SVG 1.1//EN" "http://www.w3.org/Graphics/SVG/1.1/DTD/svg11.dtd">
<svg version="1.1" id="Layer_1" xmlns="http://www.w3.org/2000/svg" xmlns:xlink="http://www.w3.org/1999/xlink" x="0px" y="0px"
	 width="20.302px" height="19.675px" viewBox="0 0 20.302 19.675" enable-background="new 0 0 20.302 19.675" xml:space="preserve">
<g>
	<path fill="#FFFFFF" d="M0.206,0h19.906l0.189,5.053h-0.842c-0.413-1.587-0.937-2.621-1.573-3.1
		c-0.636-0.479-1.974-0.719-4.014-0.719h-1.96v15.217c0,1.146,0.212,1.856,0.636,2.13c0.424,0.274,1.352,0.455,2.785,0.542v0.552
		H5.071v-0.552c1.49-0.096,2.418-0.303,2.785-0.622c0.367-0.318,0.55-1.117,0.55-2.398V1.234H6.429
		c-1.949,0-3.275,0.237-3.979,0.711c-0.705,0.474-1.235,1.51-1.59,3.107H0L0.206,0z"/>
</g>
</svg>
