<?xml version="1.0" encoding="utf-8"?>
<!-- Generator: Adobe Illustrator 16.0.0, SVG Export Plug-In . SVG Version: 6.00 Build 0)  -->
<!DOCTYPE svg PUBLIC "-//W3C//DTD SVG 1.1//EN" "http://www.w3.org/Graphics/SVG/1.1/DTD/svg11.dtd">
<svg version="1.1" id="Layer_1" xmlns="http://www.w3.org/2000/svg" xmlns:xlink="http://www.w3.org/1999/xlink" x="0px" y="0px"
	 width="2000px" height="2000px" viewBox="0 0 2000 2000" enable-background="new 0 0 2000 2000" xml:space="preserve">
<path fill="#231F20" d="M2632.758-428.493c3.195,0,5.797,2.601,5.797,5.798v2.541v4.446h4.447h0.844v12.074v1.724l1.162,1.273
	l0.647,0.71c0.252,0.286,7.448,8.578,7.448,17.791c0,9.377-7.371,17.706-7.432,17.773l-0.664,0.728l-1.162,1.273v1.725v12.073
	h-0.844h-4.447v4.447v2.54c0,3.197-2.602,5.798-5.797,5.798h-98.533c-3.196,0-5.799-2.601-5.799-5.798v-2.54v-4.447h-4.445h-0.844
	v-12.073v-1.725l-1.162-1.273l-0.648-0.71c-0.251-0.286-7.448-8.578-7.448-17.792c0-9.331,7.383-17.717,7.443-17.785l0.659-0.727
	l1.149-1.267l0.004-1.709l0.003-0.995v-11.088h0.844h4.445v-4.446v-2.541c0-3.197,2.603-5.798,5.799-5.798H2632.758
	 M2632.758-432.939h-98.533c-5.648,0-10.244,4.596-10.244,10.245v2.541h-2.541c-1.516,0-2.749,1.233-2.749,2.75v12.785l-0.003,0.983
	l-0.659,0.727c-0.086,0.095-8.597,9.599-8.597,20.773c0,11.175,8.511,20.679,8.594,20.771l0.665,0.729v13.77
	c0,1.516,1.233,2.75,2.749,2.75h2.541v2.54c0,5.649,4.596,10.245,10.244,10.245h98.533c5.648,0,10.244-4.596,10.244-10.245v-2.54
	h2.54c1.516,0,2.749-1.234,2.749-2.75v-13.77l0.665-0.729c0.086-0.094,8.594-9.542,8.594-20.771c0-11.174-8.51-20.678-8.594-20.77
	l-0.665-0.728v-13.77c0-1.517-1.233-2.75-2.749-2.75h-2.54v-2.541C2643.002-428.344,2638.406-432.939,2632.758-432.939
	L2632.758-432.939z"/>
<path fill="#231F20" d="M2631.479-426.053h-95.978c-2.432,0-4.41,1.979-4.41,4.41v8.043h-5.152v9.563l0.026,3.09l-2.104,2.304
	c-0.069,0.077-6.941,7.857-6.941,16.506c0,8.649,6.872,16.429,6.915,16.478l2.104,2.304v12.683h5.152v8.043
	c0,2.432,1.979,4.41,4.41,4.41h95.978c2.432,0,4.409-1.979,4.409-4.41v-8.043h5.153v-12.683l2.104-2.304
	c0.069-0.076,6.915-7.956,6.915-16.478c0-8.649-6.871-16.429-6.915-16.477l-2.104-2.304V-413.6h-5.153v-8.043
	C2635.889-424.075,2633.911-426.053,2631.479-426.053L2631.479-426.053z"/>
</svg>
