<?xml version="1.0" encoding="utf-8"?>
<!-- Generator: Adobe Illustrator 16.0.0, SVG Export Plug-In . SVG Version: 6.00 Build 0)  -->
<!DOCTYPE svg PUBLIC "-//W3C//DTD SVG 1.1//EN" "http://www.w3.org/Graphics/SVG/1.1/DTD/svg11.dtd">
<svg version="1.1" id="Layer_1" xmlns="http://www.w3.org/2000/svg" xmlns:xlink="http://www.w3.org/1999/xlink" x="0px" y="0px"
	 width="176.845px" height="128.741px" viewBox="0 0 176.845 128.741" enable-background="new 0 0 176.845 128.741"
	 xml:space="preserve">
<path fill="#231F20" d="M88.423,6.187c14.39,0,25.164,4.657,31.669,8.563c6.294,3.78,12.116,4.763,17.173,4.969
	c2.908,6.527,10.157,10.862,20.309,12.099c1.06,7.1,3.861,13.9,8.064,19.462c3.331,4.408,5.02,8.812,5.02,13.091
	c0,4.278-1.688,8.683-5.02,13.09c-4.203,5.562-7.005,12.362-8.064,19.462c-10.151,1.236-17.4,5.571-20.309,12.098
	c-5.056,0.206-10.879,1.189-17.173,4.969c-6.505,3.906-17.279,8.563-31.669,8.563c-14.391,0-25.165-4.657-31.67-8.563
	c-6.294-3.78-12.117-4.764-17.173-4.969c-2.908-6.527-10.157-10.862-20.309-12.098c-1.06-7.102-3.861-13.9-8.064-19.463
	c-3.331-4.407-5.02-8.812-5.02-13.09c0-4.279,1.688-8.683,5.02-13.09c4.203-5.562,7.005-12.362,8.064-19.463
	c10.151-1.237,17.4-5.571,20.309-12.099c5.057-0.206,10.879-1.188,17.173-4.969C63.258,10.844,74.031,6.187,88.423,6.187"/>
<path fill="#231F20" d="M170.574,47.55c-4.582-6.065-7.158-13.698-7.286-21.559c-12.775-0.146-20.81-4.861-21.225-12.427
	c-0.257,0.001-0.517,0.004-0.78,0.006c-0.494,0.004-1,0.008-1.517,0.008c-4.648,0-10.14-0.319-16.489-4.133
	C116.102,5.137,104.23,0,88.423,0C72.614,0,60.742,5.137,53.567,9.446c-6.35,3.813-11.841,4.133-16.489,4.133
	c-0.518,0-1.022-0.004-1.518-0.008c-0.263-0.002-0.522-0.005-0.779-0.006c-0.415,7.566-8.449,12.282-21.225,12.427
	c-0.128,7.861-2.704,15.495-7.286,21.559C2.109,53.056,0,58.715,0,64.371c0,5.655,2.109,11.314,6.271,16.82
	c4.582,6.063,7.158,13.697,7.286,21.558c12.775,0.146,20.81,4.861,21.225,12.428c0.257-0.001,0.517-0.004,0.779-0.006
	c0.495-0.004,1-0.008,1.518-0.008c4.648,0,10.14,0.319,16.489,4.133c7.175,4.309,19.046,9.446,34.855,9.446
	c15.808,0,27.679-5.137,34.854-9.446c6.35-3.814,11.841-4.133,16.489-4.133c0.517,0,1.022,0.004,1.518,0.008
	c0.263,0.002,0.522,0.005,0.779,0.006c0.415-7.566,8.449-12.282,21.225-12.428c0.128-7.86,2.704-15.493,7.286-21.558
	c4.161-5.506,6.271-11.166,6.271-16.82C176.845,58.715,174.735,53.056,170.574,47.55z M169.094,80.072
	c-4.472,5.917-7.127,13.25-7.593,20.87c-11.902,0.537-19.653,5.116-21.074,12.365c-0.218-0.001-0.438-0.002-0.66-0.002
	c-5.257,0-11.009,0.533-17.445,4.398c-6.974,4.188-18.516,9.182-33.898,9.182c-15.384,0-26.926-4.993-33.899-9.182
	c-6.437-3.865-12.188-4.398-17.445-4.398c-0.223,0-0.442,0-0.66,0.002c-1.421-7.249-9.172-11.828-21.074-12.365
	c-0.467-7.621-3.121-14.953-7.593-20.871C3.84,74.895,1.856,69.612,1.856,64.371c0-5.242,1.983-10.525,5.895-15.701
	c4.472-5.918,7.126-13.25,7.593-20.871c11.902-0.537,19.653-5.116,21.074-12.365c0.218,0.001,0.438,0.002,0.66,0.002
	c5.258,0,11.01-0.533,17.445-4.398c6.974-4.188,18.517-9.181,33.899-9.181c15.382,0,26.925,4.993,33.898,9.181
	c6.437,3.865,12.188,4.398,17.445,4.398c0.222,0,0.442-0.001,0.66-0.002c1.421,7.249,9.172,11.828,21.074,12.365
	c0.466,7.62,3.121,14.953,7.593,20.871c3.911,5.177,5.895,10.459,5.895,15.702C174.988,69.612,173.005,74.895,169.094,80.072z"/>
</svg>
