<?xml version="1.0" encoding="utf-8"?>
<!-- Generator: Adobe Illustrator 16.0.0, SVG Export Plug-In . SVG Version: 6.00 Build 0)  -->
<!DOCTYPE svg PUBLIC "-//W3C//DTD SVG 1.0//EN" "http://www.w3.org/TR/2001/REC-SVG-20010904/DTD/svg10.dtd" [
	<!ENTITY ns_flows "http://ns.adobe.com/Flows/1.0/">
	<!ENTITY ns_extend "http://ns.adobe.com/Extensibility/1.0/">
	<!ENTITY ns_ai "http://ns.adobe.com/AdobeIllustrator/10.0/">
	<!ENTITY ns_graphs "http://ns.adobe.com/Graphs/1.0/">
]>
<svg xmlns="http://www.w3.org/2000/svg" viewBox="0 0 48 48">
   <radialGradient id="hvV1EIa4U0TL1mjBmKmrqa" cx="11" cy="11.34" r="11" gradientUnits="userSpaceOnUse">
       <stop offset="0" stop-color="#bd4ff4"></stop>
	   <stop offset=".587" stop-color="#a235ec"></stop>
	   <stop offset="1" stop-color="#8c20e5"></stop>
	</radialGradient>
	<path fill="url(#hvV1EIa4U0TL1mjBmKmrqa)" d="M15,4C8.925,4,4,8.925,4,15s4.925,11,11,11s11-4.925,11-11S21.075,4,15,4z"></path>
	<path d="M14.957,17.926l-8.89,3.476C8.063,24.182,11.316,26,15,26c6.075,0,11-4.925,11-11	c0-0.533-0.051-1.052-0.124-1.565l-4.278,7.087L14.957,17.926z" opacity=".05"></path>
	<path d="M14.957,18.463l-8.579,3.354C8.392,24.362,11.502,26,15,26c6.075,0,11-4.925,11-11	c0-0.25-0.021-0.495-0.037-0.74l-4.154,6.882L14.957,18.463z" opacity=".07"></path>
	<linearGradient id="hvV1EIa4U0TL1mjBmKmrqb" x1="36.111" x2="29.637" y1="7.741" y2="35.644" gradientUnits="userSpaceOnUse">
		<stop offset="0" stop-color="#a3ffff"></stop>
		<stop offset=".223" stop-color="#9dfbff"></stop>
		<stop offset=".53" stop-color="#8bf1ff"></stop>
		<stop offset=".885" stop-color="#6ee0ff"></stop>
		<stop offset="1" stop-color="#63daff"></stop>
	</linearGradient>
	<path fill="url(#hvV1EIa4U0TL1mjBmKmrqb)" d="M30.929,7L17,30.076L30.929,37l13.929-6.924L30.929,7z"></path>
	<linearGradient id="hvV1EIa4U0TL1mjBmKmrqc" x1="36.339" x2="38.072" y1="6.339" y2="35.336" gradientUnits="userSpaceOnUse">
	    <stop offset="0" stop-color="#75daff"></stop>
		<stop offset="1" stop-color="#1ea2e4"></stop>
	</linearGradient>
	<path fill="url(#hvV1EIa4U0TL1mjBmKmrqc)" d="M31,7v30l13.929-6.924L31,7z"></path>
	<path fill="#eb6773" d="M15,19L3,23.674l12,4.783l12-4.783L15,19z"></path>
	<path fill="#d9414f" d="M15,28.457L3,23.674v14.348L15,44V28.457z"></path>
	<path fill="#cf1928" d="M15,28.457l12-4.783v14.348L15,44V28.457z"></path>
	<polygon points="28,35.544 28,22.99 22.557,20.87 17,30.076" opacity=".05"></polygon>
	<polygon points="27.5,35.296 27.5,23.332 22.294,21.305 17,30.076" opacity=".07"></polygon>
	<polygon fill="#cf1928" points="15,19 3,23.674 15,28.456 15,44 27,38.022 27,23.674"></polygon>
</svg>