<?xml version="1.0" encoding="utf-8"?>
<!-- Generator: Adobe Illustrator 16.0.0, SVG Export Plug-In . SVG Version: 6.00 Build 0)  -->
<!DOCTYPE svg PUBLIC "-//W3C//DTD SVG 1.1//EN" "http://www.w3.org/Graphics/SVG/1.1/DTD/svg11.dtd">
<svg version="1.1" id="Layer_1" xmlns="http://www.w3.org/2000/svg" xmlns:xlink="http://www.w3.org/1999/xlink" x="0px" y="0px"
	 width="86.804px" height="97.445px" viewBox="0 0 86.804 97.445" enable-background="new 0 0 86.804 97.445" xml:space="preserve">
<path fill="#010101" d="M82.304,21.067L47.902,1.206c-2.785-1.607-6.215-1.607-9,0L4.5,21.067C1.716,22.674,0,25.645,0,28.861
	v39.723c0,3.216,1.716,6.187,4.5,7.794l34.402,19.861c1.393,0.804,2.945,1.206,4.5,1.206c1.553,0,3.107-0.402,4.5-1.206
	l34.401-19.861c2.784-1.607,4.5-4.578,4.5-7.794V28.861C86.804,25.645,85.088,22.674,82.304,21.067z M79.248,64.897
	c0,2.788-1.5,5.386-3.915,6.78L47.316,87.852c-1.189,0.687-2.543,1.05-3.914,1.05s-2.727-0.363-3.915-1.05L11.471,71.677
	c-2.416-1.395-3.916-3.992-3.916-6.78v-32.35c0-2.788,1.5-5.386,3.916-6.78L39.487,9.592c2.38-1.373,5.451-1.371,7.829-0.001
	l28.017,16.176c2.415,1.395,3.915,3.992,3.915,6.78V64.897z"/>
<path fill="#010101" d="M74.833,26.632L46.816,10.458c-1.037-0.598-2.218-0.914-3.415-0.914c-1.196,0-2.378,0.316-3.414,0.915
	L11.971,26.632c-2.105,1.217-3.416,3.483-3.416,5.915v32.35c0,2.432,1.311,4.698,3.416,5.915l28.017,16.175
	c2.076,1.197,4.753,1.199,6.829,0l28.017-16.175c2.106-1.217,3.415-3.483,3.415-5.915v-32.35
	C78.248,30.116,76.939,27.849,74.833,26.632z"/>
</svg>
