<?xml version="1.0" encoding="utf-8"?>
<!-- Generator: Adobe Illustrator 16.0.0, SVG Export Plug-In . SVG Version: 6.00 Build 0)  -->
<!DOCTYPE svg PUBLIC "-//W3C//DTD SVG 1.1//EN" "http://www.w3.org/Graphics/SVG/1.1/DTD/svg11.dtd">
<svg version="1.1" id="Layer_1" xmlns="http://www.w3.org/2000/svg" xmlns:xlink="http://www.w3.org/1999/xlink" x="0px" y="0px"
	 width="176.844px" height="117.919px" viewBox="0 0 176.844 117.919" enable-background="new 0 0 176.844 117.919"
	 xml:space="preserve">
<path fill="#231F20" d="M88.421,7.549c7.629,4.952,14.975,7.274,22.907,7.274c6.475,0,12.133-1.511,18.124-3.11
	c5.662-1.511,11.517-3.073,17.974-3.073c6.728,0,12.201,5.473,12.201,12.201c0,4.103-1.015,7.373-2.088,10.836l-0.643,2.074
	l-0.967,3.117l2.729,1.789l1.56,1.021c6.535,4.282,10.438,11.491,10.438,19.282s-3.902,15-10.438,19.282l-1.56,1.021l-2.729,1.789
	l0.967,3.117l0.643,2.073c1.073,3.463,2.088,6.733,2.088,10.836c0,6.728-5.474,12.201-12.201,12.201
	c-6.458,0-12.312-1.562-17.974-3.074c-5.991-1.599-11.649-3.109-18.125-3.109c-7.932,0-15.277,2.322-22.906,7.274
	c-7.628-4.952-14.974-7.274-22.905-7.274c-6.475,0-12.135,1.511-18.125,3.11c-5.662,1.511-11.517,3.073-17.974,3.073
	c-6.728,0-12.201-5.473-12.201-12.201c0-4.103,1.015-7.373,2.088-10.836l0.644-2.073l0.966-3.117l-2.729-1.789l-1.56-1.021
	C10.089,73.959,6.187,66.75,6.187,58.959s3.902-15,10.438-19.282l1.56-1.021l2.729-1.789l-0.966-3.117l-0.644-2.074
	c-1.073-3.463-2.088-6.733-2.088-10.836c0-6.728,5.474-12.201,12.201-12.201c6.458,0,12.312,1.562,17.975,3.074
	c5.99,1.599,11.648,3.109,18.125,3.109C73.449,14.823,80.794,12.501,88.421,7.549"/>
<path fill="#231F20" d="M176.844,58.959c0-9.885-4.947-19.027-13.234-24.457l-0.389-0.255l0.229-0.738
	c1.162-3.75,2.365-7.629,2.365-12.668c0-10.139-8.249-18.388-18.389-18.388c-7.268,0-13.521,1.669-19.569,3.283
	c-5.588,1.491-10.866,2.899-16.529,2.9c-7.771,0-15.061-2.746-22.906-8.636c-7.844,5.889-15.133,8.636-22.905,8.636
	c-5.664,0-10.942-1.409-16.531-2.9c-6.046-1.614-12.299-3.283-19.567-3.283c-10.14,0-18.388,8.249-18.388,18.388
	c0,5.04,1.202,8.918,2.365,12.668l0.229,0.738l-0.39,0.255C4.947,39.932,0,49.075,0,58.959s4.947,19.027,13.233,24.457l0.39,0.255
	l-0.229,0.737c-1.163,3.75-2.365,7.629-2.365,12.668c0,10.139,8.248,18.388,18.388,18.388c7.269,0,13.521-1.668,19.569-3.283
	c5.588-1.491,10.866-2.9,16.529-2.9c7.771,0,15.062,2.747,22.905,8.637c7.845-5.89,15.134-8.637,22.906-8.637
	c5.664,0,10.942,1.409,16.53,2.9c6.047,1.614,12.3,3.283,19.568,3.283c10.14,0,18.389-8.249,18.389-18.388
	c0-5.039-1.203-8.918-2.365-12.668l-0.229-0.737l0.389-0.255C171.896,77.987,176.844,68.844,176.844,58.959z M161.676,84.959
	c1.122,3.619,2.282,7.36,2.282,12.119c0,9.116-7.416,16.532-16.532,16.532c-7.025,0-13.158-1.637-19.09-3.22
	c-5.709-1.524-11.102-2.963-17.009-2.963c-7.821,0-15.142,2.61-22.906,8.189c-7.764-5.58-15.084-8.189-22.905-8.189
	c-5.906,0-11.3,1.439-17.009,2.963c-5.932,1.583-12.065,3.22-19.09,3.22c-9.116,0-16.532-7.416-16.532-16.532
	c0-4.758,1.16-8.5,2.282-12.119l0.644-2.073l-1.56-1.022C6.489,76.778,1.855,68.216,1.855,58.959s4.634-17.819,12.396-22.904
	l1.56-1.022l-0.644-2.073c-1.122-3.619-2.282-7.361-2.282-12.119c0-9.115,7.416-16.532,16.532-16.532
	c7.025,0,13.158,1.637,19.089,3.22c5.709,1.523,11.102,2.963,17.008,2.963c0.001,0,0.002,0,0.002,0
	c7.822,0,15.142-2.61,22.905-8.189c7.765,5.58,15.085,8.189,22.905,8.189c0,0,0,0,0.001,0c5.906,0,11.299-1.439,17.008-2.963
	c5.933-1.583,12.065-3.22,19.091-3.22c9.116,0,16.532,7.417,16.532,16.532c0,4.758-1.16,8.5-2.282,12.119l-0.643,2.073l1.559,1.022
	c7.762,5.085,12.396,13.648,12.396,22.904s-4.634,17.819-12.396,22.904l-1.559,1.022L161.676,84.959z"/>
</svg>
