{"asset":{"version":"2.0","generator":"babylon.js glTF exporter for 3dsmax 2021 v20201207.3"},"scene":0,"scenes":[{"nodes":[0,13]}],"nodes":[{"children":[1,2,3,4,5,6,7,8,9,10,11,12],"name":"Group001"},{"mesh":0,"translation":[-0.0433490835,0.09427737,0.0550831631],"rotation":[0.0,0.0,0.6972777,0.7168011],"scale":[0.425401866,0.684558,0.425195515],"name":"Tube002"},{"mesh":0,"translation":[-0.0433490649,0.09427738,-0.0541011542],"rotation":[0.0,0.0,0.6972777,0.7168011],"scale":[0.425401866,0.684558,0.425195515],"name":"Tube009"},{"mesh":0,"translation":[0.0431852341,0.09427737,0.0550831631],"rotation":[3.0569165E-08,3.086291E-08,0.7167492,0.6973311],"scale":[0.4254019,-0.684558034,0.425195515],"name":"Tube010"},{"mesh":0,"translation":[0.0431852154,0.09427738,-0.0541011542],"rotation":[3.0569165E-08,3.086291E-08,0.7167492,0.6973311],"scale":[0.4254019,-0.684558034,0.425195515],"name":"Tube011"},{"mesh":1,"translation":[-0.0445504673,0.1465149,-0.0007985911],"rotation":[0.5109259,0.488829941,0.510926068,-0.4888298],"scale":[0.841101348,-0.6102549,0.876973748],"name":"Line xoan002"},{"mesh":1,"translation":[0.0445504673,0.1465149,-0.0007985911],"rotation":[-0.4888299,-0.510925949,-0.488829762,0.5109261],"scale":[0.841101348,0.6102549,0.876973748],"name":"Line xoan003"},{"mesh":2,"translation":[-0.047331322,-0.03182067,-4.76837148E-09],"name":"Box004"},{"mesh":3,"translation":[0.04721652,-0.03182067,4.76837148E-09],"name":"Box005"},{"mesh":4,"translation":[5.49077959E-06,-0.0316934474,0.114853457],"name":"Box006"},{"mesh":5,"translation":[-0.000120298857,-0.0316934474,-0.114853457],"name":"Box007"},{"mesh":6,"translation":[-5.74088081E-05,-0.0309623424,0.0],"name":"Box009"},{"mesh":7,"translation":[-5.74088081E-05,-0.2055154,0.0],"name":"Box010"},{"name":"Default light"}],"meshes":[{"primitives":[{"attributes":{"POSITION":1,"NORMAL":2,"TEXCOORD_0":3},"indices":0,"material":0}],"name":"Tube002"},{"primitives":[{"attributes":{"POSITION":5,"NORMAL":6},"indices":4,"material":1}],"name":"Line xoan002"},{"primitives":[{"attributes":{"POSITION":8,"NORMAL":9,"TEXCOORD_0":10},"indices":7,"material":2}],"name":"Box004"},{"primitives":[{"attributes":{"POSITION":12,"NORMAL":13,"TEXCOORD_0":14},"indices":11,"material":3}],"name":"Box005"},{"primitives":[{"attributes":{"POSITION":16,"NORMAL":17,"TEXCOORD_0":18},"indices":15,"material":4}],"name":"Box006"},{"primitives":[{"attributes":{"POSITION":20,"NORMAL":21,"TEXCOORD_0":22},"indices":19,"material":5}],"name":"Box007"},{"primitives":[{"attributes":{"POSITION":24,"NORMAL":25,"TEXCOORD_0":26},"indices":23,"material":6}],"name":"Box009"},{"primitives":[{"attributes":{"POSITION":28,"NORMAL":29,"TEXCOORD_0":30},"indices":27,"material":7}],"name":"Box010"}],"accessors":[{"bufferView":0,"componentType":5123,"count":4992,"type":"SCALAR","name":"accessorIndices"},{"bufferView":1,"componentType":5126,"count":4992,"max":[0.0150948092,0.0029241743,0.0150952348],"min":[-0.0150948511,-0.002924174,-0.0150952293],"type":"VEC3","name":"accessorPositions"},{"bufferView":1,"byteOffset":59904,"componentType":5126,"count":4992,"type":"VEC3","name":"accessorNormals"},{"bufferView":2,"componentType":5126,"count":4992,"type":"VEC2","name":"accessorUVs"},{"bufferView":0,"byteOffset":9984,"componentType":5125,"count":1758000,"type":"SCALAR","name":"accessorIndices"},{"bufferView":1,"byteOffset":119808,"componentType":5126,"count":1758000,"max":[0.0736632347,0.02635067,0.07013805],"min":[-0.0736632347,-0.0263506565,-0.07013804],"type":"VEC3","name":"accessorPositions"},{"bufferView":1,"byteOffset":21215808,"componentType":5126,"count":1758000,"type":"VEC3","name":"accessorNormals"},{"bufferView":0,"byteOffset":7041984,"componentType":5123,"count":528,"type":"SCALAR","name":"accessorIndices"},{"bufferView":1,"byteOffset":42311808,"componentType":5126,"count":528,"max":[0.00622499,0.175545081,0.126621708],"min":[-0.00622499455,-0.175545052,-0.126621708],"type":"VEC3","name":"accessorPositions"},{"bufferView":1,"byteOffset":42318144,"componentType":5126,"count":528,"type":"VEC3","name":"accessorNormals"},{"bufferView":2,"byteOffset":39936,"componentType":5126,"count":528,"type":"VEC2","name":"accessorUVs"},{"bufferView":0,"byteOffset":7043040,"componentType":5123,"count":528,"type":"SCALAR","name":"accessorIndices"},{"bufferView":1,"byteOffset":42324480,"componentType":5126,"count":528,"max":[0.006224985,0.175545081,0.126621708],"min":[-0.00622498,-0.175545052,-0.126621708],"type":"VEC3","name":"accessorPositions"},{"bufferView":1,"byteOffset":42330816,"componentType":5126,"count":528,"type":"VEC3","name":"accessorNormals"},{"bufferView":2,"byteOffset":44160,"componentType":5126,"count":528,"type":"VEC2","name":"accessorUVs"},{"bufferView":0,"byteOffset":7044096,"componentType":5123,"count":360,"type":"SCALAR","name":"accessorIndices"},{"bufferView":1,"byteOffset":42337152,"componentType":5126,"count":360,"max":[0.0530931838,0.175401762,0.0118294423],"min":[-0.0530931838,-0.175401777,-0.011829433],"type":"VEC3","name":"accessorPositions"},{"bufferView":1,"byteOffset":42341472,"componentType":5126,"count":360,"type":"VEC3","name":"accessorNormals"},{"bufferView":2,"byteOffset":48384,"componentType":5126,"count":360,"type":"VEC2","name":"accessorUVs"},{"bufferView":0,"byteOffset":7044816,"componentType":5123,"count":360,"type":"SCALAR","name":"accessorIndices"},{"bufferView":1,"byteOffset":42345792,"componentType":5126,"count":360,"max":[0.0530931763,0.175401762,0.011829433],"min":[-0.0530931763,-0.175401762,-0.0118294423],"type":"VEC3","name":"accessorPositions"},{"bufferView":1,"byteOffset":42350112,"componentType":5126,"count":360,"type":"VEC3","name":"accessorNormals"},{"bufferView":2,"byteOffset":51264,"componentType":5126,"count":360,"type":"VEC2","name":"accessorUVs"},{"bufferView":0,"byteOffset":7045536,"componentType":5123,"count":4368,"type":"SCALAR","name":"accessorIndices"},{"bufferView":1,"byteOffset":42354432,"componentType":5126,"count":4368,"max":[0.05206626,0.175014511,0.126634076],"min":[-0.05206626,-0.175014511,-0.126634076],"type":"VEC3","name":"accessorPositions"},{"bufferView":1,"byteOffset":42406848,"componentType":5126,"count":4368,"type":"VEC3","name":"accessorNormals"},{"bufferView":2,"byteOffset":54144,"componentType":5126,"count":4368,"type":"VEC2","name":"accessorUVs"},{"bufferView":0,"byteOffset":7054272,"componentType":5123,"count":996,"type":"SCALAR","name":"accessorIndices"},{"bufferView":1,"byteOffset":42459264,"componentType":5126,"count":996,"max":[0.05349891,0.001922408,0.126682892],"min":[-0.05349891,-0.00192240358,-0.126682892],"type":"VEC3","name":"accessorPositions"},{"bufferView":1,"byteOffset":42471216,"componentType":5126,"count":996,"type":"VEC3","name":"accessorNormals"},{"bufferView":2,"byteOffset":89088,"componentType":5126,"count":996,"type":"VEC2","name":"accessorUVs"}],"bufferViews":[{"buffer":0,"byteLength":7056264,"name":"bufferViewScalar"},{"buffer":0,"byteOffset":7056264,"byteLength":42483168,"byteStride":12,"name":"bufferViewFloatVec3"},{"buffer":0,"byteOffset":49539432,"byteLength":97056,"byteStride":8,"name":"bufferViewFloatVec2"}],"buffers":[{"uri":"scene.bin","byteLength":49636488}],"materials":[{"pbrMetallicRoughness":{"baseColorFactor":[0.7843138,0.7843138,0.7843138,1.0],"metallicFactor":0.0,"roughnessFactor":0.237952784},"name":"Vong khuyet"},{"pbrMetallicRoughness":{"baseColorFactor":[0.866666734,0.866666734,0.866666734,1.0],"metallicFactor":0.0,"roughnessFactor":0.450053632},"name":"Day tui"},{"pbrMetallicRoughness":{"baseColorTexture":{"index":0},"metallicFactor":0.0,"roughnessFactor":0.450053632},"name":"Mattruoc"},{"pbrMetallicRoughness":{"baseColorTexture":{"index":1},"metallicFactor":0.0,"roughnessFactor":0.450053632},"name":"Matsau"},{"pbrMetallicRoughness":{"baseColorTexture":{"index":2},"metallicFactor":0.0,"roughnessFactor":0.450053632},"name":"Matcanhphai"},{"pbrMetallicRoughness":{"baseColorTexture":{"index":3},"metallicFactor":0.0,"roughnessFactor":0.450053632},"name":"Matcanhtrai"},{"pbrMetallicRoughness":{"baseColorFactor":[0.90196085,0.0627451,0.0,1.0],"metallicFactor":0.0,"roughnessFactor":0.450053632},"name":"Mat trong tui"},{"pbrMetallicRoughness":{"baseColorFactor":[0.8431373,0.8431373,0.8431373,1.0],"metallicFactor":0.0,"roughnessFactor":0.450053632},"name":"Matday"}],"textures":[{"sampler":0,"source":0,"name":"Mattruoc.png"},{"sampler":0,"source":1,"name":"Matsau.png"},{"sampler":0,"source":2,"name":"Matcanhphai.png"},{"sampler":0,"source":3,"name":"Matcanhtrai.png"}],"images":[{"uri":"textures/Mattruoc.png"},{"uri":"textures/Matsau.png"},{"uri":"textures/Matcanhphai.png"},{"uri":"textures/Matcanhtrai.png"}],"samplers":[{"magFilter":9729,"minFilter":9987}]}