<?xml version="1.0" encoding="utf-8"?>
<!-- Generator: Adobe Illustrator 16.0.0, SVG Export Plug-In . SVG Version: 6.00 Build 0)  -->
<!DOCTYPE svg PUBLIC "-//W3C//DTD SVG 1.0//EN" "http://www.w3.org/TR/2001/REC-SVG-20010904/DTD/svg10.dtd" [
	<!ENTITY ns_flows "http://ns.adobe.com/Flows/1.0/">
	<!ENTITY ns_extend "http://ns.adobe.com/Extensibility/1.0/">
	<!ENTITY ns_ai "http://ns.adobe.com/AdobeIllustrator/10.0/">
	<!ENTITY ns_graphs "http://ns.adobe.com/Graphs/1.0/">
]>
<svg version="1.0" id="Layer_1" xmlns:x="&ns_extend;" xmlns:i="&ns_ai;" xmlns:graph="&ns_graphs;"
	 xmlns="http://www.w3.org/2000/svg" xmlns:xlink="http://www.w3.org/1999/xlink" xmlns:a="http://ns.adobe.com/AdobeSVGViewerExtensions/3.0/"
	 x="0px" y="0px" width="15.7856px" height="13.1978px" viewBox="0 0 15.7856 13.1978" enable-background="new 0 0 15.7856 13.1978"
	 xml:space="preserve">
<g>
	<path fill="#FFFFFF" d="M10.2617,9.7969c-0.1963,0-0.3921-0.0767-0.5391-0.2285C9.4346,9.2705,9.4424,8.7954,9.7402,8.5078
		l3.8511-3.7236L9.7578,1.3057C9.4512,1.0269,9.4277,0.5527,9.7061,0.2461c0.2793-0.3076,0.7529-0.3291,1.0596-0.0518l5.02,4.5547
		l-5.0024,4.8369C10.6377,9.7271,10.4497,9.7969,10.2617,9.7969z"/>
	<path fill="#FFFFFF" d="M0.7632,13.1978c-0.4097,0-0.7441-0.3291-0.75-0.7397c0,0-0.0298-2.1484,0-5.0024
		C0.0234,6.4448,0.354,5.6255,0.9951,5.0205c1.1387-1.0752,2.8394-1.0068,2.9111-1.0029l10.3721-0.001
		c0.4141,0,0.75,0.3359,0.75,0.75s-0.3359,0.75-0.75,0.75H3.8706C3.8262,5.5161,2.6875,5.48,2.019,6.1162
		c-0.3345,0.3188-0.5,0.7617-0.5059,1.355c-0.0298,2.8306,0,4.9619,0,4.9663c0.0059,0.4141-0.3252,0.7544-0.7397,0.7603
		C0.77,13.1978,0.7666,13.1978,0.7632,13.1978z"/>
</g>
</svg>
