<?xml version="1.0" encoding="utf-8"?>
<!-- Generator: Adobe Illustrator 16.0.0, SVG Export Plug-In . SVG Version: 6.00 Build 0)  -->
<!DOCTYPE svg PUBLIC "-//W3C//DTD SVG 1.0//EN" "http://www.w3.org/TR/2001/REC-SVG-20010904/DTD/svg10.dtd" [
	<!ENTITY ns_flows "http://ns.adobe.com/Flows/1.0/">
	<!ENTITY ns_extend "http://ns.adobe.com/Extensibility/1.0/">
	<!ENTITY ns_ai "http://ns.adobe.com/AdobeIllustrator/10.0/">
	<!ENTITY ns_graphs "http://ns.adobe.com/Graphs/1.0/">
]>
<svg version="1.0" id="Layer_1" xmlns:x="&ns_extend;" xmlns:i="&ns_ai;" xmlns:graph="&ns_graphs;"
	 xmlns="http://www.w3.org/2000/svg" xmlns:xlink="http://www.w3.org/1999/xlink" xmlns:a="http://ns.adobe.com/AdobeSVGViewerExtensions/3.0/"
	 x="0px" y="0px" width="19.5244px" height="15.3354px" viewBox="0 0 19.5244 15.3354" enable-background="new 0 0 19.5244 15.3354"
	 xml:space="preserve">
<g>
	<path fill="#FFFFFF" d="M15.0493,4.208c-0.4985-1.2236-2.0488-4.1455-5.5146-4.207C5.9219-0.0483,4.2148,1.897,3.792,3.5488
		C0.9648,3.9014-0.0269,6.0039,0.0005,7.7944c0.0337,2.1538,1.4771,4.479,3.7495,4.479h3.3232v-1.5088H3.75
		c-1.2935,0-2.2183-1.5781-2.2402-2.9941c-0.0127-0.8018,0.251-2.6758,2.9551-2.7607c0.3921-0.0117,0.71-0.3228,0.73-0.7144
		c0.042-0.7954,0.9146-2.835,4.313-2.7847c3.1738,0.0557,4.2393,3.499,4.2817,3.6431c0.0942,0.3262,0.4058,0.5332,0.7358,0.5435
		c3.2827-0.0552,3.4722,2.5088,3.4854,2.8013c0.0312,0.6636-0.1216,1.1689-0.4658,1.5425
		c-0.6284,0.6812-1.7124,0.7236-1.7021,0.7236h-3.2563v1.5088h3.2725c0.0698-0.001,1.7129-0.0498,2.7827-1.1948
		c0.6333-0.6782,0.9282-1.5708,0.8774-2.6509C19.375,5.3506,16.7822,4.3545,15.0493,4.208z"/>
	<path fill="#FFFFFF" d="M12.4248,7.3682L10.168,5.085C9.8804,4.7939,9.415,4.7842,9.1162,5.0645L6.5898,7.4229
		C6.3633,7.6348,6.2891,7.9634,6.4033,8.2515c0.1133,0.2881,0.3906,0.478,0.7021,0.478h1.771v5.8511
		c0,0.416,0.3379,0.7549,0.7549,0.7549c0.4165,0,0.7544-0.3389,0.7544-0.7549V8.7295h1.5762c0.0049,0.0005,0.0088,0,0.0127,0
		c0.416,0,0.7544-0.3389,0.7544-0.7554C12.729,7.7261,12.6099,7.5068,12.4248,7.3682z"/>
</g>
</svg>
