<?xml version="1.0" encoding="utf-8"?>
<!-- Generator: Adobe Illustrator 16.0.0, SVG Export Plug-In . SVG Version: 6.00 Build 0)  -->
<!DOCTYPE svg PUBLIC "-//W3C//DTD SVG 1.0//EN" "http://www.w3.org/TR/2001/REC-SVG-20010904/DTD/svg10.dtd" [
	<!ENTITY ns_flows "http://ns.adobe.com/Flows/1.0/">
	<!ENTITY ns_extend "http://ns.adobe.com/Extensibility/1.0/">
	<!ENTITY ns_ai "http://ns.adobe.com/AdobeIllustrator/10.0/">
	<!ENTITY ns_graphs "http://ns.adobe.com/Graphs/1.0/">
]>
<svg version="1.0" id="Layer_1" xmlns:x="&ns_extend;" xmlns:i="&ns_ai;" xmlns:graph="&ns_graphs;"
	 xmlns="http://www.w3.org/2000/svg" xmlns:xlink="http://www.w3.org/1999/xlink" xmlns:a="http://ns.adobe.com/AdobeSVGViewerExtensions/3.0/"
	 x="0px" y="0px" width="15.7861px" height="13.1968px" viewBox="0 0 15.7861 13.1968" enable-background="new 0 0 15.7861 13.1968"
	 xml:space="preserve">
<g>
	<path fill="#FFFFFF" d="M5.5249,9.7959c-0.188,0-0.3755-0.0698-0.5215-0.2109L0,4.748l5.021-4.5547
		C5.3276-0.083,5.8013-0.0615,6.0806,0.2451c0.2783,0.3066,0.2549,0.7812-0.0518,1.0596L2.1943,4.7832l3.8521,3.7236
		C6.3438,8.7944,6.3521,9.2695,6.064,9.5674C5.917,9.7192,5.7212,9.7959,5.5249,9.7959z"/>
	<path fill="#FFFFFF" d="M15.0234,13.1968c-0.0034,0-0.0068,0-0.0103,0c-0.4141-0.0059-0.7451-0.3457-0.7397-0.7603
		c0-0.0039,0.0288-2.1353,0-4.9663c-0.0063-0.5933-0.1719-1.0361-0.5068-1.355c-0.668-0.6362-1.8052-0.6064-1.8188-0.6001
		L1.5073,5.5156c-0.4141,0-0.75-0.3359-0.75-0.75s0.3359-0.75,0.75-0.75h10.4082c0.0361-0.0024,1.7373-0.0698,2.8755,1.0034
		c0.6411,0.605,0.9717,1.4243,0.9824,2.4355c0.0288,2.854,0,5.0024,0,5.0024C15.7681,12.8677,15.4331,13.1968,15.0234,13.1968z"/>
</g>
</svg>
