<?xml version="1.0" encoding="utf-8"?>
<!-- Generator: Adobe Illustrator 16.0.0, SVG Export Plug-In . SVG Version: 6.00 Build 0)  -->
<!DOCTYPE svg PUBLIC "-//W3C//DTD SVG 1.0//EN" "http://www.w3.org/TR/2001/REC-SVG-20010904/DTD/svg10.dtd" [
	<!ENTITY ns_flows "http://ns.adobe.com/Flows/1.0/">
	<!ENTITY ns_extend "http://ns.adobe.com/Extensibility/1.0/">
	<!ENTITY ns_ai "http://ns.adobe.com/AdobeIllustrator/10.0/">
	<!ENTITY ns_graphs "http://ns.adobe.com/Graphs/1.0/">
]>

<svg xmlns="http://www.w3.org/2000/svg" viewBox="0 0 48 48"><linearGradient id="i5_XIUxYabH__49BF5djLa" x1="11.59" x2="11.59" y1="8" y2="14.58" gradientUnits="userSpaceOnUse"><stop offset="0" stop-color="#f0f0f0"></stop><stop offset="1" stop-color="#bbc1c4"></stop></linearGradient><path fill="url(#i5_XIUxYabH__49BF5djLa)" d="M10.86,8c4.38,0,6.2,2,8.28,2c-2.07,0-13.51,0.83-15.1,4.58C5.49,10.8,7.65,8,10.86,8z"></path><linearGradient id="i5_XIUxYabH__49BF5djLb" x1="36.325" x2="36.325" y1="8" y2="13.83" gradientUnits="userSpaceOnUse"><stop offset="0" stop-color="#f0f0f0"></stop><stop offset="1" stop-color="#bbc1c4"></stop></linearGradient><path fill="url(#i5_XIUxYabH__49BF5djLb)" d="M43.65,13.83C41.91,10.5,31.05,10,29,10c2.08,0,3.76-2,8.14-2 C40.13,8,42.21,10.44,43.65,13.83z"></path><linearGradient id="i5_XIUxYabH__49BF5djLc" x1="24" x2="24" y1="10" y2="42" gradientUnits="userSpaceOnUse"><stop offset="0" stop-color="#f0f0f0"></stop><stop offset="1" stop-color="#bbc1c4"></stop></linearGradient><path fill="url(#i5_XIUxYabH__49BF5djLc)" d="M47,35c0,3.641-1.714,6-5,6s-7.619-10-12-10s-7.666,0-12.047,0S9.286,42,6,42s-5-3.359-5-7 c0-1,0-12.5,3-20.344C5.46,10.838,17.062,10,19.143,10c4.49,0,5.366,0,9.857,0c2.081,0,13.282,0.517,14.736,4 C46.998,21.813,47,35,47,35z"></path><linearGradient id="i5_XIUxYabH__49BF5djLd" x1="3.97" x2="3.97" y1="14.58" y2="14.94" gradientUnits="userSpaceOnUse"><stop offset="0" stop-color="#f0f0f0"></stop><stop offset="1" stop-color="#bbc1c4"></stop></linearGradient><path fill="url(#i5_XIUxYabH__49BF5djLd)" d="M4,14.66c0.01-0.03,0.02-0.05,0.04-0.08c-0.05,0.12-0.1,0.24-0.14,0.36 C3.93,14.84,3.96,14.75,4,14.66z"></path><linearGradient id="i5_XIUxYabH__49BF5djLe" x1="43.76" x2="43.76" y1="13.83" y2="14.34" gradientUnits="userSpaceOnUse"><stop offset="0" stop-color="#f0f0f0"></stop><stop offset="1" stop-color="#bbc1c4"></stop></linearGradient><path fill="url(#i5_XIUxYabH__49BF5djLe)" d="M43.74,14c0.05,0.11,0.09,0.23,0.13,0.34c-0.07-0.18-0.14-0.34-0.22-0.51 C43.69,13.89,43.72,13.94,43.74,14z"></path><circle cx="18" cy="25" r="5" fill="#fff" opacity=".35"></circle><radialGradient id="i5_XIUxYabH__49BF5djLf" cx="18" cy="25" r="4" gradientUnits="userSpaceOnUse"><stop offset="0" stop-color="#8795a1"></stop><stop offset="1" stop-color="#6d7882"></stop></radialGradient><path fill="url(#i5_XIUxYabH__49BF5djLf)" d="M22,25c0,0.35-0.04,0.68-0.14,1c-0.02,0.11-0.06,0.22-0.1,0.33 c-0.39,1.14-1.29,2.04-2.43,2.43c-0.11,0.04-0.22,0.08-0.33,0.1c-0.32,0.1-0.65,0.14-1,0.14s-0.68-0.04-1-0.14 c-0.11-0.02-0.22-0.06-0.33-0.1c-1.14-0.39-2.04-1.29-2.43-2.43c-0.04-0.11-0.08-0.22-0.1-0.33c-0.1-0.32-0.14-0.65-0.14-1 c0-0.35,0.04-0.68,0.14-1c0.02-0.11,0.06-0.22,0.1-0.33c0.39-1.14,1.29-2.04,2.43-2.43c0.11-0.04,0.22-0.08,0.33-0.1 c0.32-0.1,0.65-0.14,1-0.14s0.68,0.04,1,0.14c0.11,0.02,0.22,0.06,0.33,0.1c1.14,0.39,2.04,1.29,2.43,2.43 c0.04,0.11,0.08,0.22,0.1,0.33C21.96,24.32,22,24.65,22,25z"></path><circle cx="40.5" cy="17.5" r="2.5" fill="#fff" opacity=".35"></circle><circle cx="37.5" cy="14.5" r="2.5" fill="#fff" opacity=".35"></circle><circle cx="37.5" cy="20.5" r="2.5" fill="#fff" opacity=".35"></circle><circle cx="34.5" cy="17.5" r="2.5" fill="#fff" opacity=".35"></circle><radialGradient id="i5_XIUxYabH__49BF5djLg" cx="37.494" cy="14.5" r="1.497" gradientUnits="userSpaceOnUse"><stop offset="0" stop-color="#fee100"></stop><stop offset="1" stop-color="#f7a511"></stop></radialGradient><path fill="url(#i5_XIUxYabH__49BF5djLg)" d="M38.989,14.5c0,0.825-0.672,1.5-1.494,1.5S36,15.325,36,14.5s0.672-1.5,1.494-1.5 S38.989,13.675,38.989,14.5z"></path><radialGradient id="i5_XIUxYabH__49BF5djLh" cx="37.506" cy="20.5" r="1.497" gradientUnits="userSpaceOnUse"><stop offset="0" stop-color="#1ad674"></stop><stop offset=".485" stop-color="#13c266"></stop><stop offset="1" stop-color="#0aa854"></stop></radialGradient><path fill="url(#i5_XIUxYabH__49BF5djLh)" d="M39,20.5c0,0.825-0.672,1.5-1.494,1.5s-1.494-0.675-1.494-1.5s0.672-1.5,1.494-1.5 S39,19.675,39,20.5z"></path><radialGradient id="i5_XIUxYabH__49BF5djLi" cx="40.506" cy="17.5" r="1.497" gradientUnits="userSpaceOnUse"><stop offset="0" stop-color="#ff80a9"></stop><stop offset="1" stop-color="#ff3b78"></stop></radialGradient><path fill="url(#i5_XIUxYabH__49BF5djLi)" d="M39.011,17.5c0-0.825,0.672-1.5,1.494-1.5S42,16.675,42,17.5S41.328,19,40.506,19 S39.011,18.325,39.011,17.5z"></path><radialGradient id="i5_XIUxYabH__49BF5djLj" cx="34.494" cy="17.5" r="1.497" gradientUnits="userSpaceOnUse"><stop offset="0" stop-color="#46c3f0"></stop><stop offset="1" stop-color="#15a2eb"></stop></radialGradient><path fill="url(#i5_XIUxYabH__49BF5djLj)" d="M35.989,17.5c0,0.825-0.672,1.5-1.494,1.5C33.672,19,33,18.325,33,17.5 s0.672-1.5,1.494-1.5C35.316,16,35.989,16.675,35.989,17.5z"></path><path fill="#64717c" d="M14.14,24c-0.1,0.32-0.14,0.65-0.14,1c0,0.35,0.04,0.68,0.14,1H17v-2H14.14z M17,26v2.86 c0.32,0.1,0.65,0.14,1,0.14s0.68-0.04,1-0.14V26H17z M21.86,24H19v2h2.86c0.1-0.32,0.14-0.65,0.14-1C22,24.65,21.96,24.32,21.86,24 z M18,21c-0.35,0-0.68,0.04-1,0.14V24h2v-2.86C18.68,21.04,18.35,21,18,21z"></path><circle cx="11" cy="17" r="4" fill="#fff" opacity=".35"></circle><circle cx="30" cy="25" r="4" fill="#fff" opacity=".35"></circle><radialGradient id="i5_XIUxYabH__49BF5djLk" cx="11" cy="17" r="3" gradientUnits="userSpaceOnUse"><stop offset="0" stop-color="#8795a1"></stop><stop offset="1" stop-color="#6d7882"></stop></radialGradient><circle cx="11" cy="17" r="3" fill="url(#i5_XIUxYabH__49BF5djLk)"></circle><radialGradient id="i5_XIUxYabH__49BF5djLl" cx="30" cy="25" r="3" gradientUnits="userSpaceOnUse"><stop offset="0" stop-color="#8795a1"></stop><stop offset="1" stop-color="#6d7882"></stop></radialGradient><circle cx="30" cy="25" r="3" fill="url(#i5_XIUxYabH__49BF5djLl)"></circle><g><circle cx="24" cy="15" r="3" fill="#fff" opacity=".35"></circle><radialGradient id="i5_XIUxYabH__49BF5djLm" cx="24" cy="15" r="2" gradientUnits="userSpaceOnUse"><stop offset="0" stop-color="#8795a1"></stop><stop offset="1" stop-color="#6d7882"></stop></radialGradient><path fill="url(#i5_XIUxYabH__49BF5djLm)" d="M26,15c0,0.32-0.08,0.63-0.22,0.9c-0.08,0.17-0.19,0.32-0.31,0.45 C25.1,16.75,24.58,17,24,17s-1.1-0.25-1.47-0.65c-0.12-0.13-0.23-0.28-0.31-0.45C22.08,15.63,22,15.32,22,15 c0-0.56,0.24-1.08,0.62-1.44c0.17-0.17,0.37-0.3,0.59-0.39C23.45,13.06,23.72,13,24,13s0.55,0.06,0.79,0.17 c0.22,0.09,0.42,0.22,0.59,0.39C25.76,13.92,26,14.44,26,15z"></path><path fill="#fff" d="M25.78,15.9c-0.08,0.17-0.19,0.32-0.31,0.45c-0.22-0.39-0.65-0.96-1.47-1.7 c-0.2-0.17-0.42-0.36-0.66-0.55c-0.22-0.17-0.46-0.35-0.72-0.54c0.17-0.17,0.37-0.3,0.59-0.39c0.22,0.09,0.5,0.22,0.79,0.41 c0.21,0.14,0.44,0.31,0.66,0.52C25.12,14.53,25.54,15.11,25.78,15.9z"></path><path fill="#fff" d="M25.38,13.56c-0.26,0.19-0.5,0.37-0.72,0.54c-0.24,0.19-0.46,0.38-0.66,0.55 c-0.82,0.74-1.25,1.31-1.47,1.7c-0.12-0.13-0.23-0.28-0.31-0.45c0.24-0.79,0.66-1.37,1.12-1.8c0.22-0.21,0.45-0.38,0.66-0.52 c0.29-0.19,0.57-0.32,0.79-0.41C25.01,13.26,25.21,13.39,25.38,13.56z"></path></g></svg>