<?xml version="1.0" encoding="utf-8"?>
<!-- Generator: Adobe Illustrator 16.0.0, SVG Export Plug-In . SVG Version: 6.00 Build 0)  -->
<!DOCTYPE svg PUBLIC "-//W3C//DTD SVG 1.0//EN" "http://www.w3.org/TR/2001/REC-SVG-20010904/DTD/svg10.dtd" [
	<!ENTITY ns_flows "http://ns.adobe.com/Flows/1.0/">
	<!ENTITY ns_extend "http://ns.adobe.com/Extensibility/1.0/">
	<!ENTITY ns_ai "http://ns.adobe.com/AdobeIllustrator/10.0/">
	<!ENTITY ns_graphs "http://ns.adobe.com/Graphs/1.0/">
]>
<svg version="1.0" id="Layer_1" xmlns:x="&ns_extend;" xmlns:i="&ns_ai;" xmlns:graph="&ns_graphs;"
	 xmlns="http://www.w3.org/2000/svg" xmlns:xlink="http://www.w3.org/1999/xlink" xmlns:a="http://ns.adobe.com/AdobeSVGViewerExtensions/3.0/"
	 x="0px" y="0px" width="20.1387px" height="15.3193px" viewBox="0 0 20.1387 15.3193" enable-background="new 0 0 20.1387 15.3193"
	 xml:space="preserve">
<g>
	<path fill="#FFFFFF" d="M20.1128,1.8013C20.1104,0.8042,19.3013-0.0015,18.3047,0l-3.6465,0.0298H1.8032
		C0.8076,0.0298,0,0.8359,0,1.8364v11.6782c0,0.9961,0.8076,1.8047,1.8032,1.8047h12.855l3.6807-0.0293
		c0.998-0.001,1.8032-0.8135,1.7998-1.8091L20.1128,1.8013z"/>
	<path fill="#FFFFFF" d="M6.4272,7.2227c0.793-0.603,1.9248-0.4512,2.5293,0.3423l1.6128,2.1143l2.0117-1.5269l2.8848-2.229
		c0.793-0.603,1.9253-0.4517,2.5303,0.3418l2.1323,2.7969l-0.0156-7.2607C20.1104,0.8042,19.3013-0.0015,18.3047,0l-3.6465,0.0298
		H1.8032C0.8076,0.0298,0,0.8359,0,1.8364v10.3042l3.541-2.689L6.4272,7.2227z"/>
	<linearGradient id="SVGID_1_" gradientUnits="userSpaceOnUse" x1="0" y1="11.0869" x2="10.5693" y2="11.0869">
		<stop  offset="0" style="stop-color:#917BE3"/>
		<stop  offset="1" style="stop-color:#4DDAE5"/>
		<a:midPointStop  offset="0" style="stop-color:#917BE3"/>
		<a:midPointStop  offset="0.5" style="stop-color:#917BE3"/>
		<a:midPointStop  offset="1" style="stop-color:#4DDAE5"/>
	</linearGradient>
	<path fill="url(#SVGID_1_)" d="M1.8032,15.3193h1.3369l7.4292-5.6401L8.9565,7.5649C8.3521,6.7715,7.2202,6.6196,6.4272,7.2227
		L3.541,9.4517L0,12.1406v1.374C0,14.5107,0.8076,15.3193,1.8032,15.3193z"/>
	<linearGradient id="SVGID_2_" gradientUnits="userSpaceOnUse" x1="10.5693" y1="10.436" x2="20.1387" y2="10.436">
		<stop  offset="0" style="stop-color:#2C7B4D"/>
		<stop  offset="1" style="stop-color:#ACC159"/>
		<a:midPointStop  offset="0" style="stop-color:#2C7B4D"/>
		<a:midPointStop  offset="0.5" style="stop-color:#2C7B4D"/>
		<a:midPointStop  offset="1" style="stop-color:#ACC159"/>
	</linearGradient>
	<path fill="url(#SVGID_2_)" d="M15.4658,5.9233l-2.8848,2.229l-2.0117,1.5269l4.2998,5.6387l3.4697-0.0278
		c0.998-0.001,1.8032-0.8135,1.7998-1.8091L20.1284,9.062l-2.1323-2.7969C17.3911,5.4717,16.2588,5.3203,15.4658,5.9233z"/>
	<linearGradient id="SVGID_3_" gradientUnits="userSpaceOnUse" x1="3.1401" y1="12.499" x2="14.8691" y2="12.499">
		<stop  offset="0" style="stop-color:#917BE3"/>
		<stop  offset="1" style="stop-color:#4FC1E5"/>
		<a:midPointStop  offset="0" style="stop-color:#917BE3"/>
		<a:midPointStop  offset="0.5" style="stop-color:#917BE3"/>
		<a:midPointStop  offset="1" style="stop-color:#4FC1E5"/>
	</linearGradient>
	<polygon fill="url(#SVGID_3_)" points="3.1401,15.3193 14.6582,15.3193 14.8691,15.3179 10.5693,9.6792 	"/>
	<linearGradient id="SVGID_4_" gradientUnits="userSpaceOnUse" x1="3.5361" y1="3.498" x2="7.0322" y2="3.498">
		<stop  offset="0" style="stop-color:#F5A050"/>
		<stop  offset="1" style="stop-color:#EB3033"/>
		<a:midPointStop  offset="0" style="stop-color:#F5A050"/>
		<a:midPointStop  offset="0.5" style="stop-color:#F5A050"/>
		<a:midPointStop  offset="1" style="stop-color:#EB3033"/>
	</linearGradient>
	<circle fill="url(#SVGID_4_)" cx="5.2842" cy="3.4976" r="1.748"/>
</g>
</svg>
