<?xml version="1.0" encoding="utf-8"?>
<!-- Generator: Adobe Illustrator 16.0.0, SVG Export Plug-In . SVG Version: 6.00 Build 0)  -->
<!DOCTYPE svg PUBLIC "-//W3C//DTD SVG 1.0//EN" "http://www.w3.org/TR/2001/REC-SVG-20010904/DTD/svg10.dtd" [
	<!ENTITY ns_flows "http://ns.adobe.com/Flows/1.0/">
	<!ENTITY ns_extend "http://ns.adobe.com/Extensibility/1.0/">
	<!ENTITY ns_ai "http://ns.adobe.com/AdobeIllustrator/10.0/">
	<!ENTITY ns_graphs "http://ns.adobe.com/Graphs/1.0/">
]>
<svg xmlns="http://www.w3.org/2000/svg" viewBox="0 0 48 48"><radialGradient id="HTwovLxZeASOBBwA7zkRGa" cx="40.31" cy="-333.239" r="43.767" gradientTransform="matrix(1 0 0 -1 0 -290.001)" gradientUnits="userSpaceOnUse"><stop offset="0" stop-color="#6d75d6"></stop><stop offset=".123" stop-color="#8189de"></stop><stop offset=".384" stop-color="#a7adec"></stop><stop offset=".625" stop-color="#c3c7f6"></stop><stop offset=".838" stop-color="#d3d6fd"></stop><stop offset="1" stop-color="#d9dcff"></stop></radialGradient><path fill="url(#HTwovLxZeASOBBwA7zkRGa)" d="M24,4C12.954,4,4,12.954,4,24s8.954,20,20,20s20-8.954,20-20S35.046,4,24,4z"></path><radialGradient id="HTwovLxZeASOBBwA7zkRGb" cx="18.159" cy="-321.664" r="5.386" gradientTransform="matrix(.9625 0 0 -.9625 2.587 -294.726)" gradientUnits="userSpaceOnUse"><stop offset=".313" stop-color="#6063e0" stop-opacity="0"></stop><stop offset="1" stop-color="#6063e0"></stop></radialGradient><path fill="url(#HTwovLxZeASOBBwA7zkRGb)" d="M19,10c-1.657,0-3,1.343-3,3s1.343,3,3,3s3-1.343,3-3S20.657,10,19,10z"></path><radialGradient id="HTwovLxZeASOBBwA7zkRGc" cx="13.71" cy="-315.251" r="3.456" gradientTransform="matrix(1 0 0 -1 0 -290.001)" gradientUnits="userSpaceOnUse"><stop offset=".313" stop-color="#6063e0" stop-opacity="0"></stop><stop offset="1" stop-color="#6063e0"></stop></radialGradient><path fill="url(#HTwovLxZeASOBBwA7zkRGc)" d="M13,22c-1.105,0-2,0.895-2,2s0.895,2,2,2s2-0.895,2-2S14.105,22,13,22z"></path><radialGradient id="HTwovLxZeASOBBwA7zkRGd" cx="39.198" cy="15.005" r="32.414" gradientUnits="userSpaceOnUse"><stop offset=".212" stop-color="#5059c9"></stop><stop offset=".373" stop-color="#545dcb"></stop><stop offset=".524" stop-color="#5f68d1"></stop><stop offset=".672" stop-color="#727ada"></stop><stop offset=".818" stop-color="#8d94e8"></stop><stop offset=".96" stop-color="#afb5f9"></stop><stop offset="1" stop-color="#bac0ff"></stop></radialGradient><path fill="url(#HTwovLxZeASOBBwA7zkRGd)" d="M24,4v40c11.046,0,20-8.954,20-20C44,12.954,35.046,4,24,4z"></path><radialGradient id="HTwovLxZeASOBBwA7zkRGe" cx="37.033" cy="-312.439" r="2.592" gradientTransform="matrix(1 0 0 -1 0 -290.001)" gradientUnits="userSpaceOnUse"><stop offset=".313" stop-color="#3f41a1" stop-opacity="0"></stop><stop offset="1" stop-color="#3f41a1"></stop></radialGradient><path fill="url(#HTwovLxZeASOBBwA7zkRGe)" d="M36.5,20c-0.828,0-1.5,0.672-1.5,1.5s0.672,1.5,1.5,1.5s1.5-0.672,1.5-1.5S37.328,20,36.5,20 z"></path></svg>