{"asset":{"version":"2.0","generator":"babylon.js glTF exporter for 3dsmax 2021 v20201010.1"},"scene":0,"scenes":[{"nodes":[0,1,2,3,4,5,6]}],"nodes":[{"mesh":0,"translation":[-1.08518648,0.0,-0.228449166],"rotation":[0.0,0.0858370438,0.0,0.9963092],"name":"Cylinder020"},{"mesh":1,"translation":[-1.08518648,0.0,-0.228449166],"rotation":[0.0,0.0858370438,0.0,0.9963092],"name":"Cylinder021"},{"mesh":2,"translation":[-1.21208906,0.0,-0.228449166],"rotation":[0.0,0.0858370438,0.0,0.9963092],"name":"Cylinder022"},{"mesh":3,"translation":[-1.21208906,0.0,-0.228449166],"rotation":[0.0,0.0858370438,0.0,0.9963092],"name":"Cylinder023"},{"mesh":4,"translation":[-1.32570529,0.0,-0.228449166],"rotation":[0.0,0.0858370438,0.0,0.9963092],"name":"Cylinder024"},{"mesh":5,"translation":[-1.32570529,0.0,-0.228449166],"rotation":[0.0,0.0858370438,0.0,0.9963092],"name":"Cylinder025"},{"name":"Default light"}],"meshes":[{"primitives":[{"attributes":{"POSITION":1,"NORMAL":2,"TEXCOORD_0":3},"indices":0,"material":0}],"name":"Cylinder020"},{"primitives":[{"attributes":{"POSITION":5,"NORMAL":6,"TEXCOORD_0":7},"indices":4,"material":1}],"name":"Cylinder021"},{"primitives":[{"attributes":{"POSITION":9,"NORMAL":10,"TEXCOORD_0":11},"indices":8,"material":0}],"name":"Cylinder022"},{"primitives":[{"attributes":{"POSITION":13,"NORMAL":14,"TEXCOORD_0":15},"indices":12,"material":2}],"name":"Cylinder023"},{"primitives":[{"attributes":{"POSITION":17,"NORMAL":18,"TEXCOORD_0":19},"indices":16,"material":0}],"name":"Cylinder024"},{"primitives":[{"attributes":{"POSITION":21,"NORMAL":22,"TEXCOORD_0":23},"indices":20,"material":3}],"name":"Cylinder025"}],"accessors":[{"bufferView":0,"componentType":5125,"count":116880,"type":"SCALAR","name":"accessorIndices"},{"bufferView":1,"componentType":5126,"count":116880,"max":[0.03185484,0.0699953139,0.0582569763],"min":[-0.0318547376,-0.00199999963,-0.0318547748],"type":"VEC3","name":"accessorPositions"},{"bufferView":1,"byteOffset":1402560,"componentType":5126,"count":116880,"type":"VEC3","name":"accessorNormals"},{"bufferView":2,"componentType":5126,"count":116880,"type":"VEC2","name":"accessorUVs"},{"bufferView":0,"byteOffset":467520,"componentType":5123,"count":30888,"type":"SCALAR","name":"accessorIndices"},{"bufferView":1,"byteOffset":2805120,"componentType":5126,"count":30888,"max":[0.03185484,0.06886654,0.0311592855],"min":[-0.0318547376,0.0100611886,-0.0318547748],"type":"VEC3","name":"accessorPositions"},{"bufferView":1,"byteOffset":3175776,"componentType":5126,"count":30888,"type":"VEC3","name":"accessorNormals"},{"bufferView":2,"byteOffset":935040,"componentType":5126,"count":30888,"type":"VEC2","name":"accessorUVs"},{"bufferView":0,"byteOffset":529296,"componentType":5125,"count":116880,"type":"SCALAR","name":"accessorIndices"},{"bufferView":1,"byteOffset":3546432,"componentType":5126,"count":116880,"max":[0.03185484,0.0699953139,0.0582569763],"min":[-0.0318547376,-0.00199999963,-0.0318547748],"type":"VEC3","name":"accessorPositions"},{"bufferView":1,"byteOffset":4948992,"componentType":5126,"count":116880,"type":"VEC3","name":"accessorNormals"},{"bufferView":2,"byteOffset":1182144,"componentType":5126,"count":116880,"type":"VEC2","name":"accessorUVs"},{"bufferView":0,"byteOffset":996816,"componentType":5123,"count":30888,"type":"SCALAR","name":"accessorIndices"},{"bufferView":1,"byteOffset":6351552,"componentType":5126,"count":30888,"max":[0.03185484,0.06886654,0.0311592855],"min":[-0.0318547376,0.0100611886,-0.0318547748],"type":"VEC3","name":"accessorPositions"},{"bufferView":1,"byteOffset":6722208,"componentType":5126,"count":30888,"type":"VEC3","name":"accessorNormals"},{"bufferView":2,"byteOffset":2117184,"componentType":5126,"count":30888,"type":"VEC2","name":"accessorUVs"},{"bufferView":0,"byteOffset":1058592,"componentType":5125,"count":116880,"type":"SCALAR","name":"accessorIndices"},{"bufferView":1,"byteOffset":7092864,"componentType":5126,"count":116880,"max":[0.03185484,0.0699953139,0.0582569763],"min":[-0.0318547376,-0.00199999963,-0.0318547748],"type":"VEC3","name":"accessorPositions"},{"bufferView":1,"byteOffset":8495424,"componentType":5126,"count":116880,"type":"VEC3","name":"accessorNormals"},{"bufferView":2,"byteOffset":2364288,"componentType":5126,"count":116880,"type":"VEC2","name":"accessorUVs"},{"bufferView":0,"byteOffset":1526112,"componentType":5123,"count":30888,"type":"SCALAR","name":"accessorIndices"},{"bufferView":1,"byteOffset":9897984,"componentType":5126,"count":30888,"max":[0.03185484,0.06886654,0.0311592855],"min":[-0.0318547376,0.0100611886,-0.0318547748],"type":"VEC3","name":"accessorPositions"},{"bufferView":1,"byteOffset":10268640,"componentType":5126,"count":30888,"type":"VEC3","name":"accessorNormals"},{"bufferView":2,"byteOffset":3299328,"componentType":5126,"count":30888,"type":"VEC2","name":"accessorUVs"}],"bufferViews":[{"buffer":0,"byteLength":1587888,"name":"bufferViewScalar"},{"buffer":0,"byteOffset":1587888,"byteLength":10639296,"byteStride":12,"name":"bufferViewFloatVec3"},{"buffer":0,"byteOffset":12227184,"byteLength":3546432,"byteStride":8,"name":"bufferViewFloatVec2"}],"buffers":[{"uri":"model.bin","byteLength":15773616}],"materials":[{"pbrMetallicRoughness":{"metallicFactor":0.0,"roughnessFactor":0.450053632},"name":"Coc 1"},{"pbrMetallicRoughness":{"baseColorTexture":{"index":0},"metallicFactor":0.0,"roughnessFactor":0.450053632},"name":"Nen trong suot"},{"pbrMetallicRoughness":{"baseColorTexture":{"index":1},"metallicFactor":0.0,"roughnessFactor":0.450053632},"name":"Nen trong suot logo"},{"pbrMetallicRoughness":{"baseColorTexture":{"index":2},"metallicFactor":0.0,"roughnessFactor":0.450053632},"name":"Nen trang logo"}],"textures":[{"sampler":0,"source":0,"name":"Nen trong suot.png"},{"sampler":0,"source":1,"name":"Nen trong suot logo.png"},{"sampler":0,"source":2,"name":"Nen trang logo.png"}],"images":[{"uri":"textures/Nen trong suot.png"},{"uri":"textures/Nen trong suot logo.png"},{"uri":"textures/Nen trang logo.png"}],"samplers":[{"magFilter":9729,"minFilter":9987}]}