<?xml version="1.0" encoding="utf-8"?>
<!-- Generator: Adobe Illustrator 16.0.0, SVG Export Plug-In . SVG Version: 6.00 Build 0)  -->
<!DOCTYPE svg PUBLIC "-//W3C//DTD SVG 1.0//EN" "http://www.w3.org/TR/2001/REC-SVG-20010904/DTD/svg10.dtd" [
	<!ENTITY ns_flows "http://ns.adobe.com/Flows/1.0/">
	<!ENTITY ns_extend "http://ns.adobe.com/Extensibility/1.0/">
	<!ENTITY ns_ai "http://ns.adobe.com/AdobeIllustrator/10.0/">
	<!ENTITY ns_graphs "http://ns.adobe.com/Graphs/1.0/">
]>
<svg version="1.0" id="Layer_1" xmlns:x="&ns_extend;" xmlns:i="&ns_ai;" xmlns:graph="&ns_graphs;"
	 xmlns="http://www.w3.org/2000/svg" xmlns:xlink="http://www.w3.org/1999/xlink" xmlns:a="http://ns.adobe.com/AdobeSVGViewerExtensions/3.0/"
	 x="0px" y="0px" width="18.7031px" height="17.8252px" viewBox="0 0 18.7031 17.8252" enable-background="new 0 0 18.7031 17.8252"
	 xml:space="preserve">
<g>
	<path fill="#232020" d="M17.7031,5.2754h-4.7334c-0.5522,0-1,0.4473-1,1s0.4478,1,1,1h4.7334c0.5522,0,1-0.4473,1-1
		S18.2554,5.2754,17.7031,5.2754z"/>
	<path fill="#232020" d="M18.7031,1c0-0.5527-0.4478-1-1-1H1C0.4478,0,0,0.4473,0,1s0.4478,1,1,1h16.7031
		C18.2554,2,18.7031,1.5527,18.7031,1z"/>
	<path fill="#232020" d="M17.7031,10.5508H4.2676c-0.5522,0-1,0.4473-1,1s0.4478,1,1,1h13.4355c0.5522,0,1-0.4473,1-1
		S18.2554,10.5508,17.7031,10.5508z"/>
	<path fill="#232020" d="M17.7031,15.8252H9.2266c-0.5522,0-1,0.4473-1,1s0.4478,1,1,1h8.4766c0.5522,0,1-0.4473,1-1
		S18.2554,15.8252,17.7031,15.8252z"/>
</g>
</svg>
