<?xml version="1.0" encoding="utf-8"?>
<!-- Generator: Adobe Illustrator 16.0.0, SVG Export Plug-In . SVG Version: 6.00 Build 0)  -->
<!DOCTYPE svg PUBLIC "-//W3C//DTD SVG 1.0//EN" "http://www.w3.org/TR/2001/REC-SVG-20010904/DTD/svg10.dtd" [
	<!ENTITY ns_flows "http://ns.adobe.com/Flows/1.0/">
	<!ENTITY ns_extend "http://ns.adobe.com/Extensibility/1.0/">
	<!ENTITY ns_ai "http://ns.adobe.com/AdobeIllustrator/10.0/">
	<!ENTITY ns_graphs "http://ns.adobe.com/Graphs/1.0/">
]>
<svg version="1.0" id="Layer_1" xmlns:x="&ns_extend;" xmlns:i="&ns_ai;" xmlns:graph="&ns_graphs;"
	 xmlns="http://www.w3.org/2000/svg" xmlns:xlink="http://www.w3.org/1999/xlink" xmlns:a="http://ns.adobe.com/AdobeSVGViewerExtensions/3.0/"
	 x="0px" y="0px" width="18.7031px" height="17.8252px" viewBox="0 0 18.7031 17.8252" enable-background="new 0 0 18.7031 17.8252"
	 xml:space="preserve">
<g>
	<path fill="#232020" d="M11.7183,7.2754c0.5522,0,1-0.4473,1-1s-0.4478-1-1-1H6.9849c-0.5522,0-1,0.4473-1,1s0.4478,1,1,1H11.7183z
		"/>
	<path fill="#232020" d="M17.7031,0H1C0.4478,0,0,0.4473,0,1s0.4478,1,1,1h16.7031c0.5522,0,1-0.4473,1-1S18.2554,0,17.7031,0z"/>
	<path fill="#232020" d="M16.0693,10.5508H2.6338c-0.5522,0-1,0.4473-1,1s0.4478,1,1,1h13.4355c0.5522,0,1-0.4473,1-1
		S16.6216,10.5508,16.0693,10.5508z"/>
	<path fill="#232020" d="M13.5898,15.8252H5.1133c-0.5522,0-1,0.4473-1,1s0.4478,1,1,1h8.4766c0.5522,0,1-0.4473,1-1
		S14.1421,15.8252,13.5898,15.8252z"/>
</g>
</svg>
