<?xml version="1.0" encoding="utf-8"?>
<!-- Generator: Adobe Illustrator 16.0.0, SVG Export Plug-In . SVG Version: 6.00 Build 0)  -->
<!DOCTYPE svg PUBLIC "-//W3C//DTD SVG 1.0//EN" "http://www.w3.org/TR/2001/REC-SVG-20010904/DTD/svg10.dtd" [
	<!ENTITY ns_flows "http://ns.adobe.com/Flows/1.0/">
	<!ENTITY ns_extend "http://ns.adobe.com/Extensibility/1.0/">
	<!ENTITY ns_ai "http://ns.adobe.com/AdobeIllustrator/10.0/">
	<!ENTITY ns_graphs "http://ns.adobe.com/Graphs/1.0/">
]>
<svg version="1.0" id="Layer_1" xmlns:x="&ns_extend;" xmlns:i="&ns_ai;" xmlns:graph="&ns_graphs;"
	 xmlns="http://www.w3.org/2000/svg" xmlns:xlink="http://www.w3.org/1999/xlink" xmlns:a="http://ns.adobe.com/AdobeSVGViewerExtensions/3.0/"
	 x="0px" y="0px" width="21.4277px" height="21.8145px" viewBox="0 0 21.4277 21.8145" enable-background="new 0 0 21.4277 21.8145"
	 xml:space="preserve">
<path fill="#232020" d="M20.2705,8.9658l-0.5337-0.3066l0.5337-0.3076c0.7354-0.4229,1.1572-1.0713,1.1572-1.7783
	s-0.4219-1.3555-1.1567-1.7783l-7.4746-4.3018c-1.1455-0.6582-3.0195-0.6582-4.165,0L1.1562,4.7949
	C0.4214,5.2188-0.0005,5.8672,0,6.5742c0,0.7061,0.4219,1.3545,1.1567,1.7764l0.5347,0.3076L1.1572,8.9658
	C0.4219,9.3887,0,10.0371,0,10.7441s0.4219,1.3555,1.1572,1.7783c0.0347,0.0195,0.0703,0.0371,0.1064,0.0527l7.4248,3.1631
	c0.3037,0.166,0.6528,0.2881,1.0254,0.3682v2.9375l-2.042-1.2295c-0.4736-0.2871-1.0879-0.1338-1.3726,0.3408
	c-0.2852,0.4727-0.1328,1.0869,0.3403,1.3721l3.5581,2.1436c0.1587,0.0957,0.3374,0.1436,0.5161,0.1436
	c0.1763,0,0.3525-0.0469,0.5093-0.1396l3.6206-2.1436c0.4756-0.2812,0.6328-0.8945,0.3511-1.3701
	c-0.2808-0.4756-0.895-0.6328-1.3696-0.3506l-2.1113,1.25v-2.9541c0.3726-0.0801,0.7217-0.2021,1.0254-0.3682l7.4248-3.1631
	c0.0361-0.0156,0.0718-0.0332,0.1064-0.0527c0.7354-0.4229,1.1572-1.0713,1.1572-1.7783S21.0059,9.3887,20.2705,8.9658z
	 M3.6958,7.5049L2.1543,6.6172C2.127,6.6016,2.1035,6.5869,2.0835,6.5732c0.02-0.0146,0.0439-0.0293,0.0708-0.0449l7.4741-4.3008
	c0.54-0.3105,1.6313-0.3096,2.1704-0.001l7.4746,4.3027c0.0269,0.0146,0.0503,0.0303,0.0703,0.0439
	c-0.0205,0.0137-0.0439,0.0293-0.0708,0.0449l-1.5415,0.8867L12.7969,4.666c-0.5728-0.3301-1.3125-0.5117-2.083-0.5117
	S9.2036,4.3359,8.6313,4.665L3.6958,7.5049z M19.3159,10.7627l-7.4102,3.1562c-0.0361,0.0156-0.0718,0.0332-0.1064,0.0527
	c-0.0234,0.0137-0.0601,0.0176-0.0854,0.0303v-3.6074c0-0.5527-0.4478-1-1-1s-1,0.4473-1,1v3.6074
	c-0.0254-0.0127-0.062-0.0166-0.0854-0.0303c-0.0347-0.0195-0.0703-0.0371-0.1064-0.0527l-7.4102-3.1562
	c-0.0103-0.0068-0.019-0.0127-0.0278-0.0186c0.02-0.0137,0.0435-0.0293,0.0703-0.0439l2.0386-1.1729
	c0.0005-0.001,0.001-0.001,0.0015-0.001l5.4346-3.1279c0.27-0.1553,0.6772-0.2334,1.085-0.2334
	c0.2036,0,0.4072,0.0195,0.5942,0.0586c0.1865,0.0391,0.356,0.0977,0.4907,0.1758l5.4336,3.127
	c0.001,0.001,0.0024,0.001,0.0039,0.002l2.0371,1.1719c0.0269,0.0146,0.0503,0.0303,0.0703,0.0439
	C19.335,10.75,19.3262,10.7559,19.3159,10.7627z"/>
</svg>
