<?xml version="1.0" encoding="utf-8"?>
<!-- Generator: Adobe Illustrator 16.0.0, SVG Export Plug-In . SVG Version: 6.00 Build 0)  -->
<!DOCTYPE svg PUBLIC "-//W3C//DTD SVG 1.0//EN" "http://www.w3.org/TR/2001/REC-SVG-20010904/DTD/svg10.dtd" [
	<!ENTITY ns_flows "http://ns.adobe.com/Flows/1.0/">
	<!ENTITY ns_extend "http://ns.adobe.com/Extensibility/1.0/">
	<!ENTITY ns_ai "http://ns.adobe.com/AdobeIllustrator/10.0/">
	<!ENTITY ns_graphs "http://ns.adobe.com/Graphs/1.0/">
]>
<svg version="1.0" id="Layer_1" xmlns:x="&ns_extend;" xmlns:i="&ns_ai;" xmlns:graph="&ns_graphs;"
	 xmlns="http://www.w3.org/2000/svg" xmlns:xlink="http://www.w3.org/1999/xlink" xmlns:a="http://ns.adobe.com/AdobeSVGViewerExtensions/3.0/"
	 x="0px" y="0px" width="18.2983px" height="21.9224px" viewBox="0 0 18.2983 21.9224" enable-background="new 0 0 18.2983 21.9224"
	 xml:space="preserve">
<path fill="#232020" d="M14.8735,6.5884h-0.7393V4.1895C14.1343,1.8794,11.8379,0,9.0151,0C6.1929,0,3.897,1.8794,3.897,4.1895
	v2.3989H3.4248C1.5361,6.5884,0,8.0933,0,9.9434v8.6245c0,1.8496,1.5361,3.3545,3.4248,3.3545h11.4487
	c1.8887,0,3.4248-1.5049,3.4248-3.3545V9.9434C18.2983,8.0933,16.7622,6.5884,14.8735,6.5884z M5.897,4.1895
	C5.897,3.0024,7.3247,2,9.0151,2c1.6909,0,3.1191,1.0024,3.1191,2.1895v2.3989H5.897V4.1895z M16.2983,18.5679
	c0,0.7471-0.6392,1.3545-1.4248,1.3545H3.4248C2.6392,19.9224,2,19.3149,2,18.5679V9.9434c0-0.7471,0.6392-1.355,1.4248-1.355
	h11.4487c0.7856,0,1.4248,0.6079,1.4248,1.355V18.5679z"/>
</svg>
