<?xml version="1.0" encoding="utf-8"?>
<!-- Generator: Adobe Illustrator 16.0.0, SVG Export Plug-In . SVG Version: 6.00 Build 0)  -->
<!DOCTYPE svg PUBLIC "-//W3C//DTD SVG 1.0//EN" "http://www.w3.org/TR/2001/REC-SVG-20010904/DTD/svg10.dtd" [
	<!ENTITY ns_flows "http://ns.adobe.com/Flows/1.0/">
	<!ENTITY ns_extend "http://ns.adobe.com/Extensibility/1.0/">
	<!ENTITY ns_ai "http://ns.adobe.com/AdobeIllustrator/10.0/">
	<!ENTITY ns_graphs "http://ns.adobe.com/Graphs/1.0/">
]>
<svg version="1.0" id="Layer_1" xmlns:x="&ns_extend;" xmlns:i="&ns_ai;" xmlns:graph="&ns_graphs;"
	 xmlns="http://www.w3.org/2000/svg" xmlns:xlink="http://www.w3.org/1999/xlink" xmlns:a="http://ns.adobe.com/AdobeSVGViewerExtensions/3.0/"
	 x="0px" y="0px" width="19.6582px" height="16.0283px" viewBox="0 0 19.6582 16.0283" enable-background="new 0 0 19.6582 16.0283"
	 xml:space="preserve">
<path d="M16.8242,0h-2.0967c-2.1196,0-2.835,0.7158-2.835,2.835v11.1934h-1.7432V8.835C10.1494,6.7158,9.4341,6,7.3145,6H5.2188
	C3.0986,6,2.3828,6.7158,2.3828,8.835v5.1934H1c-0.5522,0-1,0.4473-1,1s0.4478,1,1,1h2.3828h5.7666h3.7432h5.7656
	c0.5522,0,1-0.4473,1-1V2.835C19.6582,0.7158,18.9429,0,16.8242,0z M4.3828,14.0283V8.835c0-0.4727,0.0303-0.6875,0.0532-0.7812
	C4.5308,8.0303,4.7456,8,5.2188,8h2.0957C7.7871,8,8.002,8.0303,8.0962,8.0527C8.1191,8.1475,8.1494,8.3623,8.1494,8.835v5.1934
	H4.3828z M13.8926,14.0283V2.835c0-0.4727,0.0303-0.6875,0.0532-0.7822C14.04,2.0303,14.2549,2,14.7275,2h2.0967
	c0.4717,0,0.6865,0.0303,0.7808,0.0527c0.0229,0.0947,0.0532,0.3096,0.0532,0.7822v11.1934H13.8926z"/>
</svg>
