<?xml version="1.0" encoding="utf-8"?>
<!-- Generator: Adobe Illustrator 16.0.0, SVG Export Plug-In . SVG Version: 6.00 Build 0)  -->
<!DOCTYPE svg PUBLIC "-//W3C//DTD SVG 1.0//EN" "http://www.w3.org/TR/2001/REC-SVG-20010904/DTD/svg10.dtd" [
	<!ENTITY ns_flows "http://ns.adobe.com/Flows/1.0/">
	<!ENTITY ns_extend "http://ns.adobe.com/Extensibility/1.0/">
	<!ENTITY ns_ai "http://ns.adobe.com/AdobeIllustrator/10.0/">
	<!ENTITY ns_graphs "http://ns.adobe.com/Graphs/1.0/">
]>
<svg version="1.0" id="Layer_1" xmlns:x="&ns_extend;" xmlns:i="&ns_ai;" xmlns:graph="&ns_graphs;"
	 xmlns="http://www.w3.org/2000/svg" xmlns:xlink="http://www.w3.org/1999/xlink" xmlns:a="http://ns.adobe.com/AdobeSVGViewerExtensions/3.0/"
	 x="0px" y="0px" width="16.0283px" height="19.6582px" viewBox="0 0 16.0283 19.6582" enable-background="new 0 0 16.0283 19.6582"
	 xml:space="preserve">
<path d="M15.0283,0H2.835C0.7153,0,0,0.7158,0,2.835v2.0957c0,2.1201,0.7153,2.8359,2.835,2.8359h11.1934v1.7422H8.835
	C6.7153,9.5088,6,10.2246,6,12.3447v2.0957c0,2.1191,0.7153,2.835,2.835,2.835h5.1934v1.3828c0,0.5527,0.4478,1,1,1s1-0.4473,1-1
	v-2.3828v-5.7666V6.7666V1C16.0283,0.4473,15.5806,0,15.0283,0z M2.835,5.7666c-0.4727,0-0.687-0.0303-0.7817-0.0527
	C2.0303,5.6191,2,5.4043,2,4.9307V2.835c0-0.4727,0.0303-0.6875,0.0532-0.7822C2.1475,2.0303,2.3623,2,2.835,2h11.1934v3.7666H2.835
	z M8.835,15.2754c-0.4727,0-0.6875-0.0303-0.7817-0.0527C8.0303,15.1279,8,14.9131,8,14.4404v-2.0957
	c0-0.4736,0.0303-0.6885,0.0532-0.7832c0.0947-0.0225,0.3091-0.0527,0.7817-0.0527h5.1934v3.7666H8.835z"/>
</svg>
