<?xml version="1.0" encoding="utf-8"?>
<!-- Generator: Adobe Illustrator 16.0.0, SVG Export Plug-In . SVG Version: 6.00 Build 0)  -->
<!DOCTYPE svg PUBLIC "-//W3C//DTD SVG 1.0//EN" "http://www.w3.org/TR/2001/REC-SVG-20010904/DTD/svg10.dtd" [
	<!ENTITY ns_flows "http://ns.adobe.com/Flows/1.0/">
	<!ENTITY ns_extend "http://ns.adobe.com/Extensibility/1.0/">
	<!ENTITY ns_ai "http://ns.adobe.com/AdobeIllustrator/10.0/">
	<!ENTITY ns_graphs "http://ns.adobe.com/Graphs/1.0/">
]>
<svg version="1.0" id="Layer_1" xmlns:x="&ns_extend;" xmlns:i="&ns_ai;" xmlns:graph="&ns_graphs;"
	 xmlns="http://www.w3.org/2000/svg" xmlns:xlink="http://www.w3.org/1999/xlink" xmlns:a="http://ns.adobe.com/AdobeSVGViewerExtensions/3.0/"
	 x="0px" y="0px" width="19.4766px" height="20.9316px" viewBox="0 0 19.4766 20.9316" enable-background="new 0 0 19.4766 20.9316"
	 xml:space="preserve">
<g>
	<path fill="#232020" d="M19.3989,17.3467c0.0503-0.1201,0.0776-0.251,0.0776-0.3848s-0.0273-0.2646-0.0776-0.3848
		c-0.0508-0.1221-0.1245-0.2314-0.2163-0.3232l-2.9707-2.9688c-0.3906-0.3906-1.0239-0.3906-1.4146,0
		c-0.3901,0.3906-0.3901,1.0244,0.0005,1.4141l1.2637,1.2627H3.415l1.2632-1.2627c0.3906-0.3906,0.3906-1.0234,0.0005-1.4141
		c-0.3906-0.3906-1.0239-0.3906-1.4146,0l-2.9702,2.9688c-0.0918,0.0918-0.1655,0.2012-0.2163,0.3232
		C0.0273,16.6973,0,16.8281,0,16.9619s0.0273,0.2646,0.0776,0.3848c0.0508,0.1221,0.1245,0.2314,0.2163,0.3232l2.9702,2.9688
		c0.1953,0.1953,0.4512,0.293,0.707,0.293s0.5122-0.0977,0.7075-0.293c0.3901-0.3906,0.3901-1.0234-0.0005-1.4141L3.415,17.9619
		h12.6465l-1.2637,1.2627c-0.3906,0.3896-0.3906,1.0234-0.0005,1.4141c0.1953,0.1953,0.4517,0.293,0.7075,0.293
		s0.5117-0.0977,0.707-0.293l2.9707-2.9688C19.2744,17.5781,19.3481,17.4688,19.3989,17.3467z"/>
	<path fill="#232020" d="M2.7432,10.4766c0.5522,0,1-0.4473,1-1V1c0-0.5527-0.4478-1-1-1s-1,0.4473-1,1v8.4766
		C1.7432,10.0293,2.1909,10.4766,2.7432,10.4766z"/>
	<path fill="#232020" d="M9.7383,10.4766c0.5522,0,1-0.4473,1-1V1c0-0.5527-0.4478-1-1-1s-1,0.4473-1,1v8.4766
		C8.7383,10.0293,9.186,10.4766,9.7383,10.4766z"/>
	<path fill="#232020" d="M16.7324,10.4766c0.5522,0,1-0.4473,1-1V1c0-0.5527-0.4478-1-1-1s-1,0.4473-1,1v8.4766
		C15.7324,10.0293,16.1802,10.4766,16.7324,10.4766z"/>
</g>
</svg>
