<?xml version="1.0" encoding="utf-8"?>
<!-- Generator: Adobe Illustrator 16.0.0, SVG Export Plug-In . SVG Version: 6.00 Build 0)  -->
<!DOCTYPE svg PUBLIC "-//W3C//DTD SVG 1.0//EN" "http://www.w3.org/TR/2001/REC-SVG-20010904/DTD/svg10.dtd" [
	<!ENTITY ns_flows "http://ns.adobe.com/Flows/1.0/">
	<!ENTITY ns_extend "http://ns.adobe.com/Extensibility/1.0/">
	<!ENTITY ns_ai "http://ns.adobe.com/AdobeIllustrator/10.0/">
	<!ENTITY ns_graphs "http://ns.adobe.com/Graphs/1.0/">
]>
<svg version="1.0" id="Layer_1" xmlns:x="&ns_extend;" xmlns:i="&ns_ai;" xmlns:graph="&ns_graphs;"
	 xmlns="http://www.w3.org/2000/svg" xmlns:xlink="http://www.w3.org/1999/xlink" xmlns:a="http://ns.adobe.com/AdobeSVGViewerExtensions/3.0/"
	 x="0px" y="0px" width="11.103px" height="14.8037px" viewBox="0 0 11.103 14.8037" enable-background="new 0 0 11.103 14.8037"
	 xml:space="preserve">
<g>
	<path d="M0,14.8037V0h4.8501c1.7422,0,3.1011,0.3408,4.0771,1.0215c0.9761,0.6816,1.4644,1.6934,1.4644,3.0352
		c0,0.6777-0.1768,1.2842-0.5288,1.8203c-0.3525,0.5352-0.8677,0.9385-1.5454,1.21c0.9214,0.1689,1.6162,0.5693,2.084,1.1992
		c0.4678,0.6309,0.7017,1.3662,0.7017,2.2061c0,1.417-0.4678,2.4902-1.4028,3.2188c-0.9355,0.7285-2.2607,1.0928-3.9756,1.0928H0z
		 M2.9692,6.2021h1.9824c0.793,0,1.4033-0.1631,1.8301-0.4883C7.209,5.3887,7.4224,4.9141,7.4224,4.29
		c0-0.6846-0.2153-1.1895-0.6455-1.5146C6.3462,2.4502,5.7041,2.2871,4.8501,2.2871H2.9692V6.2021z M2.9692,8.2559v4.2705h2.7554
		c0.7861,0,1.3857-0.1709,1.7993-0.5137c0.4136-0.3418,0.6206-0.8486,0.6206-1.5205c0-0.7178-0.2036-1.2705-0.6104-1.6572
		c-0.4067-0.3857-1.02-0.5791-1.8403-0.5791H2.9692z"/>
</g>
</svg>
