<?xml version="1.0" encoding="utf-8"?>
<!-- Generator: Adobe Illustrator 16.0.0, SVG Export Plug-In . SVG Version: 6.00 Build 0)  -->
<!DOCTYPE svg PUBLIC "-//W3C//DTD SVG 1.0//EN" "http://www.w3.org/TR/2001/REC-SVG-20010904/DTD/svg10.dtd" [
	<!ENTITY ns_flows "http://ns.adobe.com/Flows/1.0/">
	<!ENTITY ns_extend "http://ns.adobe.com/Extensibility/1.0/">
	<!ENTITY ns_ai "http://ns.adobe.com/AdobeIllustrator/10.0/">
	<!ENTITY ns_graphs "http://ns.adobe.com/Graphs/1.0/">
]>
<svg version="1.0" id="Layer_1" xmlns:x="&ns_extend;" xmlns:i="&ns_ai;" xmlns:graph="&ns_graphs;"
	 xmlns="http://www.w3.org/2000/svg" xmlns:xlink="http://www.w3.org/1999/xlink" xmlns:a="http://ns.adobe.com/AdobeSVGViewerExtensions/3.0/"
	 x="0px" y="0px" width="18.4541px" height="11.8818px" viewBox="0 0 18.4541 11.8818" enable-background="new 0 0 18.4541 11.8818"
	 xml:space="preserve">
<g>
	<path d="M7.0713,8.9775H2.9199l-0.9004,2.7354H0L4.0864,0h1.8589l4.0381,11.7129H7.9639L7.0713,8.9775z M3.459,7.3447h3.0815
		L5.0361,2.7266H4.9878L3.459,7.3447z"/>
	<path d="M16.4751,11.7129c-0.0698-0.2207-0.1274-0.4346-0.1729-0.6436c-0.0459-0.21-0.0762-0.418-0.0923-0.6279
		c-0.2627,0.4082-0.6143,0.75-1.0542,1.0254c-0.4395,0.2773-0.9307,0.415-1.4722,0.415c-0.9062,0-1.6021-0.2334-2.0874-0.7002
		c-0.4854-0.4658-0.728-1.1064-0.728-1.9229c0-0.8418,0.3325-1.4971,0.9971-1.9668c0.6655-0.4688,1.6011-0.7031,2.8081-0.7031h1.52
		V5.8242c0-0.4561-0.1323-0.8125-0.3979-1.0703c-0.2656-0.2568-0.6504-0.3857-1.1548-0.3857c-0.4448,0-0.7988,0.1055-1.0615,0.3184
		c-0.2627,0.2119-0.3945,0.4854-0.3945,0.8242l-1.8818,0.0078l-0.0083-0.0479c-0.0376-0.6865,0.27-1.2959,0.9214-1.8271
		c0.6514-0.5303,1.5-0.7959,2.5459-0.7959c1.0137,0,1.8311,0.2578,2.4536,0.7725c0.6221,0.5146,0.9331,1.2549,0.9331,2.2207V9.71
		c0,0.3594,0.0244,0.7041,0.0723,1.0332c0.0488,0.3301,0.126,0.6533,0.2334,0.9697H16.4751z M14.0859,10.3125
		c0.4883,0,0.9292-0.1221,1.3232-0.3701c0.394-0.2461,0.6558-0.5273,0.7842-0.8438V7.8105h-1.5527
		c-0.5679,0-1.0132,0.1416-1.335,0.4229s-0.4829,0.6133-0.4829,0.9941c0,0.332,0.1089,0.5957,0.3262,0.792
		S13.6782,10.3125,14.0859,10.3125z"/>
</g>
</svg>
