<?xml version="1.0" encoding="utf-8"?>
<!-- Generator: Adobe Illustrator 16.0.0, SVG Export Plug-In . SVG Version: 6.00 Build 0)  -->
<!DOCTYPE svg PUBLIC "-//W3C//DTD SVG 1.0//EN" "http://www.w3.org/TR/2001/REC-SVG-20010904/DTD/svg10.dtd" [
	<!ENTITY ns_flows "http://ns.adobe.com/Flows/1.0/">
	<!ENTITY ns_extend "http://ns.adobe.com/Extensibility/1.0/">
	<!ENTITY ns_ai "http://ns.adobe.com/AdobeIllustrator/10.0/">
	<!ENTITY ns_graphs "http://ns.adobe.com/Graphs/1.0/">
]>
<svg version="1.0" id="Layer_1" xmlns:x="&ns_extend;" xmlns:i="&ns_ai;" xmlns:graph="&ns_graphs;"
	 xmlns="http://www.w3.org/2000/svg" xmlns:xlink="http://www.w3.org/1999/xlink" xmlns:a="http://ns.adobe.com/AdobeSVGViewerExtensions/3.0/"
	 x="0px" y="0px" width="21.4277px" height="21.5049px" viewBox="0 0 21.4277 21.5049" enable-background="new 0 0 21.4277 21.5049"
	 xml:space="preserve">
<path fill="#232020" d="M21.4277,10.7441c0-0.707-0.4219-1.3555-1.1567-1.7773l-0.5347-0.3076l0.5342-0.3076
	c0.7354-0.4229,1.1572-1.0713,1.1572-1.7783s-0.4219-1.3555-1.1567-1.7773l-7.4746-4.3027c-1.1455-0.6582-3.019-0.6582-4.1655,0
	L1.1572,4.7949C0.4219,5.2178,0,5.8662,0,6.5732s0.4219,1.3555,1.1572,1.7783l0.5337,0.3066L1.1572,8.9658
	C0.4219,9.3887,0,10.0371,0,10.7432c-0.0005,0.707,0.4214,1.3555,1.1572,1.7803l0.5332,0.3066l-0.5337,0.3076
	C0.4214,13.5615-0.0005,14.209,0,14.916c0,0.7061,0.4219,1.3545,1.1572,1.7773l7.4736,4.2998
	c0.5728,0.3301,1.3125,0.5117,2.083,0.5117s1.5103-0.1816,2.0825-0.5107l7.4741-4.3008c0.7354-0.4229,1.1572-1.0713,1.1572-1.7773
	c0.0005-0.707-0.4214-1.3545-1.1572-1.7793l-0.5337-0.3066l0.5337-0.3076C21.0059,12.0996,21.4277,11.4512,21.4277,10.7441z
	 M2.1548,6.5293l7.4736-4.3018c0.54-0.3105,1.6313-0.3105,2.1704,0l7.4746,4.3018c0.0269,0.0146,0.0503,0.0303,0.0703,0.0439
	c-0.02,0.0137-0.0435,0.0293-0.0703,0.0439l-2.0361,1.1719c-0.0015,0.001-0.0034,0.001-0.0049,0.002l-5.4336,3.1279
	c-0.54,0.3105-1.6294,0.3115-2.1704-0.001L4.1943,7.791c0,0,0,0-0.0005,0L2.1543,6.6172C2.1274,6.6025,2.104,6.5869,2.084,6.5732
	C2.104,6.5596,2.1274,6.5439,2.1548,6.5293z M10.7139,13.1631c0.7588,0,1.4863-0.1777,2.0547-0.4971
	c0.0088-0.0059,0.0195-0.0088,0.0283-0.0137l3.6636-2.1084l1.271-0.7314l1.542,0.8877c0.0269,0.0146,0.0503,0.0303,0.0703,0.0439
	c-0.02,0.0137-0.0435,0.0293-0.0708,0.0439l-7.4736,4.3018c-0.54,0.3105-1.6309,0.3105-2.1709,0L2.1548,10.79
	c-0.0273-0.0156-0.0508-0.0312-0.0713-0.0459c0.0205-0.0137,0.0439-0.0293,0.0713-0.0449l1.541-0.8867l4.9351,2.8389
	C9.2036,12.9814,9.9434,13.1631,10.7139,13.1631z"/>
</svg>
