<?xml version="1.0" encoding="utf-8"?>
<!-- Generator: Adobe Illustrator 16.0.0, SVG Export Plug-In . SVG Version: 6.00 Build 0)  -->
<!DOCTYPE svg PUBLIC "-//W3C//DTD SVG 1.0//EN" "http://www.w3.org/TR/2001/REC-SVG-20010904/DTD/svg10.dtd" [
	<!ENTITY ns_flows "http://ns.adobe.com/Flows/1.0/">
	<!ENTITY ns_extend "http://ns.adobe.com/Extensibility/1.0/">
	<!ENTITY ns_ai "http://ns.adobe.com/AdobeIllustrator/10.0/">
	<!ENTITY ns_graphs "http://ns.adobe.com/Graphs/1.0/">
]>
<svg version="1.0" id="Layer_1" xmlns:x="&ns_extend;" xmlns:i="&ns_ai;" xmlns:graph="&ns_graphs;"
	 xmlns="http://www.w3.org/2000/svg" xmlns:xlink="http://www.w3.org/1999/xlink" xmlns:a="http://ns.adobe.com/AdobeSVGViewerExtensions/3.0/"
	 x="0px" y="0px" width="21.7998px" height="21.7993px" viewBox="0 0 21.7998 21.7993" enable-background="new 0 0 21.7998 21.7993"
	 xml:space="preserve">
<g>
	<path fill="#232020" d="M17.2705,13.2002h-2.0703v-2.0708c0-0.5522-0.4478-1-1-1s-1,0.4478-1,1v2.0708h-2.0703
		c-0.5522,0-1,0.4478-1,1s0.4478,1,1,1h2.0703V17.27c0,0.5522,0.4478,1,1,1s1-0.4478,1-1v-2.0698h2.0703c0.5522,0,1-0.4478,1-1
		S17.8228,13.2002,17.2705,13.2002z"/>
	<path fill="#232020" d="M18.8354,6.5996h-3.6353V2.9634C15.2002,1.3296,13.8706,0,12.2363,0h-9.272C1.3296,0,0,1.3296,0,2.9634
		v9.272c0,1.6338,1.3296,2.9634,2.9644,2.9634h3.6353v3.6357c0,1.6348,1.3296,2.9648,2.9639,2.9648h9.272
		c1.6348,0,2.9644-1.3301,2.9644-2.9648V9.563C21.7998,7.9292,20.4702,6.5996,18.8354,6.5996z M2.9644,13.1987
		C2.4326,13.1987,2,12.7666,2,12.2354v-9.272C2,2.4321,2.4326,2,2.9644,2h9.272c0.5312,0,0.9639,0.4321,0.9639,0.9634v3.6362H9.5635
		c-1.6343,0-2.9639,1.3296-2.9639,2.9634v3.6357H2.9644z M19.7998,18.8345c0,0.5322-0.4326,0.9648-0.9644,0.9648h-9.272
		c-0.5312,0-0.9639-0.4326-0.9639-0.9648V9.563c0-0.5312,0.4326-0.9634,0.9639-0.9634h9.272c0.5317,0,0.9644,0.4321,0.9644,0.9634
		V18.8345z"/>
</g>
</svg>
