<?xml version="1.0" encoding="utf-8"?>
<!-- Generator: Adobe Illustrator 16.0.0, SVG Export Plug-In . SVG Version: 6.00 Build 0)  -->
<!DOCTYPE svg PUBLIC "-//W3C//DTD SVG 1.0//EN" "http://www.w3.org/TR/2001/REC-SVG-20010904/DTD/svg10.dtd" [
	<!ENTITY ns_flows "http://ns.adobe.com/Flows/1.0/">
	<!ENTITY ns_extend "http://ns.adobe.com/Extensibility/1.0/">
	<!ENTITY ns_ai "http://ns.adobe.com/AdobeIllustrator/10.0/">
	<!ENTITY ns_graphs "http://ns.adobe.com/Graphs/1.0/">
]>
<svg version="1.0" id="Layer_1" xmlns:x="&ns_extend;" xmlns:i="&ns_ai;" xmlns:graph="&ns_graphs;"
	 xmlns="http://www.w3.org/2000/svg" xmlns:xlink="http://www.w3.org/1999/xlink" xmlns:a="http://ns.adobe.com/AdobeSVGViewerExtensions/3.0/"
	 x="0px" y="0px" width="21.2627px" height="22.1416px" viewBox="0 0 21.2627 22.1416" enable-background="new 0 0 21.2627 22.1416"
	 xml:space="preserve">
<g>
	<path fill="#232020" d="M20.2627,3.6582h-5.0381v-0.293C15.2246,1.5098,13.8403,0,12.1387,0H9.123
		C7.4204,0,6.0352,1.5098,6.0352,3.3652v0.293H1c-0.5522,0-1,0.4478-1,1s0.4478,1,1,1h1.0293v12.3545
		c0,2.2769,1.8525,4.1289,4.1299,4.1289h8.9424c2.2769,0,4.1289-1.8521,4.1289-4.1289V5.6582h1.0322c0.5522,0,1-0.4478,1-1
		S20.8149,3.6582,20.2627,3.6582z M8.0352,3.3652C8.0352,2.6123,8.5229,2,9.123,2h3.0156c0.5986,0,1.0859,0.6123,1.0859,1.3652
		v0.293H8.0352V3.3652z M17.2305,18.0127c0,1.1738-0.9551,2.1289-2.1289,2.1289H6.1592c-1.1743,0-2.1299-0.9551-2.1299-2.1289
		V5.6582h13.2012V18.0127z"/>
	<path fill="#232020" d="M7.3857,16.5972c0.5522,0,1-0.4478,1-1V8.4106c0-0.5522-0.4478-1-1-1s-1,0.4478-1,1v7.1865
		C6.3857,16.1494,6.8335,16.5972,7.3857,16.5972z"/>
	<path fill="#232020" d="M11.9814,16.5972c0.5522,0,1-0.4478,1-1V8.4106c0-0.5522-0.4478-1-1-1s-1,0.4478-1,1v7.1865
		C10.9814,16.1494,11.4292,16.5972,11.9814,16.5972z"/>
</g>
</svg>
