<?xml version="1.0" encoding="utf-8"?>
<!-- Generator: Adobe Illustrator 16.0.0, SVG Export Plug-In . SVG Version: 6.00 Build 0)  -->
<!DOCTYPE svg PUBLIC "-//W3C//DTD SVG 1.0//EN" "http://www.w3.org/TR/2001/REC-SVG-20010904/DTD/svg10.dtd" [
	<!ENTITY ns_flows "http://ns.adobe.com/Flows/1.0/">
	<!ENTITY ns_extend "http://ns.adobe.com/Extensibility/1.0/">
	<!ENTITY ns_ai "http://ns.adobe.com/AdobeIllustrator/10.0/">
	<!ENTITY ns_graphs "http://ns.adobe.com/Graphs/1.0/">
]>
<svg version="1.0" id="Layer_1" xmlns:x="&ns_extend;" xmlns:i="&ns_ai;" xmlns:graph="&ns_graphs;"
	 xmlns="http://www.w3.org/2000/svg" xmlns:xlink="http://www.w3.org/1999/xlink" xmlns:a="http://ns.adobe.com/AdobeSVGViewerExtensions/3.0/"
	 x="0px" y="0px" width="17.4233px" height="21.5469px" viewBox="0 0 17.4233 21.5469" enable-background="new 0 0 17.4233 21.5469"
	 xml:space="preserve">
<g>
	<path fill="#232020" d="M16.4233,9.0898c-0.0063-0.001-0.0127-0.001-0.02,0H1c-0.5522,0-1-0.4473-1-1V1
		c0-0.3408,0.1738-0.6582,0.4604-0.8418c0.2871-0.1846,0.6484-0.21,0.9575-0.0664l15.3008,7.042
		c0.4082,0.127,0.7046,0.5068,0.7046,0.9561C17.4233,8.6426,16.9756,9.0898,16.4233,9.0898z"/>
	<path fill="#232020" d="M1,21.5469c-0.1885,0-0.376-0.0527-0.5396-0.1582C0.1738,21.2051,0,20.8877,0,20.5469V13.457
		c0-0.5527,0.4478-1,1-1h15.4033c0.4697,0,0.8765,0.3271,0.9771,0.7861c0.1001,0.459-0.1323,0.9258-0.5591,1.1221L1.418,21.4551
		C1.2852,21.5166,1.1421,21.5469,1,21.5469z M2,14.457v4.5283l9.8389-4.5283H2z"/>
</g>
</svg>
