<?xml version="1.0" encoding="utf-8"?>
<!-- Generator: Adobe Illustrator 16.0.0, SVG Export Plug-In . SVG Version: 6.00 Build 0)  -->
<!DOCTYPE svg PUBLIC "-//W3C//DTD SVG 1.0//EN" "http://www.w3.org/TR/2001/REC-SVG-20010904/DTD/svg10.dtd" [
	<!ENTITY ns_flows "http://ns.adobe.com/Flows/1.0/">
	<!ENTITY ns_extend "http://ns.adobe.com/Extensibility/1.0/">
	<!ENTITY ns_ai "http://ns.adobe.com/AdobeIllustrator/10.0/">
	<!ENTITY ns_graphs "http://ns.adobe.com/Graphs/1.0/">
]>
<svg version="1.0" id="Layer_1" xmlns:x="&ns_extend;" xmlns:i="&ns_ai;" xmlns:graph="&ns_graphs;"
	 xmlns="http://www.w3.org/2000/svg" xmlns:xlink="http://www.w3.org/1999/xlink" xmlns:a="http://ns.adobe.com/AdobeSVGViewerExtensions/3.0/"
	 x="0px" y="0px" width="28.3721px" height="19.0117px" viewBox="0 0 28.3721 19.0117" enable-background="new 0 0 28.3721 19.0117"
	 xml:space="preserve">
<g>
	<path fill="#232020" d="M21.9243,8.4922h-6.1406c-0.5522,0-1,0.4473-1,1s0.4478,1,1,1h6.1406c0.5522,0,1-0.4473,1-1
		S22.4766,8.4922,21.9243,8.4922z"/>
	<path fill="#232020" d="M27.5044,7.3945l-6.5557-6.5547c-1.1191-1.1191-3.0723-1.1191-4.1914,0L14.187,3.4102l-2.5708-2.5703
		c-1.1191-1.1191-3.0728-1.1211-4.1919,0L0.8687,7.3955C0.3086,7.9551,0,8.6992,0,9.4912c-0.0005,0.792,0.3076,1.5361,0.8677,2.0967
		l6.5562,6.5557c0.5596,0.5596,1.3037,0.8682,2.0952,0.8682h0.0005c0.792-0.001,1.5361-0.3096,2.0957-0.8691l2.5703-2.5703
		l2.5708,2.5703c0.5601,0.5605,1.3052,0.8691,2.0977,0.8691c0.792,0,1.5356-0.3086,2.0947-0.8672l6.5562-6.5566
		C28.6611,10.4316,28.6606,8.5508,27.5044,7.3945z M10.2007,16.7285c-0.3633,0.3652-0.9976,0.3652-1.3628,0.001l-6.5557-6.5557
		C2.1001,9.9922,2,9.749,2,9.4912c0-0.2568,0.1001-0.499,0.2822-0.6807l6.5566-6.5566c0.3643-0.3652,0.9985-0.3652,1.3628,0
		l2.5713,2.5703l-2.5718,2.5723C9.6416,7.9551,9.3335,8.6992,9.3335,9.4922c0,0.792,0.3081,1.5361,0.8672,2.0957l2.5708,2.5703
		L10.2007,16.7285z M26.0908,10.1738l-6.5562,6.5566c-0.3628,0.3633-0.9995,0.3633-1.3643-0.002l-6.5557-6.5547
		c-0.1812-0.1816-0.2812-0.4238-0.2812-0.6816s0.1001-0.5,0.2817-0.6816l6.5562-6.5566c0.1821-0.1816,0.4238-0.2822,0.6816-0.2822
		c0.2573,0,0.4995,0.1006,0.6816,0.2822l6.5557,6.5547C26.4668,9.1855,26.4668,9.7979,26.0908,10.1738z"/>
</g>
</svg>
