<?xml version="1.0" encoding="utf-8"?>
<!-- Generator: Adobe Illustrator 16.0.0, SVG Export Plug-In . SVG Version: 6.00 Build 0)  -->
<!DOCTYPE svg PUBLIC "-//W3C//DTD SVG 1.0//EN" "http://www.w3.org/TR/2001/REC-SVG-20010904/DTD/svg10.dtd" [
	<!ENTITY ns_flows "http://ns.adobe.com/Flows/1.0/">
	<!ENTITY ns_extend "http://ns.adobe.com/Extensibility/1.0/">
	<!ENTITY ns_ai "http://ns.adobe.com/AdobeIllustrator/10.0/">
	<!ENTITY ns_graphs "http://ns.adobe.com/Graphs/1.0/">
]>
<svg version="1.0" id="Layer_1" xmlns:x="&ns_extend;" xmlns:i="&ns_ai;" xmlns:graph="&ns_graphs;"
	 xmlns="http://www.w3.org/2000/svg" xmlns:xlink="http://www.w3.org/1999/xlink" xmlns:a="http://ns.adobe.com/AdobeSVGViewerExtensions/3.0/"
	 x="0px" y="0px" width="18.2983px" height="21.9229px" viewBox="0 0 18.2983 21.9229" enable-background="new 0 0 18.2983 21.9229"
	 xml:space="preserve">
<g>
	<path fill="#232020" d="M14.873,6.5884h-0.7388V4.1895C14.1343,1.8794,11.8379,0,9.0151,0C6.1929,0,3.897,1.8794,3.897,4.1895
		c0,0.5522,0.4478,1,1,1s1-0.4478,1-1C5.897,3.0024,7.3247,2,9.0151,2c1.6909,0,3.1191,1.0024,3.1191,2.1895v2.3989H3.4248
		C1.5361,6.5884,0,8.0933,0,9.9434v8.6245c0,1.8501,1.5361,3.355,3.4248,3.355H14.873c1.8887,0,3.4253-1.5049,3.4253-3.355V9.9434
		C18.2983,8.0933,16.7617,6.5884,14.873,6.5884z M16.2983,18.5679c0,0.7471-0.6392,1.355-1.4253,1.355H3.4248
		C2.6392,19.9229,2,19.3149,2,18.5679V9.9434c0-0.7471,0.6392-1.355,1.4248-1.355H14.873c0.7861,0,1.4253,0.6079,1.4253,1.355
		V18.5679z"/>
	<path fill="#232020" d="M9.0151,10.1602c-1.1304,0-2.0474,0.917-2.0474,2.0474c0,0.8203,0.4854,1.5225,1.1812,1.8496v3.4463
		c0,0.5522,0.4478,1,1,1s1-0.4478,1-1v-3.5913c0.5508-0.3667,0.9146-0.9927,0.9146-1.7046
		C11.0635,11.0771,10.1465,10.1602,9.0151,10.1602z"/>
</g>
</svg>
