<?xml version="1.0" encoding="utf-8"?>
<!-- Generator: Adobe Illustrator 16.0.0, SVG Export Plug-In . SVG Version: 6.00 Build 0)  -->
<!DOCTYPE svg PUBLIC "-//W3C//DTD SVG 1.0//EN" "http://www.w3.org/TR/2001/REC-SVG-20010904/DTD/svg10.dtd" [
	<!ENTITY ns_flows "http://ns.adobe.com/Flows/1.0/">
	<!ENTITY ns_extend "http://ns.adobe.com/Extensibility/1.0/">
	<!ENTITY ns_ai "http://ns.adobe.com/AdobeIllustrator/10.0/">
	<!ENTITY ns_graphs "http://ns.adobe.com/Graphs/1.0/">
]>
<svg version="1.0" id="Layer_1" xmlns:x="&ns_extend;" xmlns:i="&ns_ai;" xmlns:graph="&ns_graphs;"
	 xmlns="http://www.w3.org/2000/svg" xmlns:xlink="http://www.w3.org/1999/xlink" xmlns:a="http://ns.adobe.com/AdobeSVGViewerExtensions/3.0/"
	 x="0px" y="0px" width="16.2729px" height="19.6582px" viewBox="0 0 16.2729 19.6582" enable-background="new 0 0 16.2729 19.6582"
	 xml:space="preserve">
<path d="M14.3467,0.0518C14.2466,0.0186,14.1396,0,14.0283,0H2.2446c-0.1069,0-0.21,0.0176-0.3066,0.0498
	C0.1543,0.2939,0,1.6104,0,2.835v2.0957c0,1.2207,0.1533,2.5322,1.9214,2.7822c0.1016,0.0352,0.21,0.0537,0.3232,0.0537h4.8921
	v1.7422H5.334c-2.1196,0-2.835,0.7158-2.835,2.8359v2.0957c0,2.1191,0.7153,2.835,2.835,2.835h1.8027v1.3828c0,0.5527,0.4478,1,1,1
	s1-0.4473,1-1v-1.3828h1.8027c2.1196,0,2.835-0.7158,2.835-2.835v-2.0957c0-2.1201-0.7153-2.8359-2.835-2.8359H9.1367V7.7666h4.8916
	c0.1089,0,0.2134-0.0186,0.311-0.0518c1.7798-0.2461,1.9336-1.5605,1.9336-2.7842V2.835
	C16.2729,1.6133,16.1191,0.2998,14.3467,0.0518z M11.7212,11.5615c0.0229,0.0947,0.0532,0.3096,0.0532,0.7832v2.0957
	c0,0.4727-0.0303,0.6875-0.0532,0.7822c-0.0942,0.0225-0.3091,0.0527-0.7817,0.0527H5.334c-0.4727,0-0.6875-0.0303-0.7817-0.0527
	c-0.0229-0.0947-0.0532-0.3096-0.0532-0.7822v-2.0957c0-0.4736,0.0303-0.6885,0.0532-0.7832
	c0.0947-0.0225,0.3091-0.0527,0.7817-0.0527h5.6055C11.4121,11.5088,11.6265,11.5391,11.7212,11.5615z M14.2729,4.9307
	c0,0.4697-0.0308,0.6836-0.0537,0.7773c-0.0493,0.0117-0.1343,0.0273-0.2715,0.0381c-0.0459,0.0039-0.0913,0.0107-0.1353,0.0205
	H2.4604C2.4165,5.7568,2.3711,5.75,2.3252,5.7461C2.188,5.7354,2.103,5.7197,2.0537,5.708C2.0308,5.6143,2,5.4004,2,4.9307V2.835
	c0-0.4697,0.0308-0.6836,0.0537-0.7773C2.103,2.0459,2.188,2.0303,2.3252,2.0195C2.3687,2.0156,2.4116,2.0088,2.4536,2h11.3633
	c0.043,0.0088,0.0864,0.0156,0.1309,0.0195c0.1372,0.0107,0.2222,0.0264,0.2715,0.0381c0.0229,0.0938,0.0537,0.3076,0.0537,0.7773
	V4.9307z"/>
</svg>
