<?xml version="1.0" encoding="utf-8"?>
<!-- Generator: Adobe Illustrator 16.0.0, SVG Export Plug-In . SVG Version: 6.00 Build 0)  -->
<!DOCTYPE svg PUBLIC "-//W3C//DTD SVG 1.1//EN" "http://www.w3.org/Graphics/SVG/1.1/DTD/svg11.dtd">
<svg version="1.1" id="Layer_1" xmlns="http://www.w3.org/2000/svg" xmlns:xlink="http://www.w3.org/1999/xlink" x="0px" y="0px"
	 width="50.054px" height="58.59px" viewBox="0 0 50.054 58.59" enable-background="new 0 0 50.054 58.59" xml:space="preserve">
<path fill="#8C9399" d="M20.143,20.744c0,0.178,4.775,7.547,4.775,7.547h10.729c0,0,4.48-0.413,2.181-4.067
	c-1.836-2.921-7.487-11.261-7.487-11.261s-2.358-3.418-4.303-1.002C24.093,14.378,20.143,20.744,20.143,20.744z"/>
<path fill="#E5001C" d="M24.033,11.097L12.951,28.291H1.926c0,0-3.124,0-1.414-2.83c1.709-2.83,7.368-11.555,7.368-11.555
	s1.474-2.81,4.599-2.81C16.312,11.098,24.033,11.097,24.033,11.097z"/>
<path fill="#8C9399" d="M29.421,37.845c0-0.177-4.775-7.546-4.775-7.546H13.917c0,0-4.48,0.413-2.182,4.067
	c1.837,2.92,7.488,11.26,7.488,11.26s2.358,3.419,4.304,1.002C25.472,44.212,29.421,37.845,29.421,37.845z"/>
<path fill="#E5001C" d="M25.53,47.493l11.083-17.193h11.024c0,0,3.124,0,1.415,2.83c-1.709,2.83-7.369,11.556-7.369,11.556
	s-1.474,2.81-4.599,2.808C33.253,47.493,25.53,47.493,25.53,47.493z"/>
</svg>
