<?xml version="1.0" encoding="utf-8"?>
<!-- Generator: Adobe Illustrator 16.0.0, SVG Export Plug-In . SVG Version: 6.00 Build 0)  -->
<!DOCTYPE svg PUBLIC "-//W3C//DTD SVG 1.1//EN" "http://www.w3.org/Graphics/SVG/1.1/DTD/svg11.dtd">
<svg version="1.1" id="Layer_1" xmlns="http://www.w3.org/2000/svg" xmlns:xlink="http://www.w3.org/1999/xlink" x="0px" y="0px"
	 width="50.054px" height="58.59px" viewBox="0 0 50.054 58.59" enable-background="new 0 0 50.054 58.59" xml:space="preserve">
<path fill="#1C164F" d="M48.568,11.388C45.366,8.734,22.282,23.796,28.98,29.271c6.547,5.352,11.002,10.651,5.022,16.63
	c-3.826,3.827-9.174,5.205-14.097,4.134c6.229,1.709,13.175,0.119,18.069-4.775c6.397-6.396,7.151-16.299,2.265-23.523
	c8.975-8.625,9.093-5.02,5.868,0.884c-0.887,1.624-0.993,2.214,0.909-0.669C50.093,17.287,50.476,12.968,48.568,11.388z"/>
<path fill="#009DE8" d="M1.164,51.521c3.202,2.653,26.286-12.408,19.588-17.883c-6.547-5.352-11.002-10.651-5.023-16.63
	c3.827-3.827,9.174-5.204,14.097-4.133c-6.229-1.71-13.175-0.12-18.069,4.775C5.36,24.046,4.605,33.948,9.492,41.173
	c-8.976,8.625-9.093,5.02-5.868-0.884c0.887-1.624,0.993-2.214-0.909,0.67C-0.361,45.622-0.744,49.939,1.164,51.521z"/>
</svg>
