<?xml version="1.0" encoding="utf-8"?>
<!-- Generator: Adobe Illustrator 16.0.0, SVG Export Plug-In . SVG Version: 6.00 Build 0)  -->
<!DOCTYPE svg PUBLIC "-//W3C//DTD SVG 1.1//EN" "http://www.w3.org/Graphics/SVG/1.1/DTD/svg11.dtd">
<svg version="1.1" id="Layer_1" xmlns="http://www.w3.org/2000/svg" xmlns:xlink="http://www.w3.org/1999/xlink" x="0px" y="0px"
	 width="50.054px" height="58.59px" viewBox="0 0 50.054 58.59" enable-background="new 0 0 50.054 58.59" xml:space="preserve">
<path fill="#65BC82" d="M42.985,22.674c-5.884-0.002-19.668-0.018-20.614-0.085c-1.204-0.086-1.894,1.033-1.894,1.033
	s-3.616,10.331-4.218,11.88c-0.603,1.55,0.258,1.464,0.258,1.464s10.33,0,11.363-0.086s1.464-0.861,1.464-0.861l1.032-3.701
	c0,0-2.065,0.085-5.595-0.086c-3.529-0.172-2.497-4.735-2.497-4.735h16.184c0,0-1.549,5.509-3.443,10.072
	c-1.895,4.562-7.49,3.788-7.49,3.788h-9.682h-7.214H1.229L0,44.508h13.808c3.208,2.522,7.251,4.032,11.649,4.032
	c10.421,0,18.869-8.447,18.869-18.868C44.326,27.199,43.849,24.838,42.985,22.674z"/>
<path fill="#E30079" d="M49.965,14.785H37.041c-3.198-2.493-7.216-3.982-11.584-3.982c-10.421,0-18.869,8.448-18.869,18.869
	c0,3.205,0.8,6.223,2.211,8.867c1.638-4.719,4.882-13.989,6.083-16.897c1.636-3.959,7.489-3.7,7.489-3.7h17.864
	c-0.001-0.001-0.002-0.002-0.003-0.004h8.505L49.965,14.785z"/>
</svg>
