<?xml version="1.0" encoding="utf-8"?>
<!-- Generator: Adobe Illustrator 16.0.0, SVG Export Plug-In . SVG Version: 6.00 Build 0)  -->
<!DOCTYPE svg PUBLIC "-//W3C//DTD SVG 1.0//EN" "http://www.w3.org/TR/2001/REC-SVG-20010904/DTD/svg10.dtd" [
	<!ENTITY ns_flows "http://ns.adobe.com/Flows/1.0/">
	<!ENTITY ns_extend "http://ns.adobe.com/Extensibility/1.0/">
	<!ENTITY ns_ai "http://ns.adobe.com/AdobeIllustrator/10.0/">
	<!ENTITY ns_graphs "http://ns.adobe.com/Graphs/1.0/">
]>
<svg version="1.0" id="Layer_1" xmlns:x="&ns_extend;" xmlns:i="&ns_ai;" xmlns:graph="&ns_graphs;"
	 xmlns="http://www.w3.org/2000/svg" xmlns:xlink="http://www.w3.org/1999/xlink" xmlns:a="http://ns.adobe.com/AdobeSVGViewerExtensions/3.0/"
	 x="0px" y="0px" width="18.7041px" height="17.8252px" viewBox="0 0 18.7041 17.8252" enable-background="new 0 0 18.7041 17.8252"
	 xml:space="preserve">
<g>
	<path fill="#232020" d="M17.7041,0H1.0005c-0.5522,0-1,0.4473-1,1s0.4478,1,1,1h16.7036c0.5522,0,1-0.4473,1-1S18.2563,0,17.7041,0
		z"/>
	<path fill="#232020" d="M1.0005,7.2754h4.7334c0.5522,0,1-0.4473,1-1s-0.4478-1-1-1H1.0005c-0.5522,0-1,0.4473-1,1
		S0.4482,7.2754,1.0005,7.2754z"/>
	<path fill="#232020" d="M14.4355,10.5508H1c-0.5522,0-1,0.4473-1,1s0.4478,1,1,1h13.4355c0.5522,0,1-0.4473,1-1
		S14.9878,10.5508,14.4355,10.5508z"/>
	<path fill="#232020" d="M9.4766,15.8252H1c-0.5522,0-1,0.4473-1,1s0.4478,1,1,1h8.4766c0.5522,0,1-0.4473,1-1
		S10.0288,15.8252,9.4766,15.8252z"/>
</g>
</svg>
