<?xml version="1.0" encoding="utf-8"?>
<!-- Generator: Adobe Illustrator 16.0.0, SVG Export Plug-In . SVG Version: 6.00 Build 0)  -->
<!DOCTYPE svg PUBLIC "-//W3C//DTD SVG 1.0//EN" "http://www.w3.org/TR/2001/REC-SVG-20010904/DTD/svg10.dtd" [
	<!ENTITY ns_flows "http://ns.adobe.com/Flows/1.0/">
	<!ENTITY ns_extend "http://ns.adobe.com/Extensibility/1.0/">
	<!ENTITY ns_ai "http://ns.adobe.com/AdobeIllustrator/10.0/">
	<!ENTITY ns_graphs "http://ns.adobe.com/Graphs/1.0/">
]>
<svg version="1.0" id="Layer_1" xmlns:x="&ns_extend;" xmlns:i="&ns_ai;" xmlns:graph="&ns_graphs;"
	 xmlns="http://www.w3.org/2000/svg" xmlns:xlink="http://www.w3.org/1999/xlink" xmlns:a="http://ns.adobe.com/AdobeSVGViewerExtensions/3.0/"
	 x="0px" y="0px" width="21.4277px" height="21.8311px" viewBox="0 0 21.4277 21.8311" enable-background="new 0 0 21.4277 21.8311"
	 xml:space="preserve">
<path fill="#232020" d="M20.271,13.4639l-0.5347-0.3076l0.5342-0.3076c0.7354-0.4229,1.1572-1.0713,1.1572-1.7783
	s-0.4219-1.3555-1.1572-1.7783c-0.0347-0.0195-0.0703-0.0371-0.1064-0.0527l-7.4248-3.1631
	c-0.3022-0.165-0.6533-0.2822-1.0254-0.3594V2.7539l2.1113,1.25c0.1597,0.0947,0.335,0.1396,0.5083,0.1396
	c0.3418,0,0.6748-0.1748,0.8613-0.4902c0.2817-0.4756,0.1245-1.0889-0.3511-1.3701l-3.6206-2.1436
	c-0.3154-0.1875-0.71-0.1855-1.0254,0.0039L6.6396,2.2871C6.1665,2.5723,6.0142,3.1865,6.2993,3.6592
	C6.584,4.1338,7.1978,4.2861,7.6719,4l2.042-1.2295v2.9463C9.3418,5.7939,8.9907,5.9111,8.6885,6.0762L1.2637,9.2393
	C1.2275,9.2549,1.1919,9.2725,1.1572,9.292C0.4219,9.7148,0,10.3633,0,11.0703s0.4219,1.3555,1.1572,1.7783l0.5337,0.3066
	l-0.5337,0.3076C0.4219,13.8857,0,14.5342,0,15.2402c-0.0005,0.707,0.4214,1.3555,1.1572,1.7803l7.4741,4.3008
	c0.5728,0.3291,1.312,0.5098,2.0825,0.5098s1.5098-0.1807,2.083-0.5098l7.4736-4.3018c0.7354-0.4229,1.1572-1.0713,1.1572-1.7783
	S21.0059,13.8857,20.271,13.4639z M2.1118,11.0518L9.522,7.8955c0.0361-0.0156,0.0718-0.0332,0.1064-0.0527
	c0.0234-0.0137,0.0601-0.0176,0.0854-0.0303v3.6074c0,0.5527,0.4478,1,1,1s1-0.4473,1-1V7.8125
	c0.0254,0.0127,0.062,0.0166,0.0854,0.0303c0.0347,0.0195,0.0703,0.0371,0.1064,0.0527l7.4102,3.1562
	c0.0103,0.0068,0.019,0.0127,0.0278,0.0186c-0.02,0.0137-0.0435,0.0293-0.0703,0.0439l-2.0361,1.1719
	c-0.0015,0.001-0.0034,0.001-0.0049,0.002l-5.4336,3.1279c-0.54,0.3105-1.6294,0.3115-2.1704-0.001l-5.4341-3.127H4.1938
	l-2.0396-1.1738C2.1274,11.0996,2.104,11.084,2.084,11.0703C2.0928,11.0645,2.1016,11.0586,2.1118,11.0518z M19.2729,15.2852
	l-7.4736,4.3018c-0.54,0.3105-1.6309,0.3105-2.1709,0l-7.4736-4.2998c-0.0273-0.0156-0.0508-0.0312-0.0713-0.0459
	c0.0205-0.0137,0.0439-0.0293,0.0713-0.0449l1.541-0.8867l4.9351,2.8389c0.5728,0.3301,1.3125,0.5117,2.083,0.5117
	c0.7588,0,1.4863-0.1777,2.0547-0.4971c0.0088-0.0059,0.0195-0.0088,0.0283-0.0137l3.6636-2.1084l1.271-0.7314l1.542,0.8877
	c0.0269,0.0146,0.0503,0.0303,0.0703,0.0439C19.3237,15.2549,19.3003,15.2705,19.2729,15.2852z"/>
</svg>
