<?xml version="1.0" encoding="utf-8"?>
<!-- Generator: Adobe Illustrator 16.0.0, SVG Export Plug-In . SVG Version: 6.00 Build 0)  -->
<!DOCTYPE svg PUBLIC "-//W3C//DTD SVG 1.0//EN" "http://www.w3.org/TR/2001/REC-SVG-20010904/DTD/svg10.dtd" [
	<!ENTITY ns_flows "http://ns.adobe.com/Flows/1.0/">
	<!ENTITY ns_extend "http://ns.adobe.com/Extensibility/1.0/">
	<!ENTITY ns_ai "http://ns.adobe.com/AdobeIllustrator/10.0/">
	<!ENTITY ns_graphs "http://ns.adobe.com/Graphs/1.0/">
]>
<svg version="1.0" id="Layer_1" xmlns:x="&ns_extend;" xmlns:i="&ns_ai;" xmlns:graph="&ns_graphs;"
	 xmlns="http://www.w3.org/2000/svg" xmlns:xlink="http://www.w3.org/1999/xlink" xmlns:a="http://ns.adobe.com/AdobeSVGViewerExtensions/3.0/"
	 x="0px" y="0px" width="21.5459px" height="17.4023px" viewBox="0 0 21.5459 17.4023" enable-background="new 0 0 21.5459 17.4023"
	 xml:space="preserve">
<g>
	<path fill="#232020" d="M8.0898,17.4023H1c-0.3408,0-0.6582-0.1738-0.8423-0.4609c-0.1836-0.2871-0.2085-0.6475-0.0659-0.957
		L7.1816,0.5811c0.1963-0.4277,0.6675-0.6562,1.1221-0.5586C8.7627,0.123,9.0898,0.5293,9.0898,0.999v15.4033
		C9.0898,16.9551,8.6421,17.4023,8.0898,17.4023z"/>
	<path fill="#232020" d="M20.5459,17.4023h-7.0898c-0.5522,0-1-0.4473-1-1V0.999c0-0.4697,0.3271-0.876,0.7861-0.9766
		c0.4551-0.0967,0.9263,0.1318,1.1221,0.5586l7.0898,15.4033c0.1426,0.3096,0.1177,0.6699-0.0659,0.957
		C21.2041,17.2285,20.8867,17.4023,20.5459,17.4023z M14.4561,15.4023h4.5288l-4.5288-9.8389V15.4023z"/>
</g>
</svg>
