<?xml version="1.0" encoding="utf-8"?>
<!-- Generator: Adobe Illustrator 16.0.0, SVG Export Plug-In . SVG Version: 6.00 Build 0)  -->
<!DOCTYPE svg PUBLIC "-//W3C//DTD SVG 1.0//EN" "http://www.w3.org/TR/2001/REC-SVG-20010904/DTD/svg10.dtd" [
	<!ENTITY ns_flows "http://ns.adobe.com/Flows/1.0/">
	<!ENTITY ns_extend "http://ns.adobe.com/Extensibility/1.0/">
	<!ENTITY ns_ai "http://ns.adobe.com/AdobeIllustrator/10.0/">
	<!ENTITY ns_graphs "http://ns.adobe.com/Graphs/1.0/">
]>
<svg version="1.0" id="Layer_1" xmlns:x="&ns_extend;" xmlns:i="&ns_ai;" xmlns:graph="&ns_graphs;"
	 xmlns="http://www.w3.org/2000/svg" xmlns:xlink="http://www.w3.org/1999/xlink" xmlns:a="http://ns.adobe.com/AdobeSVGViewerExtensions/3.0/"
	 x="0px" y="0px" width="19.6582px" height="16.2725px" viewBox="0 0 19.6582 16.2725" enable-background="new 0 0 19.6582 16.2725"
	 xml:space="preserve">
<path d="M19.6099,1.9414C19.3672,0.1543,18.0498,0,16.8242,0h-2.0967c-1.2212,0-2.5332,0.1533-2.7827,1.9248
	c-0.0342,0.1006-0.0522,0.208-0.0522,0.3193v4.8926h-1.7432V5.334c0-2.1191-0.7153-2.835-2.835-2.835H5.2188
	c-2.1201,0-2.8359,0.7158-2.8359,2.835v1.8027H1c-0.5522,0-1,0.4473-1,1s0.4478,1,1,1h1.3828v1.8027
	c0,2.1191,0.7158,2.835,2.8359,2.835h2.0957c2.1196,0,2.835-0.7158,2.835-2.835V9.1367h1.7432v4.8916
	c0,0.1074,0.0176,0.2109,0.0503,0.3076c0.2461,1.7822,1.561,1.9365,2.7847,1.9365h2.0967c1.2231,0,2.5376-0.1543,2.7837-1.9307
	c0.0327-0.0986,0.0503-0.2041,0.0503-0.3135V2.2441C19.6582,2.1387,19.6411,2.0371,19.6099,1.9414z M8.1494,10.9395
	c0,0.4727-0.0303,0.6875-0.0532,0.7822c-0.0942,0.0225-0.3091,0.0527-0.7817,0.0527H5.2188c-0.4731,0-0.688-0.0303-0.7827-0.0527
	c-0.0229-0.0947-0.0532-0.3096-0.0532-0.7822V5.334c0-0.4727,0.0303-0.6875,0.0532-0.7822C4.5308,4.5293,4.7456,4.499,5.2188,4.499
	h2.0957c0.4727,0,0.6875,0.0303,0.7817,0.0527C8.1191,4.6465,8.1494,4.8613,8.1494,5.334V10.9395z M17.6582,13.8213
	c-0.0088,0.042-0.0146,0.084-0.0181,0.127c-0.0112,0.1367-0.0269,0.2207-0.0386,0.2705c-0.0938,0.0234-0.3071,0.0537-0.7773,0.0537
	h-2.0967c-0.4697,0-0.6831-0.0303-0.7769-0.0537c-0.0122-0.0498-0.0278-0.1348-0.0391-0.2715
	c-0.0034-0.0439-0.0098-0.0859-0.019-0.1279V2.4551c0.0093-0.042,0.0156-0.085,0.019-0.1299
	c0.0112-0.1367,0.0269-0.2217,0.0391-0.2715C14.0444,2.0303,14.2578,2,14.7275,2h2.0967c0.4702,0,0.6836,0.0303,0.7773,0.0537
	c0.0117,0.0498,0.0273,0.1338,0.0386,0.2705c0.0034,0.043,0.0093,0.084,0.0181,0.125V13.8213z"/>
</svg>
