<?xml version="1.0" encoding="utf-8"?>
<!-- Generator: Adobe Illustrator 16.0.0, SVG Export Plug-In . SVG Version: 6.00 Build 0)  -->
<!DOCTYPE svg PUBLIC "-//W3C//DTD SVG 1.0//EN" "http://www.w3.org/TR/2001/REC-SVG-20010904/DTD/svg10.dtd" [
	<!ENTITY ns_flows "http://ns.adobe.com/Flows/1.0/">
	<!ENTITY ns_extend "http://ns.adobe.com/Extensibility/1.0/">
	<!ENTITY ns_ai "http://ns.adobe.com/AdobeIllustrator/10.0/">
	<!ENTITY ns_graphs "http://ns.adobe.com/Graphs/1.0/">
]>
<svg version="1.0" id="Layer_1" xmlns:x="&ns_extend;" xmlns:i="&ns_ai;" xmlns:graph="&ns_graphs;"
	 xmlns="http://www.w3.org/2000/svg" xmlns:xlink="http://www.w3.org/1999/xlink" xmlns:a="http://ns.adobe.com/AdobeSVGViewerExtensions/3.0/"
	 x="0px" y="0px" width="19.6582px" height="16.0283px" viewBox="0 0 19.6582 16.0283" enable-background="new 0 0 19.6582 16.0283"
	 xml:space="preserve">
<path d="M18.6582,0h-2.3828h-5.7666H6.7656H1C0.4478,0,0,0.4473,0,1v12.1934c0,2.1191,0.7153,2.835,2.834,2.835h2.0967
	c2.1196,0,2.835-0.7158,2.835-2.835V2h1.7432v5.1934c0,2.1191,0.7153,2.835,2.835,2.835h2.0957c2.1201,0,2.8359-0.7158,2.8359-2.835
	V2h1.3828c0.5522,0,1-0.4473,1-1S19.2104,0,18.6582,0z M5.7656,13.1934c0,0.4727-0.0303,0.6875-0.0532,0.7822
	c-0.0942,0.0225-0.3091,0.0527-0.7817,0.0527H2.834c-0.4717,0-0.6865-0.0303-0.7808-0.0527C2.0303,13.8809,2,13.666,2,13.1934V2
	h3.7656V13.1934z M15.2754,7.1934c0,0.4727-0.0303,0.6875-0.0532,0.7822c-0.0947,0.0225-0.3096,0.0527-0.7827,0.0527h-2.0957
	c-0.4727,0-0.6875-0.0303-0.7817-0.0527c-0.0229-0.0947-0.0532-0.3096-0.0532-0.7822V2h3.7666V7.1934z"/>
</svg>
