<?xml version="1.0" encoding="utf-8"?>
<!-- Generator: Adobe Illustrator 16.0.0, SVG Export Plug-In . SVG Version: 6.00 Build 0)  -->
<!DOCTYPE svg PUBLIC "-//W3C//DTD SVG 1.0//EN" "http://www.w3.org/TR/2001/REC-SVG-20010904/DTD/svg10.dtd" [
	<!ENTITY ns_flows "http://ns.adobe.com/Flows/1.0/">
	<!ENTITY ns_extend "http://ns.adobe.com/Extensibility/1.0/">
	<!ENTITY ns_ai "http://ns.adobe.com/AdobeIllustrator/10.0/">
	<!ENTITY ns_graphs "http://ns.adobe.com/Graphs/1.0/">
]>
<svg version="1.0" id="Layer_1" xmlns:x="&ns_extend;" xmlns:i="&ns_ai;" xmlns:graph="&ns_graphs;"
	 xmlns="http://www.w3.org/2000/svg" xmlns:xlink="http://www.w3.org/1999/xlink" xmlns:a="http://ns.adobe.com/AdobeSVGViewerExtensions/3.0/"
	 x="0px" y="0px" width="16.0283px" height="19.6582px" viewBox="0 0 16.0283 19.6582" enable-background="new 0 0 16.0283 19.6582"
	 xml:space="preserve">
<path d="M13.1934,0H1C0.4478,0,0,0.4473,0,1v5.7666v3.7422v5.7666v2.3828c0,0.5527,0.4478,1,1,1s1-0.4473,1-1v-1.3828h5.1934
	c2.1196,0,2.835-0.7158,2.835-2.835v-2.0957c0-2.1201-0.7153-2.8359-2.835-2.8359H2V7.7666h11.1934
	c2.1196,0,2.835-0.7158,2.835-2.8359V2.835C16.0283,0.7158,15.313,0,13.1934,0z M7.1934,11.5088
	c0.4727,0,0.687,0.0303,0.7817,0.0527c0.0229,0.0947,0.0532,0.3096,0.0532,0.7832v2.0957c0,0.4727-0.0303,0.6875-0.0532,0.7822
	c-0.0942,0.0225-0.3091,0.0527-0.7817,0.0527H2v-3.7666H7.1934z M14.0283,4.9307c0,0.4736-0.0303,0.6885-0.0532,0.7832
	c-0.0947,0.0225-0.3091,0.0527-0.7817,0.0527H2V2h11.1934c0.4727,0,0.6875,0.0303,0.7817,0.0527
	c0.0229,0.0947,0.0532,0.3096,0.0532,0.7822V4.9307z"/>
</svg>
