<?xml version="1.0" encoding="utf-8"?>
<!-- Generator: Adobe Illustrator 16.0.0, SVG Export Plug-In . SVG Version: 6.00 Build 0)  -->
<!DOCTYPE svg PUBLIC "-//W3C//DTD SVG 1.0//EN" "http://www.w3.org/TR/2001/REC-SVG-20010904/DTD/svg10.dtd" [
	<!ENTITY ns_flows "http://ns.adobe.com/Flows/1.0/">
	<!ENTITY ns_extend "http://ns.adobe.com/Extensibility/1.0/">
	<!ENTITY ns_ai "http://ns.adobe.com/AdobeIllustrator/10.0/">
	<!ENTITY ns_graphs "http://ns.adobe.com/Graphs/1.0/">
]>
<svg version="1.0" id="Layer_1" xmlns:x="&ns_extend;" xmlns:i="&ns_ai;" xmlns:graph="&ns_graphs;"
	 xmlns="http://www.w3.org/2000/svg" xmlns:xlink="http://www.w3.org/1999/xlink" xmlns:a="http://ns.adobe.com/AdobeSVGViewerExtensions/3.0/"
	 x="0px" y="0px" width="12.3955px" height="16.8369px" viewBox="0 0 12.3955 16.8369" enable-background="new 0 0 12.3955 16.8369"
	 xml:space="preserve">
<g>
	<path d="M12.1406,0v8.6895c0,1.667-0.5522,2.9727-1.6572,3.9141c-1.105,0.9424-2.5386,1.4141-4.3008,1.4141
		c-1.7559,0-3.1812-0.4717-4.2754-1.4141c-1.0947-0.9414-1.6421-2.2471-1.6421-3.9141V0h2.979v8.6895
		c0,0.9893,0.2642,1.7451,0.793,2.2676c0.5288,0.5215,1.2437,0.7822,2.1455,0.7822c0.915,0,1.6401-0.2607,2.1758-0.7822
		c0.5352-0.5225,0.8032-1.2783,0.8032-2.2676V0H12.1406z"/>
	<path d="M0,16.8369v-1.3857h12.3955v1.3857H0z"/>
</g>
</svg>
