{"asset":{"version":"2.0","generator":"babylon.js glTF exporter for 3dsmax 2021 v20201010.1"},"scene":0,"scenes":[{"nodes":[0,1,2,3,4,5,6,7,8,9]}],"nodes":[{"mesh":0,"translation":[-3.49691143E-09,0.06951143,0.0800000057],"rotation":[0.49999997,-0.50000006,0.5000001,0.49999997],"name":"Line01"},{"mesh":1,"translation":[-0.139690533,0.16907306,0.327692837],"rotation":[0.49999997,-0.50000006,0.5000001,0.49999997],"name":"Box01"},{"mesh":2,"translation":[0.0003094635,0.169073045,0.468432516],"rotation":[-1.1520234E-07,-0.7071068,0.7071068,-1.15202333E-07],"name":"Box02"},{"mesh":3,"translation":[0.0003094635,0.169073045,0.18804957],"rotation":[-1.1520234E-07,-0.7071068,0.7071068,-1.15202333E-07],"name":"Box03"},{"mesh":4,"translation":[0.141343743,0.16907306,0.327692837],"rotation":[0.49999997,-0.50000006,0.5000001,0.49999997],"name":"Box04"},{"mesh":5,"translation":[0.000179187788,0.3097705,0.327692837],"rotation":[0.7071067,3.09086232E-08,0.7071068,-3.09086161E-08],"name":"Box05"},{"mesh":6,"translation":[0.000179187788,0.029466249,0.327692837],"rotation":[0.7071067,3.09086232E-08,0.7071068,-3.09086161E-08],"name":"Box06"},{"mesh":7,"translation":[0.076521866,0.0,0.2546007],"name":"Box07"},{"mesh":8,"translation":[-0.226601511,0.0576499179,0.5007602],"rotation":[0.0,0.0,0.4423227,0.89685595],"scale":[2.97026515,3.21211886,2.62374544],"name":"Box08"},{"name":"Default light"}],"meshes":[{"primitives":[{"attributes":{"POSITION":1,"NORMAL":2,"TEXCOORD_0":3},"indices":0,"material":0},{"attributes":{"POSITION":5,"NORMAL":6,"TEXCOORD_0":7},"indices":4,"material":1},{"attributes":{"POSITION":9,"NORMAL":10,"TEXCOORD_0":11},"indices":8,"material":2}],"name":"Line01"},{"primitives":[{"attributes":{"POSITION":13,"NORMAL":14,"TEXCOORD_0":15},"indices":12,"material":3}],"name":"Box01"},{"primitives":[{"attributes":{"POSITION":17,"NORMAL":18,"TEXCOORD_0":19},"indices":16,"material":4}],"name":"Box02"},{"primitives":[{"attributes":{"POSITION":21,"NORMAL":22,"TEXCOORD_0":23},"indices":20,"material":4}],"name":"Box03"},{"primitives":[{"attributes":{"POSITION":25,"NORMAL":26,"TEXCOORD_0":27},"indices":24,"material":4}],"name":"Box04"},{"primitives":[{"attributes":{"POSITION":29,"NORMAL":30,"TEXCOORD_0":31},"indices":28,"material":4}],"name":"Box05"},{"primitives":[{"attributes":{"POSITION":33,"NORMAL":34,"TEXCOORD_0":35},"indices":32}],"name":"Box06"},{"primitives":[{"attributes":{"POSITION":37,"NORMAL":38,"TEXCOORD_0":39},"indices":36,"material":5}],"name":"Box07"},{"primitives":[{"attributes":{"POSITION":41,"NORMAL":42,"TEXCOORD_0":43},"indices":40,"material":6}],"name":"Box08"}],"accessors":[{"bufferView":0,"componentType":5125,"count":62640,"type":"SCALAR","name":"accessorIndices"},{"bufferView":1,"componentType":5126,"count":62640,"max":[0.0408342779,0.120834254,0.04099163],"min":[-0.2008343,-0.120834306,-0.208923042],"type":"VEC3","name":"accessorPositions"},{"bufferView":1,"byteOffset":751680,"componentType":5126,"count":62640,"type":"VEC3","name":"accessorNormals"},{"bufferView":2,"componentType":5126,"count":62640,"type":"VEC2","name":"accessorUVs"},{"bufferView":0,"byteOffset":250560,"componentType":5125,"count":6480,"type":"SCALAR","name":"accessorIndices"},{"bufferView":1,"byteOffset":1503360,"componentType":5126,"count":6480,"max":[0.0369899981,0.116989978,-0.00332497666],"min":[-0.19699,-0.11699003,-0.206033409],"type":"VEC3","name":"accessorPositions"},{"bufferView":1,"byteOffset":1581120,"componentType":5126,"count":6480,"type":"VEC3","name":"accessorNormals"},{"bufferView":2,"byteOffset":501120,"componentType":5126,"count":6480,"type":"VEC2","name":"accessorUVs"},{"bufferView":0,"byteOffset":276480,"componentType":5125,"count":5760,"type":"SCALAR","name":"accessorIndices"},{"bufferView":1,"byteOffset":1658880,"componentType":5126,"count":5760,"max":[0.0408342779,0.120834254,-0.002832511],"min":[-0.2008343,-0.120834306,-0.205832765],"type":"VEC3","name":"accessorPositions"},{"bufferView":1,"byteOffset":1728000,"componentType":5126,"count":5760,"type":"VEC3","name":"accessorNormals"},{"bufferView":2,"byteOffset":552960,"componentType":5126,"count":5760,"type":"VEC2","name":"accessorUVs"},{"bufferView":0,"byteOffset":299520,"componentType":5123,"count":36,"type":"SCALAR","name":"accessorIndices"},{"bufferView":1,"byteOffset":1797120,"componentType":5126,"count":36,"max":[0.14,0.001,0.14],"min":[-0.14,0.0,-0.14],"type":"VEC3","name":"accessorPositions"},{"bufferView":1,"byteOffset":1797552,"componentType":5126,"count":36,"type":"VEC3","name":"accessorNormals"},{"bufferView":2,"byteOffset":599040,"componentType":5126,"count":36,"type":"VEC2","name":"accessorUVs"},{"bufferView":0,"byteOffset":299592,"componentType":5123,"count":36,"type":"SCALAR","name":"accessorIndices"},{"bufferView":1,"byteOffset":1797984,"componentType":5126,"count":36,"max":[0.14,0.001,0.14],"min":[-0.14,0.0,-0.14],"type":"VEC3","name":"accessorPositions"},{"bufferView":1,"byteOffset":1798416,"componentType":5126,"count":36,"type":"VEC3","name":"accessorNormals"},{"bufferView":2,"byteOffset":599328,"componentType":5126,"count":36,"type":"VEC2","name":"accessorUVs"},{"bufferView":0,"byteOffset":299664,"componentType":5123,"count":36,"type":"SCALAR","name":"accessorIndices"},{"bufferView":1,"byteOffset":1798848,"componentType":5126,"count":36,"max":[0.14,0.001,0.14],"min":[-0.14,0.0,-0.14],"type":"VEC3","name":"accessorPositions"},{"bufferView":1,"byteOffset":1799280,"componentType":5126,"count":36,"type":"VEC3","name":"accessorNormals"},{"bufferView":2,"byteOffset":599616,"componentType":5126,"count":36,"type":"VEC2","name":"accessorUVs"},{"bufferView":0,"byteOffset":299736,"componentType":5123,"count":36,"type":"SCALAR","name":"accessorIndices"},{"bufferView":1,"byteOffset":1799712,"componentType":5126,"count":36,"max":[0.14,0.001,0.14],"min":[-0.14,0.0,-0.14],"type":"VEC3","name":"accessorPositions"},{"bufferView":1,"byteOffset":1800144,"componentType":5126,"count":36,"type":"VEC3","name":"accessorNormals"},{"bufferView":2,"byteOffset":599904,"componentType":5126,"count":36,"type":"VEC2","name":"accessorUVs"},{"bufferView":0,"byteOffset":299808,"componentType":5123,"count":36,"type":"SCALAR","name":"accessorIndices"},{"bufferView":1,"byteOffset":1800576,"componentType":5126,"count":36,"max":[0.14,0.001,0.14],"min":[-0.14,0.0,-0.14],"type":"VEC3","name":"accessorPositions"},{"bufferView":1,"byteOffset":1801008,"componentType":5126,"count":36,"type":"VEC3","name":"accessorNormals"},{"bufferView":2,"byteOffset":600192,"componentType":5126,"count":36,"type":"VEC2","name":"accessorUVs"},{"bufferView":0,"byteOffset":299880,"componentType":5123,"count":36,"type":"SCALAR","name":"accessorIndices"},{"bufferView":1,"byteOffset":1801440,"componentType":5126,"count":36,"max":[0.14,0.001,0.14],"min":[-0.14,0.0,-0.14],"type":"VEC3","name":"accessorPositions"},{"bufferView":1,"byteOffset":1801872,"componentType":5126,"count":36,"type":"VEC3","name":"accessorNormals"},{"bufferView":2,"byteOffset":600480,"componentType":5126,"count":36,"type":"VEC2","name":"accessorUVs"},{"bufferView":0,"byteOffset":299952,"componentType":5123,"count":132,"type":"SCALAR","name":"accessorIndices"},{"bufferView":1,"byteOffset":1802304,"componentType":5126,"count":132,"max":[0.3315751,0.02856032,0.523409247],"min":[-0.3315751,0.0,-0.523409247],"type":"VEC3","name":"accessorPositions"},{"bufferView":1,"byteOffset":1803888,"componentType":5126,"count":132,"type":"VEC3","name":"accessorNormals"},{"bufferView":2,"byteOffset":600768,"componentType":5126,"count":132,"type":"VEC2","name":"accessorUVs"},{"bufferView":0,"byteOffset":300216,"componentType":5123,"count":36,"type":"SCALAR","name":"accessorIndices"},{"bufferView":1,"byteOffset":1805472,"componentType":5126,"count":36,"max":[0.0275000017,0.0003,0.045],"min":[-0.0275000017,0.0,-0.045],"type":"VEC3","name":"accessorPositions"},{"bufferView":1,"byteOffset":1805904,"componentType":5126,"count":36,"type":"VEC3","name":"accessorNormals"},{"bufferView":2,"byteOffset":601824,"componentType":5126,"count":36,"type":"VEC2","name":"accessorUVs"}],"bufferViews":[{"buffer":0,"byteLength":300288,"name":"bufferViewScalar"},{"buffer":0,"byteOffset":300288,"byteLength":1806336,"byteStride":12,"name":"bufferViewFloatVec3"},{"buffer":0,"byteOffset":2106624,"byteLength":602112,"byteStride":8,"name":"bufferViewFloatVec2"}],"buffers":[{"uri":"22.bin","byteLength":2708736}],"materials":[{"pbrMetallicRoughness":{"baseColorFactor":[0.976470649,0.9490197,0.90196085,1.0],"metallicFactor":0.0,"roughnessFactor":0.245269522},"name":"01 - Default"},{"pbrMetallicRoughness":{"baseColorFactor":[0.9725491,0.388235331,0.0,1.0],"metallicFactor":0.0,"roughnessFactor":0.245269522},"name":"Mat trong"},{"pbrMetallicRoughness":{"baseColorTexture":{"index":0},"metallicFactor":0.0,"roughnessFactor":0.245269522},"normalTexture":{"index":0},"name":"Logo"},{"pbrMetallicRoughness":{"baseColorTexture":{"index":1},"metallicFactor":0.0,"roughnessFactor":0.3882092},"name":"mat truoc"},{"pbrMetallicRoughness":{"baseColorTexture":{"index":2},"metallicFactor":0.0,"roughnessFactor":0.3882092},"name":"07 - Default"},{"pbrMetallicRoughness":{"baseColorTexture":{"index":4},"metallicFactor":0.0,"roughnessFactor":0.245269522},"normalTexture":{"index":3},"name":"05 - Default"},{"pbrMetallicRoughness":{"baseColorTexture":{"index":5},"metallicFactor":0.0,"roughnessFactor":0.267846435},"name":"06 - Default"}],"textures":[{"sampler":0,"source":0,"name":"Logo2-01.jpg"},{"sampler":0,"source":1,"name":"Logo.jpg"},{"sampler":0,"source":2,"name":"09.jpg.jpg"},{"sampler":0,"source":3,"name":"03.2.jpg"},{"sampler":0,"source":4,"name":"03.jpg"},{"sampler":0,"source":5,"name":"Demo-02.jpg"}],"images":[{"uri":"./Logo2-01.jpg"},{"uri":"./Logo.jpg"},{"uri":"./09.jpg.jpg"},{"uri":"./03.2.jpg"},{"uri":"./03.jpg"},{"uri":"./Demo-02.jpg"}],"samplers":[{"magFilter":9729,"minFilter":9987}]}