{"asset":{"version":"2.0","generator":"babylon.js glTF exporter for 3dsmax 2021 v20201010.1"},"extensionsUsed":["KHR_texture_transform"],"extensionsRequired":["KHR_texture_transform"],"scene":0,"scenes":[{"nodes":[0,1,2,3,4,5,6,7,8,9]}],"nodes":[{"mesh":0,"translation":[-3.49691143E-09,0.0689191744,0.0800000057],"rotation":[0.49999997,-0.50000006,0.5000001,0.49999997],"name":"Line01"},{"mesh":1,"translation":[-0.139690533,0.16907306,0.327692837],"rotation":[0.49999997,-0.50000006,0.5000001,0.49999997],"name":"Box01"},{"mesh":2,"translation":[0.0003094635,0.169073045,0.468432516],"rotation":[-1.1520234E-07,-0.7071068,0.7071068,-1.15202333E-07],"name":"Box02"},{"mesh":3,"translation":[0.0003094635,0.169073045,0.18804957],"rotation":[-1.1520234E-07,-0.7071068,0.7071068,-1.15202333E-07],"name":"Box03"},{"mesh":4,"translation":[0.141343743,0.16907306,0.327692837],"rotation":[0.49999997,-0.50000006,0.5000001,0.49999997],"name":"Box04"},{"mesh":5,"translation":[0.000179187788,0.3097705,0.327692837],"rotation":[0.7071067,3.09086232E-08,0.7071068,-3.09086161E-08],"name":"Box05"},{"mesh":6,"translation":[0.000179187788,0.029466249,0.327692837],"rotation":[0.7071067,3.09086232E-08,0.7071068,-3.09086161E-08],"name":"Box06"},{"mesh":7,"translation":[0.076521866,0.0,0.2546007],"name":"Box07"},{"mesh":8,"translation":[-0.226601511,0.0576499179,0.5007602],"rotation":[0.0,0.0,0.4423227,0.89685595],"scale":[2.97026515,3.21211886,2.62374544],"name":"Box08"},{"name":"Default light"}],"meshes":[{"primitives":[{"attributes":{"POSITION":1,"NORMAL":2,"TEXCOORD_0":3},"indices":0,"material":0},{"attributes":{"POSITION":5,"NORMAL":6,"TEXCOORD_0":7},"indices":4,"material":1},{"attributes":{"POSITION":9,"NORMAL":10,"TEXCOORD_0":11},"indices":8,"material":2}],"name":"Line01"},{"primitives":[{"attributes":{"POSITION":13,"NORMAL":14,"TEXCOORD_0":15},"indices":12,"material":3}],"name":"Box01"},{"primitives":[{"attributes":{"POSITION":17,"NORMAL":18,"TEXCOORD_0":19},"indices":16,"material":4}],"name":"Box02"},{"primitives":[{"attributes":{"POSITION":21,"NORMAL":22,"TEXCOORD_0":23},"indices":20,"material":4}],"name":"Box03"},{"primitives":[{"attributes":{"POSITION":25,"NORMAL":26,"TEXCOORD_0":27},"indices":24,"material":4}],"name":"Box04"},{"primitives":[{"attributes":{"POSITION":29,"NORMAL":30,"TEXCOORD_0":31},"indices":28,"material":4}],"name":"Box05"},{"primitives":[{"attributes":{"POSITION":33,"NORMAL":34,"TEXCOORD_0":35},"indices":32}],"name":"Box06"},{"primitives":[{"attributes":{"POSITION":37,"NORMAL":38,"TEXCOORD_0":39},"indices":36,"material":5}],"name":"Box07"},{"primitives":[{"attributes":{"POSITION":41,"NORMAL":42,"TEXCOORD_0":43},"indices":40,"material":6}],"name":"Box08"}],"accessors":[{"bufferView":0,"componentType":5123,"count":8640,"type":"SCALAR","name":"accessorIndices"},{"bufferView":1,"componentType":5126,"count":8640,"max":[0.0410000049,0.120999984,0.041],"min":[-0.201,-0.121000037,-0.209017858],"type":"VEC3","name":"accessorPositions"},{"bufferView":1,"byteOffset":103680,"componentType":5126,"count":8640,"type":"VEC3","name":"accessorNormals"},{"bufferView":2,"componentType":5126,"count":8640,"type":"VEC2","name":"accessorUVs"},{"bufferView":0,"byteOffset":17280,"componentType":5123,"count":360,"type":"SCALAR","name":"accessorIndices"},{"bufferView":1,"byteOffset":207360,"componentType":5126,"count":360,"max":[0.03700493,0.117004938,-0.004127717],"min":[-0.197004944,-0.117004924,-0.208817869],"type":"VEC3","name":"accessorPositions"},{"bufferView":1,"byteOffset":211680,"componentType":5126,"count":360,"type":"VEC3","name":"accessorNormals"},{"bufferView":2,"byteOffset":69120,"componentType":5126,"count":360,"type":"VEC2","name":"accessorUVs"},{"bufferView":0,"byteOffset":18000,"componentType":5123,"count":360,"type":"SCALAR","name":"accessorIndices"},{"bufferView":1,"byteOffset":216000,"componentType":5126,"count":360,"max":[0.0410000049,0.120999984,-0.00389854284],"min":[-0.201,-0.121000037,-0.208817869],"type":"VEC3","name":"accessorPositions"},{"bufferView":1,"byteOffset":220320,"componentType":5126,"count":360,"type":"VEC3","name":"accessorNormals"},{"bufferView":2,"byteOffset":72000,"componentType":5126,"count":360,"type":"VEC2","name":"accessorUVs"},{"bufferView":0,"byteOffset":18720,"componentType":5123,"count":36,"type":"SCALAR","name":"accessorIndices"},{"bufferView":1,"byteOffset":224640,"componentType":5126,"count":36,"max":[0.14,0.001,0.14],"min":[-0.14,0.0,-0.14],"type":"VEC3","name":"accessorPositions"},{"bufferView":1,"byteOffset":225072,"componentType":5126,"count":36,"type":"VEC3","name":"accessorNormals"},{"bufferView":2,"byteOffset":74880,"componentType":5126,"count":36,"type":"VEC2","name":"accessorUVs"},{"bufferView":0,"byteOffset":18792,"componentType":5123,"count":36,"type":"SCALAR","name":"accessorIndices"},{"bufferView":1,"byteOffset":225504,"componentType":5126,"count":36,"max":[0.14,0.001,0.14],"min":[-0.14,0.0,-0.14],"type":"VEC3","name":"accessorPositions"},{"bufferView":1,"byteOffset":225936,"componentType":5126,"count":36,"type":"VEC3","name":"accessorNormals"},{"bufferView":2,"byteOffset":75168,"componentType":5126,"count":36,"type":"VEC2","name":"accessorUVs"},{"bufferView":0,"byteOffset":18864,"componentType":5123,"count":36,"type":"SCALAR","name":"accessorIndices"},{"bufferView":1,"byteOffset":226368,"componentType":5126,"count":36,"max":[0.14,0.001,0.14],"min":[-0.14,0.0,-0.14],"type":"VEC3","name":"accessorPositions"},{"bufferView":1,"byteOffset":226800,"componentType":5126,"count":36,"type":"VEC3","name":"accessorNormals"},{"bufferView":2,"byteOffset":75456,"componentType":5126,"count":36,"type":"VEC2","name":"accessorUVs"},{"bufferView":0,"byteOffset":18936,"componentType":5123,"count":36,"type":"SCALAR","name":"accessorIndices"},{"bufferView":1,"byteOffset":227232,"componentType":5126,"count":36,"max":[0.14,0.001,0.14],"min":[-0.14,0.0,-0.14],"type":"VEC3","name":"accessorPositions"},{"bufferView":1,"byteOffset":227664,"componentType":5126,"count":36,"type":"VEC3","name":"accessorNormals"},{"bufferView":2,"byteOffset":75744,"componentType":5126,"count":36,"type":"VEC2","name":"accessorUVs"},{"bufferView":0,"byteOffset":19008,"componentType":5123,"count":36,"type":"SCALAR","name":"accessorIndices"},{"bufferView":1,"byteOffset":228096,"componentType":5126,"count":36,"max":[0.14,0.001,0.14],"min":[-0.14,0.0,-0.14],"type":"VEC3","name":"accessorPositions"},{"bufferView":1,"byteOffset":228528,"componentType":5126,"count":36,"type":"VEC3","name":"accessorNormals"},{"bufferView":2,"byteOffset":76032,"componentType":5126,"count":36,"type":"VEC2","name":"accessorUVs"},{"bufferView":0,"byteOffset":19080,"componentType":5123,"count":36,"type":"SCALAR","name":"accessorIndices"},{"bufferView":1,"byteOffset":228960,"componentType":5126,"count":36,"max":[0.14,0.001,0.14],"min":[-0.14,0.0,-0.14],"type":"VEC3","name":"accessorPositions"},{"bufferView":1,"byteOffset":229392,"componentType":5126,"count":36,"type":"VEC3","name":"accessorNormals"},{"bufferView":2,"byteOffset":76320,"componentType":5126,"count":36,"type":"VEC2","name":"accessorUVs"},{"bufferView":0,"byteOffset":19152,"componentType":5123,"count":132,"type":"SCALAR","name":"accessorIndices"},{"bufferView":1,"byteOffset":229824,"componentType":5126,"count":132,"max":[0.3315751,0.02856032,0.523409247],"min":[-0.3315751,0.0,-0.523409247],"type":"VEC3","name":"accessorPositions"},{"bufferView":1,"byteOffset":231408,"componentType":5126,"count":132,"type":"VEC3","name":"accessorNormals"},{"bufferView":2,"byteOffset":76608,"componentType":5126,"count":132,"type":"VEC2","name":"accessorUVs"},{"bufferView":0,"byteOffset":19416,"componentType":5123,"count":36,"type":"SCALAR","name":"accessorIndices"},{"bufferView":1,"byteOffset":232992,"componentType":5126,"count":36,"max":[0.0275000017,0.0003,0.045],"min":[-0.0275000017,0.0,-0.045],"type":"VEC3","name":"accessorPositions"},{"bufferView":1,"byteOffset":233424,"componentType":5126,"count":36,"type":"VEC3","name":"accessorNormals"},{"bufferView":2,"byteOffset":77664,"componentType":5126,"count":36,"type":"VEC2","name":"accessorUVs"}],"bufferViews":[{"buffer":0,"byteLength":19488,"name":"bufferViewScalar"},{"buffer":0,"byteOffset":19488,"byteLength":233856,"byteStride":12,"name":"bufferViewFloatVec3"},{"buffer":0,"byteOffset":253344,"byteLength":77952,"byteStride":8,"name":"bufferViewFloatVec2"}],"buffers":[{"uri":"nc.bin","byteLength":331296}],"materials":[{"pbrMetallicRoughness":{"baseColorFactor":[0.976470649,0.9490197,0.90196085,1.0],"metallicFactor":0.0,"roughnessFactor":0.245269522},"name":"01 - Default"},{"pbrMetallicRoughness":{"baseColorFactor":[0.9725491,0.388235331,0.0,1.0],"metallicFactor":0.0,"roughnessFactor":0.245269522},"name":"Mat trong"},{"pbrMetallicRoughness":{"baseColorTexture":{"index":0,"extensions":{"KHR_texture_transform":{"offset":[0.0,0.0],"scale":[1.0,1.0],"texCoord":0}}},"metallicFactor":0.0,"roughnessFactor":0.245269522},"normalTexture":{"index":0,"extensions":{"KHR_texture_transform":{"offset":[0.0,0.0],"scale":[1.0,1.0],"texCoord":0}}},"name":"Logo"},{"pbrMetallicRoughness":{"baseColorTexture":{"index":2,"extensions":{"KHR_texture_transform":{"offset":[0.0,0.0],"scale":[1.0,1.0],"texCoord":0}}},"metallicFactor":0.0,"roughnessFactor":0.3882092},"name":"mat truoc"},{"pbrMetallicRoughness":{"baseColorTexture":{"index":3,"extensions":{"KHR_texture_transform":{"offset":[0.0,0.0],"scale":[1.0,1.0],"texCoord":0}}},"metallicFactor":0.0,"roughnessFactor":0.3882092},"name":"07 - Default"},{"pbrMetallicRoughness":{"baseColorTexture":{"index":5,"extensions":{"KHR_texture_transform":{"offset":[0.0,0.0],"scale":[1.0,1.0],"texCoord":0}}},"metallicFactor":0.0,"roughnessFactor":0.245269522},"normalTexture":{"index":4,"extensions":{"KHR_texture_transform":{"offset":[0.0,0.0],"scale":[1.0,1.0],"texCoord":0}}},"name":"05 - Default"},{"pbrMetallicRoughness":{"baseColorTexture":{"index":6,"extensions":{"KHR_texture_transform":{"offset":[0.0,0.0],"scale":[1.0,1.0],"texCoord":0}}},"metallicFactor":0.0,"roughnessFactor":0.267846435},"name":"06 - Default"}],"textures":[{"sampler":0,"source":0,"name":"Logo2-01.jpg"},{"sampler":0,"source":0,"name":"Logo2-01.jpg"},{"sampler":0,"source":1,"name":"Logo.jpg"},{"sampler":0,"source":2,"name":"09.jpg.jpg"},{"sampler":0,"source":3,"name":"03.2.jpg"},{"sampler":0,"source":4,"name":"03.jpg"},{"sampler":0,"source":5,"name":"Demo-02.jpg"}],"images":[{"uri":"./Logo2-01.jpg"},{"uri":"./Logo.jpg"},{"uri":"./09.jpg.jpg"},{"uri":"./03.2.jpg"},{"uri":"./03.jpg"},{"uri":"./Demo-02.jpg"}],"samplers":[{"magFilter":9729,"minFilter":9987}]}