<?xml version="1.0" encoding="utf-8"?>
<!-- Generator: Adobe Illustrator 16.0.0, SVG Export Plug-In . SVG Version: 6.00 Build 0)  -->
<!DOCTYPE svg PUBLIC "-//W3C//DTD SVG 1.0//EN" "http://www.w3.org/TR/2001/REC-SVG-20010904/DTD/svg10.dtd" [
	<!ENTITY ns_flows "http://ns.adobe.com/Flows/1.0/">
	<!ENTITY ns_extend "http://ns.adobe.com/Extensibility/1.0/">
	<!ENTITY ns_ai "http://ns.adobe.com/AdobeIllustrator/10.0/">
	<!ENTITY ns_graphs "http://ns.adobe.com/Graphs/1.0/">
]>
<svg version="1.0" id="Layer_1" xmlns:x="&ns_extend;" xmlns:i="&ns_ai;" xmlns:graph="&ns_graphs;"
	 xmlns="http://www.w3.org/2000/svg" xmlns:xlink="http://www.w3.org/1999/xlink" xmlns:a="http://ns.adobe.com/AdobeSVGViewerExtensions/3.0/"
	 x="0px" y="0px" width="19.5649px" height="17.2812px" viewBox="0 0 19.5649 17.2812" enable-background="new 0 0 19.5649 17.2812"
	 xml:space="preserve">
<g>
	<linearGradient id="SVGID_1_" gradientUnits="userSpaceOnUse" x1="4.5586" y1="11.4521" x2="19.5649" y2="11.4521">
		<stop  offset="0" style="stop-color:#74A6D8"/>
		<stop  offset="1" style="stop-color:#4FC5E9"/>
		<a:midPointStop  offset="0" style="stop-color:#74A6D8"/>
		<a:midPointStop  offset="0.5" style="stop-color:#74A6D8"/>
		<a:midPointStop  offset="1" style="stop-color:#4FC5E9"/>
	</linearGradient>
	<path fill="url(#SVGID_1_)" d="M18.9673,17.2812H5.1558c-0.3291,0-0.5972-0.2676-0.5972-0.5977v-4.8398
		c0-0.3301,0.2681-0.5981,0.5972-0.5981h8.6553V6.2202c0-0.3301,0.2681-0.5977,0.5972-0.5977h4.5591
		c0.3301,0,0.5977,0.2676,0.5977,0.5977v10.4634C19.5649,17.0137,19.2974,17.2812,18.9673,17.2812z"/>
	<path fill="#FFFFFF" d="M14.4082,12.4414H0.5977C0.2681,12.4414,0,12.1733,0,11.8438V0.5977C0,0.2681,0.2681,0,0.5977,0h13.8105
		c0.3306,0,0.5977,0.2681,0.5977,0.5977v11.2461C15.0059,12.1733,14.7388,12.4414,14.4082,12.4414z"/>
	<rect x="1.9497" y="2.4199" fill="#EA276B" width="11.1064" height="2.4873"/>
	<rect x="1.9497" y="7.4727" opacity="0.4" fill="#678994" width="6.3965" height="2.4878"/>
</g>
</svg>
