<?xml version="1.0" encoding="utf-8"?>
<!-- Generator: Adobe Illustrator 16.0.0, SVG Export Plug-In . SVG Version: 6.00 Build 0)  -->
<!DOCTYPE svg PUBLIC "-//W3C//DTD SVG 1.0//EN" "http://www.w3.org/TR/2001/REC-SVG-20010904/DTD/svg10.dtd" [
	<!ENTITY ns_flows "http://ns.adobe.com/Flows/1.0/">
	<!ENTITY ns_extend "http://ns.adobe.com/Extensibility/1.0/">
	<!ENTITY ns_ai "http://ns.adobe.com/AdobeIllustrator/10.0/">
	<!ENTITY ns_graphs "http://ns.adobe.com/Graphs/1.0/">
]>
<svg xmlns="http://www.w3.org/2000/svg" viewBox="0 0 48 48"><path fill="#CFD8DC" d="M45,39H23v-3c0,0,3.044-7,11-7c7.955,0,11,7,11,7V39z M34,26c3.314,0,6-2.686,6-6s-2.686-6-6-6s-6,2.686-6,6S30.686,26,34,26"></path><path fill="#FFB74D" d="M24,16c0,3.867-3.134,7-7,7c-3.867,0-7-3.133-7-7s3.133-7,7-7C20.866,9,24,12.133,24,16"></path><path fill="#546E7A" d="M31,35c0,0-3.875-9-14-9C6.874,26,3,35,3,35v4h28V35z"></path></svg>