<?xml version="1.0" encoding="utf-8"?>
<!-- Generator: Adobe Illustrator 19.1.0, SVG Export Plug-In . SVG Version: 6.00 Build 0)  -->
<svg version="1.1" id="Layer_1" xmlns="http://www.w3.org/2000/svg" xmlns:xlink="http://www.w3.org/1999/xlink" x="0px" y="0px"
	 viewBox="0 0 100 36" style="enable-background:new 0 0 100 36;" xml:space="preserve">
<style type="text/css">
	.st0{fill-rule:evenodd;clip-rule:evenodd;fill:#ffffff;}
	.st1{fill-rule:evenodd;clip-rule:evenodd;fill:#ffffff;}
</style>
<g>
	<path class="st0" d="M70.887,30.343l-0.036,0.179c0.161,0.024,0.241,0.103,0.241,0.237c0,0.028-0.007,0.084-0.019,0.167
		l-0.331,1.615c-0.032,0.156-0.07,0.262-0.113,0.32c-0.043,0.058-0.135,0.087-0.272,0.087l-0.029,0.172h1.614l0.039-0.172
		c-0.095-0.016-0.161-0.041-0.196-0.075c-0.036-0.034-0.055-0.085-0.055-0.154c0-0.032,0.015-0.138,0.046-0.317l0.439-2.163
		L70.887,30.343L70.887,30.343z M74.527,31.233c-0.155,0.034-0.347,0.076-0.577,0.127c-0.229,0.052-0.449,0.118-0.658,0.203
		c-0.209,0.084-0.393,0.202-0.553,0.356c-0.16,0.152-0.257,0.344-0.293,0.574c-0.013,0.077-0.02,0.127-0.02,0.149
		c0,0.116,0.032,0.217,0.096,0.299c0.065,0.084,0.152,0.146,0.263,0.187c0.111,0.042,0.235,0.063,0.373,0.063
		c0.18,0,0.365-0.036,0.553-0.109c0.189-0.073,0.358-0.178,0.505-0.317c0.015,0.108,0.028,0.184,0.039,0.23
		c0.011,0.046,0.033,0.088,0.066,0.126h1.15l0.034-0.172c-0.141,0-0.212-0.053-0.212-0.158c0-0.03,0.007-0.084,0.019-0.165
		l0.317-1.524c0.012-0.073,0.018-0.132,0.018-0.178c-0.004-0.121-0.033-0.232-0.088-0.332c-0.055-0.1-0.154-0.184-0.295-0.251
		c-0.141-0.067-0.333-0.1-0.576-0.1c-0.201,0-0.372,0.012-0.515,0.036c-0.143,0.024-0.288,0.055-0.434,0.092
		c-0.146,0.038-0.244,0.056-0.292,0.056c-0.068,0-0.127-0.026-0.179-0.079l-0.34,1.025l0.156,0.049
		c0.059-0.141,0.15-0.268,0.273-0.378c0.123-0.11,0.258-0.195,0.405-0.255c0.147-0.059,0.285-0.089,0.412-0.089
		c0.121,0,0.217,0.028,0.289,0.083c0.072,0.055,0.108,0.137,0.108,0.245C74.57,31.085,74.555,31.156,74.527,31.233L74.527,31.233z
		 M74.456,31.589c-0.024,0.177-0.072,0.343-0.144,0.499c-0.073,0.156-0.158,0.281-0.258,0.375c-0.099,0.094-0.198,0.141-0.297,0.141
		c-0.065,0-0.125-0.021-0.178-0.064c-0.056-0.055-0.085-0.121-0.085-0.198c0-0.108,0.05-0.22,0.15-0.337
		c0.084-0.096,0.198-0.184,0.345-0.263C74.135,31.662,74.291,31.612,74.456,31.589L74.456,31.589z M74.456,29.03
		c0.016-0.172,0.082-0.307,0.199-0.406c0.117-0.099,0.248-0.149,0.391-0.149c0.138,0.028,0.207,0.098,0.207,0.208
		c0,0.082-0.039,0.171-0.118,0.268c-0.078,0.097-0.177,0.175-0.294,0.232c-0.118,0.052-0.228,0.124-0.329,0.215
		c-0.101,0.092-0.15,0.188-0.15,0.289c0,0.039,0.006,0.074,0.018,0.104c0.072-0.059,0.167-0.089,0.289-0.089
		c0.04,0,0.092,0.003,0.156,0.01c-0.007-0.025-0.01-0.044-0.01-0.055c0-0.059,0.032-0.108,0.095-0.146
		c0.064-0.038,0.176-0.091,0.334-0.158c0.158-0.068,0.285-0.135,0.379-0.201c0.093-0.066,0.157-0.15,0.188-0.252
		c0.032-0.085,0.047-0.163,0.047-0.233c0-0.096-0.026-0.178-0.077-0.244c-0.052-0.067-0.123-0.117-0.212-0.149
		c-0.09-0.032-0.191-0.048-0.301-0.048c-0.136,0-0.262,0.018-0.379,0.055c-0.006,0.002-0.044,0.011-0.115,0.028
		c-0.07,0.018-0.119,0.029-0.146,0.034c-0.027,0.005-0.055,0.009-0.083,0.009c-0.05,0-0.089-0.017-0.118-0.05l-0.07,0.727H74.456
		L74.456,29.03z M77.629,30.744c0-0.003-0.003-0.053-0.007-0.152c-0.004-0.099-0.011-0.175-0.021-0.227
		c-0.01-0.052-0.025-0.094-0.049-0.126l-1.161,0.104l-0.047,0.179c0.167,0,0.251,0.074,0.251,0.222c0,0.042-0.007,0.104-0.019,0.182
		l-0.34,1.664c-0.017,0.079-0.036,0.142-0.058,0.189c-0.021,0.047-0.06,0.086-0.117,0.119c-0.056,0.033-0.136,0.049-0.241,0.049
		l-0.038,0.172h1.657l0.038-0.172c-0.151,0-0.227-0.078-0.227-0.234c0-0.028,0.008-0.085,0.024-0.173l0.194-0.996
		c0.022-0.116,0.069-0.227,0.144-0.332c0.074-0.104,0.158-0.187,0.249-0.249c0.092-0.061,0.174-0.093,0.244-0.093
		c0.107,0,0.161,0.066,0.161,0.199c0,0.033-0.005,0.075-0.015,0.124l-0.264,1.347c-0.023,0.101-0.043,0.177-0.062,0.228
		c-0.019,0.05-0.05,0.093-0.095,0.127c-0.044,0.035-0.107,0.052-0.187,0.052l-0.024,0.172h1.62l0.036-0.172
		c-0.163,0-0.245-0.073-0.245-0.22c0-0.038,0.009-0.099,0.024-0.187l0.335-1.615c0.01-0.048,0.015-0.097,0.015-0.147
		c0-0.172-0.058-0.305-0.172-0.403c-0.114-0.098-0.264-0.147-0.453-0.147c-0.171,0-0.358,0.043-0.559,0.13
		C78.019,30.444,77.822,30.572,77.629,30.744L77.629,30.744z M82.189,29.348l-0.047,0.183c0.16,0,0.239,0.077,0.239,0.232
		c0,0.034-0.006,0.076-0.018,0.129l-0.525,2.649c-0.032,0.115-0.069,0.205-0.115,0.273c-0.046,0.067-0.135,0.111-0.271,0.133
		l-0.029,0.172h1.623l0.034-0.172c-0.158-0.027-0.237-0.109-0.237-0.248c0-0.036,0.011-0.106,0.033-0.208l0.203-0.985
		c0.02-0.116,0.063-0.223,0.13-0.319c0.067-0.095,0.145-0.172,0.234-0.227c0.089-0.055,0.172-0.082,0.249-0.082
		c0.069,0,0.124,0.023,0.164,0.07c0.042,0.046,0.063,0.117,0.063,0.212c0,0.057-0.007,0.112-0.02,0.163l-0.231,1.168
		c-0.025,0.121-0.067,0.227-0.124,0.318c-0.058,0.092-0.159,0.138-0.306,0.138l-0.038,0.172h1.628l0.029-0.173
		c-0.135,0-0.203-0.052-0.203-0.158c0-0.054,0.009-0.12,0.027-0.199l0.317-1.579c0.015-0.07,0.022-0.147,0.022-0.233
		c0-0.184-0.053-0.323-0.16-0.418c-0.106-0.094-0.249-0.141-0.426-0.141c-0.121,0-0.252,0.022-0.394,0.065
		c-0.143,0.044-0.288,0.11-0.434,0.197c-0.147,0.087-0.283,0.19-0.408,0.306l0.311-1.525L82.189,29.348L82.189,29.348z
		 M85.042,31.739c0.058-0.229,0.153-0.434,0.286-0.616c0.131-0.181,0.288-0.333,0.468-0.456c0.181-0.122,0.374-0.214,0.578-0.276
		c0.204-0.062,0.408-0.093,0.614-0.093c0.029-0.003,0.072-0.005,0.131-0.005c0.227,0,0.435,0.043,0.622,0.129
		c0.162,0.075,0.296,0.182,0.4,0.321l0.7-0.96h0.61l-0.576,0.793c-0.019,0.034-0.029,0.07-0.029,0.109
		c0,0.03,0.01,0.055,0.029,0.073h-0.723c0.012,0.016,0.023,0.033,0.034,0.05c0.109,0.172,0.164,0.378,0.164,0.618
		c0,0.124-0.013,0.242-0.037,0.356c-0.052,0.234-0.144,0.442-0.276,0.627c-0.133,0.184-0.292,0.339-0.477,0.463
		c-0.185,0.124-0.383,0.218-0.594,0.28c-0.212,0.063-0.422,0.094-0.632,0.094c-0.183,0-0.354-0.024-0.514-0.072
		c-0.161-0.048-0.303-0.12-0.426-0.215c-0.123-0.096-0.22-0.215-0.289-0.36C85.035,32.456,85,32.291,85,32.104
		C85,31.998,85.014,31.876,85.042,31.739L85.042,31.739z M86.157,31.679c-0.031,0.158-0.047,0.308-0.047,0.446
		c0,0.203,0.033,0.36,0.1,0.471c0.067,0.11,0.152,0.167,0.254,0.167c0.099,0,0.199-0.041,0.297-0.124
		c0.097-0.082,0.188-0.206,0.271-0.371c0.083-0.165,0.149-0.362,0.198-0.59c0.024-0.119,0.036-0.24,0.036-0.362
		c0-0.194-0.036-0.344-0.112-0.45c-0.075-0.107-0.169-0.16-0.284-0.16c-0.095,0-0.191,0.037-0.288,0.112
		c-0.097,0.075-0.184,0.184-0.26,0.33C86.244,31.296,86.19,31.472,86.157,31.679L86.157,31.679z M90.534,30.744
		c0-0.003-0.002-0.053-0.006-0.152c-0.005-0.099-0.012-0.175-0.021-0.227c-0.01-0.052-0.025-0.094-0.049-0.126l-1.161,0.104
		l-0.047,0.179c0.167,0,0.25,0.074,0.25,0.222c0,0.042-0.007,0.104-0.019,0.182l-0.34,1.664c-0.018,0.079-0.037,0.142-0.058,0.189
		c-0.021,0.047-0.06,0.086-0.116,0.119c-0.056,0.033-0.137,0.049-0.241,0.049l-0.038,0.172h1.657l0.038-0.172
		c-0.151,0-0.228-0.078-0.228-0.234c0-0.028,0.008-0.085,0.024-0.173l0.194-0.996c0.022-0.116,0.069-0.227,0.144-0.332
		c0.074-0.104,0.157-0.187,0.249-0.249c0.092-0.061,0.174-0.093,0.244-0.093c0.107,0,0.16,0.066,0.16,0.199
		c0,0.033-0.005,0.075-0.015,0.124l-0.264,1.347c-0.023,0.101-0.043,0.177-0.062,0.228c-0.018,0.05-0.05,0.093-0.095,0.127
		c-0.044,0.035-0.107,0.052-0.187,0.052l-0.024,0.172h1.62l0.036-0.172c-0.164,0-0.246-0.073-0.246-0.22
		c0-0.038,0.009-0.099,0.024-0.187l0.335-1.615c0.009-0.048,0.014-0.097,0.014-0.147c0-0.172-0.057-0.305-0.171-0.403
		c-0.115-0.098-0.265-0.147-0.453-0.147c-0.172,0-0.358,0.043-0.559,0.13C90.925,30.444,90.728,30.572,90.534,30.744L90.534,30.744z
		 M10.708,33.253c0.021,0.003,0.055,0.005,0.099,0.005c0.049,0,0.115-0.004,0.2-0.013c0.085-0.008,0.162-0.017,0.232-0.024
		c0.07-0.008,0.133-0.015,0.19-0.02c0.056-0.005,0.111-0.009,0.162-0.009c0.147,0,0.233,0.033,0.26,0.099l0.684-1.246l-0.161-0.041
		c-0.053,0.112-0.121,0.214-0.206,0.306c-0.085,0.091-0.181,0.171-0.29,0.238c-0.109,0.067-0.223,0.118-0.345,0.155
		c-0.121,0.035-0.241,0.054-0.359,0.054c-0.189,0-0.362-0.049-0.519-0.146c-0.157-0.096-0.282-0.252-0.377-0.468
		c-0.095-0.214-0.143-0.489-0.143-0.823c0.013-0.264,0.084-0.509,0.215-0.737c0.13-0.227,0.295-0.408,0.494-0.543
		c0.199-0.133,0.399-0.201,0.599-0.201c0.231,0,0.433,0.096,0.607,0.287c0.174,0.192,0.29,0.485,0.35,0.882l0.143-0.049l0.033-1.654
		c-0.072,0.093-0.17,0.139-0.292,0.139c-0.058,0-0.201-0.023-0.431-0.07c-0.229-0.046-0.43-0.069-0.603-0.069
		c-0.427,0.02-0.79,0.11-1.091,0.271c-0.301,0.16-0.538,0.346-0.71,0.559c-0.171,0.213-0.296,0.409-0.374,0.587
		c-0.077,0.18-0.133,0.335-0.166,0.469c-0.015,0.143-0.023,0.263-0.023,0.362c0,0.374,0.069,0.676,0.206,0.909
		c0.138,0.232,0.306,0.402,0.504,0.509c0.199,0.108,0.371,0.175,0.518,0.201C10.261,33.201,10.46,33.227,10.708,33.253
		L10.708,33.253z M13.427,29.348l-0.047,0.183c0.16,0,0.239,0.077,0.239,0.232c0,0.034-0.006,0.076-0.018,0.129l-0.525,2.649
		c-0.032,0.115-0.069,0.205-0.115,0.273c-0.045,0.067-0.136,0.111-0.271,0.133l-0.029,0.172h1.624l0.034-0.172
		c-0.158-0.027-0.237-0.109-0.237-0.248c0-0.036,0.011-0.106,0.033-0.208l0.203-0.985c0.019-0.116,0.063-0.223,0.13-0.319
		c0.067-0.095,0.145-0.172,0.234-0.227c0.089-0.055,0.171-0.082,0.249-0.082c0.069,0,0.124,0.023,0.164,0.07
		c0.042,0.046,0.063,0.117,0.063,0.212c0,0.057-0.007,0.112-0.02,0.163l-0.231,1.168c-0.026,0.121-0.067,0.227-0.124,0.318
		c-0.058,0.092-0.159,0.138-0.306,0.138l-0.038,0.172h1.628l0.029-0.173c-0.135,0-0.203-0.052-0.203-0.158
		c0-0.054,0.008-0.12,0.027-0.199l0.317-1.579c0.015-0.07,0.023-0.147,0.023-0.233c0-0.184-0.053-0.323-0.16-0.418
		c-0.106-0.094-0.249-0.141-0.426-0.141c-0.121,0-0.252,0.022-0.394,0.065c-0.142,0.044-0.287,0.11-0.434,0.197
		c-0.147,0.087-0.283,0.19-0.408,0.306l0.311-1.525L13.427,29.348L13.427,29.348z M16.435,31.739
		c-0.029,0.138-0.042,0.26-0.042,0.365c0,0.187,0.035,0.352,0.105,0.497c0.07,0.144,0.167,0.264,0.29,0.36
		c0.123,0.095,0.265,0.167,0.426,0.215c0.161,0.047,0.332,0.072,0.514,0.072c0.209,0,0.42-0.031,0.632-0.094
		c0.211-0.062,0.409-0.157,0.594-0.28c0.185-0.124,0.344-0.278,0.477-0.463c0.132-0.185,0.224-0.394,0.276-0.627
		c0.024-0.114,0.037-0.232,0.037-0.356c0-0.24-0.055-0.446-0.164-0.618c-0.11-0.172-0.258-0.3-0.445-0.386
		c-0.187-0.086-0.395-0.129-0.622-0.129c-0.059,0-0.103,0.002-0.131,0.005c-0.206,0-0.41,0.031-0.614,0.093
		c-0.204,0.062-0.397,0.153-0.578,0.276c-0.181,0.123-0.337,0.275-0.469,0.456C16.588,31.304,16.493,31.509,16.435,31.739
		L16.435,31.739z M17.549,31.679c0.033-0.207,0.087-0.383,0.164-0.53c0.076-0.145,0.163-0.256,0.26-0.331
		c0.097-0.073,0.193-0.11,0.288-0.11c0.115,0,0.21,0.053,0.285,0.158c0.075,0.107,0.112,0.257,0.112,0.451
		c0,0.121-0.012,0.242-0.037,0.362c-0.049,0.228-0.115,0.425-0.197,0.59c-0.083,0.165-0.174,0.289-0.271,0.371
		c-0.098,0.083-0.198,0.124-0.297,0.124c-0.102,0-0.187-0.056-0.254-0.167c-0.067-0.112-0.1-0.268-0.1-0.472
		C17.502,31.986,17.518,31.837,17.549,31.679L17.549,31.679z M24.346,32.228l-0.113-0.084c-0.103,0.12-0.209,0.222-0.318,0.303
		c-0.109,0.081-0.214,0.14-0.318,0.179c-0.104,0.039-0.202,0.059-0.294,0.059c-0.124,0-0.235-0.032-0.332-0.095
		c-0.097-0.064-0.173-0.154-0.228-0.273c-0.055-0.119-0.082-0.257-0.082-0.416c0-0.052,0.001-0.091,0.004-0.118
		c0.032-0.223,0.098-0.413,0.198-0.573c0.101-0.16,0.22-0.28,0.357-0.36c0.136-0.081,0.272-0.121,0.407-0.121
		c0.158,0,0.286,0.056,0.386,0.169c0.099,0.114,0.149,0.286,0.149,0.518l0.184-0.049l-0.029-1.169
		c-0.056,0.076-0.152,0.115-0.288,0.115c-0.058,0-0.171-0.012-0.338-0.038c-0.167-0.025-0.299-0.038-0.399-0.038
		c-0.252,0-0.498,0.057-0.738,0.171c-0.241,0.115-0.448,0.274-0.623,0.481c-0.174,0.206-0.295,0.439-0.362,0.699
		c-0.021,0.107-0.032,0.221-0.032,0.342c0,0.22,0.045,0.423,0.136,0.607c0.091,0.185,0.229,0.337,0.415,0.456
		c0.186,0.119,0.416,0.191,0.69,0.215c0.038,0.003,0.094,0.005,0.169,0.005c0.096,0,0.217-0.008,0.362-0.024
		c0.144-0.015,0.24-0.022,0.285-0.022c0.101,0,0.151,0.028,0.151,0.085L24.346,32.228L24.346,32.228z M26.234,32.624
		c-0.029,0.177-0.043,0.287-0.043,0.328c0,0.066,0.012,0.122,0.034,0.168h1.241l0.038-0.172c-0.157,0-0.236-0.077-0.236-0.229
		c0-0.04,0.012-0.116,0.033-0.227l0.453-2.253l-1.346,0.104l-0.047,0.179c0.164,0.024,0.246,0.101,0.246,0.232
		c0,0.051-0.008,0.109-0.024,0.172l-0.183,0.946c-0.026,0.107-0.079,0.214-0.16,0.319c-0.081,0.106-0.17,0.192-0.272,0.258
		c-0.1,0.067-0.186,0.101-0.26,0.101c-0.104,0-0.156-0.064-0.156-0.193c0-0.038,0.006-0.081,0.015-0.129l0.386-1.99l-1.336,0.104
		l-0.047,0.179c0.146,0,0.218,0.059,0.218,0.177c0,0.046-0.011,0.106-0.033,0.179l-0.302,1.524
		c-0.016,0.093-0.024,0.165-0.024,0.218c0,0.188,0.055,0.33,0.166,0.423c0.112,0.094,0.258,0.141,0.439,0.141
		c0.193,0,0.4-0.05,0.62-0.152C25.876,32.931,26.069,32.795,26.234,32.624L26.234,32.624z M29.738,30.298
		c0.028-0.003,0.072-0.005,0.131-0.005c0.228,0,0.435,0.043,0.622,0.129c0.187,0.086,0.335,0.215,0.445,0.386
		c0.109,0.172,0.164,0.378,0.164,0.618c0,0.124-0.013,0.242-0.037,0.356c-0.052,0.234-0.144,0.442-0.276,0.627
		c-0.133,0.184-0.292,0.339-0.477,0.463c-0.185,0.124-0.383,0.218-0.594,0.28c-0.212,0.063-0.422,0.094-0.632,0.094
		c-0.183,0-0.354-0.024-0.514-0.072c-0.161-0.048-0.303-0.12-0.426-0.215c-0.123-0.096-0.22-0.215-0.29-0.36
		c-0.07-0.145-0.105-0.31-0.105-0.497c0-0.106,0.014-0.227,0.042-0.365c0.058-0.229,0.153-0.434,0.286-0.616
		c0.131-0.181,0.288-0.333,0.468-0.456c0.181-0.123,0.374-0.214,0.578-0.276C29.328,30.329,29.532,30.298,29.738,30.298
		L29.738,30.298z M28.907,31.679c-0.031,0.158-0.047,0.307-0.047,0.445c0,0.204,0.033,0.36,0.1,0.472
		c0.067,0.11,0.152,0.167,0.254,0.167c0.099,0,0.199-0.041,0.297-0.124c0.097-0.082,0.188-0.206,0.271-0.371
		c0.082-0.165,0.149-0.362,0.198-0.59c0.024-0.12,0.036-0.24,0.036-0.362c0-0.194-0.036-0.344-0.112-0.451
		c-0.075-0.106-0.169-0.158-0.284-0.158c-0.095,0-0.191,0.037-0.288,0.11c-0.097,0.075-0.184,0.186-0.26,0.331
		C28.994,31.296,28.94,31.472,28.907,31.679L28.907,31.679z M30.587,29.891l0.184-0.271l-0.812-0.579l-1.052,0.529l0.066,0.322
		l0.869-0.271L30.587,29.891L30.587,29.891z M29.59,34.52c0.007-0.038,0.01-0.067,0.01-0.083c0-0.099-0.034-0.177-0.103-0.231
		c-0.067-0.055-0.152-0.082-0.252-0.082c-0.115,0-0.223,0.035-0.323,0.104c-0.099,0.07-0.163,0.167-0.19,0.293
		c-0.01,0.044-0.015,0.087-0.015,0.129c0,0.11,0.033,0.196,0.1,0.258C28.884,34.969,28.966,35,29.063,35
		c0.076,0,0.15-0.018,0.223-0.055c0.073-0.036,0.137-0.09,0.191-0.163C29.531,34.711,29.569,34.623,29.59,34.52L29.59,34.52z
		 M34.004,32.228l-0.113-0.084c-0.103,0.12-0.209,0.222-0.317,0.303c-0.109,0.081-0.214,0.14-0.318,0.179
		c-0.104,0.039-0.203,0.059-0.294,0.059c-0.124,0-0.235-0.032-0.332-0.095c-0.097-0.064-0.173-0.154-0.228-0.273
		c-0.054-0.119-0.082-0.257-0.082-0.416c0-0.052,0.002-0.091,0.005-0.118c0.032-0.223,0.098-0.413,0.198-0.573
		c0.101-0.16,0.22-0.28,0.357-0.36c0.136-0.081,0.272-0.121,0.407-0.121c0.158,0,0.286,0.056,0.385,0.169
		c0.099,0.114,0.149,0.286,0.149,0.518l0.184-0.049l-0.029-1.169c-0.056,0.076-0.152,0.115-0.288,0.115
		c-0.059,0-0.171-0.012-0.338-0.038c-0.167-0.025-0.3-0.038-0.399-0.038c-0.252,0-0.498,0.057-0.739,0.171
		c-0.241,0.115-0.447,0.274-0.622,0.481c-0.175,0.206-0.295,0.439-0.362,0.699c-0.021,0.107-0.032,0.221-0.032,0.342
		c0,0.22,0.045,0.423,0.136,0.607c0.09,0.185,0.229,0.337,0.415,0.456c0.186,0.119,0.416,0.191,0.69,0.215
		c0.038,0.003,0.094,0.005,0.169,0.005c0.096,0,0.217-0.008,0.362-0.024c0.145-0.015,0.24-0.022,0.286-0.022
		c0.101,0,0.151,0.028,0.151,0.085L34.004,32.228L34.004,32.228z M38.96,30.198c-0.045,0.053-0.118,0.079-0.218,0.079
		c-0.045,0-0.156-0.013-0.333-0.04c-0.177-0.027-0.332-0.039-0.465-0.039c-0.275,0-0.525,0.041-0.746,0.124
		c-0.222,0.083-0.403,0.196-0.541,0.341c-0.139,0.146-0.229,0.307-0.27,0.487c-0.013,0.061-0.019,0.124-0.019,0.187
		c0,0.197,0.065,0.344,0.197,0.439c0.13,0.097,0.285,0.165,0.461,0.206c0.176,0.041,0.354,0.087,0.535,0.135
		c0.181,0.048,0.271,0.118,0.271,0.21c0,0.049-0.017,0.103-0.052,0.163c-0.021,0.041-0.067,0.081-0.135,0.121
		c-0.069,0.041-0.152,0.073-0.248,0.098c-0.096,0.025-0.194,0.038-0.294,0.038c-0.211,0-0.388-0.062-0.531-0.186
		c-0.143-0.125-0.215-0.324-0.215-0.6l-0.184,0.043l-0.146,1.164c0.092-0.059,0.195-0.089,0.311-0.089
		c0.056,0,0.118,0.006,0.183,0.018c0.067,0.011,0.144,0.027,0.232,0.047c0.089,0.02,0.169,0.036,0.241,0.047
		c0.073,0.01,0.146,0.016,0.221,0.016c0.296,0,0.558-0.046,0.785-0.14c0.228-0.093,0.415-0.212,0.559-0.356
		c0.145-0.146,0.252-0.297,0.322-0.454c0.07-0.158,0.104-0.304,0.104-0.437c-0.019-0.186-0.1-0.332-0.238-0.436
		c-0.139-0.104-0.308-0.184-0.505-0.24c-0.198-0.056-0.371-0.106-0.521-0.149c-0.149-0.044-0.223-0.097-0.223-0.16
		c0-0.02,0.003-0.036,0.01-0.05c0.058-0.119,0.195-0.178,0.409-0.178c0.117,0,0.231,0.019,0.346,0.059
		c0.114,0.039,0.209,0.096,0.281,0.17c0.073,0.074,0.11,0.161,0.11,0.261h0.166L38.96,30.198L38.96,30.198z M41.183,30.323
		c-0.205,0-0.41,0.031-0.613,0.093c-0.204,0.062-0.397,0.153-0.578,0.276c-0.181,0.123-0.337,0.275-0.469,0.456
		c-0.132,0.181-0.228,0.386-0.286,0.616c-0.028,0.138-0.042,0.26-0.042,0.365c0,0.187,0.035,0.352,0.106,0.497
		c0.07,0.144,0.167,0.264,0.289,0.36c0.123,0.095,0.265,0.167,0.426,0.215c0.161,0.047,0.332,0.072,0.514,0.072
		c0.209,0,0.42-0.031,0.632-0.094c0.21-0.062,0.409-0.157,0.594-0.28c0.185-0.124,0.344-0.278,0.477-0.463
		c0.132-0.185,0.225-0.394,0.276-0.627c0.024-0.114,0.037-0.232,0.037-0.356c0-0.24-0.055-0.446-0.164-0.618
		c-0.109-0.172-0.258-0.3-0.445-0.386c-0.187-0.086-0.395-0.129-0.622-0.129C41.255,30.319,41.211,30.32,41.183,30.323
		L41.183,30.323z M40.352,31.705c0.033-0.207,0.088-0.383,0.165-0.53c0.076-0.145,0.163-0.256,0.26-0.331
		c0.096-0.073,0.192-0.11,0.287-0.11c0.116,0,0.21,0.053,0.285,0.158c0.075,0.107,0.112,0.257,0.112,0.451
		c0,0.121-0.013,0.242-0.037,0.362c-0.049,0.228-0.115,0.425-0.198,0.59c-0.083,0.165-0.173,0.289-0.271,0.371
		c-0.098,0.083-0.197,0.124-0.297,0.124c-0.101,0-0.186-0.056-0.254-0.167c-0.067-0.112-0.099-0.268-0.099-0.472
		C40.305,32.012,40.321,31.863,40.352,31.705L40.352,31.705z M42.032,29.917l0.184-0.271l-0.813-0.579l-1.052,0.529l0.066,0.322
		l0.869-0.271L42.032,29.917L42.032,29.917z M41.357,28.679l0.127,0.223l0.977-0.406c0.096-0.036,0.166-0.087,0.212-0.152
		c0.045-0.065,0.068-0.139,0.068-0.22c0-0.099-0.033-0.188-0.098-0.266c-0.064-0.077-0.146-0.115-0.242-0.115
		c-0.126,0-0.252,0.072-0.379,0.217L41.357,28.679L41.357,28.679z M44.288,30.744c0.193-0.171,0.391-0.3,0.592-0.385
		c0.201-0.087,0.388-0.13,0.559-0.13c0.188,0,0.338,0.049,0.453,0.147c0.114,0.098,0.171,0.232,0.171,0.403
		c0,0.05-0.005,0.099-0.014,0.147l-0.335,1.615c-0.016,0.087-0.024,0.149-0.024,0.187c0,0.146,0.082,0.22,0.246,0.22l-0.036,0.172
		h-1.62l0.024-0.172c0.08,0,0.143-0.017,0.187-0.052c0.045-0.033,0.076-0.076,0.095-0.127c0.019-0.05,0.039-0.126,0.062-0.228
		l0.264-1.347c0.01-0.049,0.015-0.09,0.015-0.124c0-0.133-0.053-0.199-0.161-0.199c-0.07,0-0.152,0.032-0.244,0.093
		c-0.092,0.062-0.175,0.145-0.249,0.249c-0.075,0.105-0.122,0.215-0.144,0.332l-0.194,0.996c-0.016,0.087-0.024,0.145-0.024,0.173
		c0,0.155,0.076,0.234,0.227,0.234l-0.038,0.172h-1.657l0.038-0.172c0.104,0,0.184-0.016,0.241-0.049
		c0.056-0.033,0.095-0.072,0.116-0.119c0.021-0.047,0.041-0.11,0.058-0.189l0.34-1.664c0.012-0.078,0.019-0.14,0.019-0.182
		c0-0.148-0.083-0.222-0.25-0.222l0.047-0.179l1.161-0.104c0.024,0.032,0.039,0.075,0.049,0.126c0.01,0.052,0.017,0.128,0.021,0.227
		C44.285,30.691,44.288,30.741,44.288,30.744L44.288,30.744z M50.103,30.522l0.042-0.179h-1.761c-0.297,0-0.568,0.057-0.814,0.172
		c-0.246,0.113-0.454,0.266-0.625,0.454c-0.17,0.189-0.3,0.396-0.39,0.62c-0.089,0.226-0.135,0.445-0.135,0.659
		c0,0.294,0.084,0.536,0.249,0.725c0.166,0.19,0.408,0.285,0.729,0.285c0.066,0,0.116-0.002,0.151-0.005
		c0.148-0.016,0.302-0.026,0.462-0.026c0.349,0,0.525,0.069,0.525,0.208c0,0.035-0.013,0.078-0.038,0.13
		c-0.068,0.13-0.189,0.237-0.365,0.32c-0.175,0.084-0.349,0.124-0.523,0.124c-0.024,0.004-0.064,0.005-0.118,0.005
		c-0.2,0-0.38-0.044-0.539-0.132c-0.16-0.087-0.239-0.212-0.239-0.372c0-0.071,0.016-0.144,0.047-0.219l-0.109-0.083l-0.709,0.801
		c0.115,0.109,0.255,0.199,0.42,0.273c0.164,0.073,0.343,0.127,0.538,0.164c0.193,0.036,0.396,0.055,0.605,0.055
		c0.274,0,0.54-0.03,0.799-0.089c0.258-0.058,0.488-0.145,0.69-0.259c0.203-0.113,0.355-0.248,0.461-0.406
		c0.126-0.2,0.189-0.366,0.189-0.5c0-0.066-0.011-0.123-0.033-0.172c-0.021-0.05-0.055-0.107-0.098-0.171
		c-0.043-0.064-0.076-0.116-0.095-0.156c-0.019-0.039-0.029-0.086-0.029-0.138c0-0.01,0.003-0.033,0.01-0.069l0.32-1.579
		c0.021-0.109,0.041-0.189,0.06-0.24c0.019-0.05,0.053-0.092,0.103-0.128C49.932,30.559,50.006,30.535,50.103,30.522L50.103,30.522z
		 M48.729,30.744l-0.374,1.846c-0.013,0.066-0.047,0.117-0.101,0.153c-0.054,0.036-0.118,0.055-0.191,0.055
		c-0.089,0-0.176-0.025-0.263-0.076c-0.086-0.052-0.157-0.129-0.214-0.234c-0.056-0.105-0.085-0.233-0.085-0.384
		c0-0.03,0.002-0.078,0.009-0.143c0.029-0.228,0.101-0.436,0.217-0.624c0.116-0.189,0.254-0.336,0.416-0.443
		c0.161-0.107,0.321-0.16,0.477-0.16C48.642,30.733,48.678,30.737,48.729,30.744L48.729,30.744z M54.399,29.53l-0.36,0.555
		l0.062,0.031c0.047-0.036,0.098-0.059,0.15-0.068c0.053-0.009,0.125-0.012,0.218-0.012h0.599l-0.042,0.203
		c-0.053,0-0.114-0.007-0.183-0.019c-0.053-0.007-0.132-0.01-0.232-0.01c-0.309,0-0.589,0.056-0.84,0.168
		c-0.251,0.112-0.463,0.26-0.637,0.445c-0.173,0.184-0.306,0.388-0.397,0.61c-0.091,0.223-0.137,0.44-0.137,0.653
		c0,0.143,0.021,0.277,0.064,0.401c0.041,0.124,0.107,0.234,0.194,0.33c0.087,0.096,0.197,0.171,0.328,0.223
		c0.131,0.053,0.284,0.08,0.458,0.08h2.129l0.028-0.172c-0.135,0-0.202-0.065-0.202-0.194c0-0.052,0.012-0.123,0.038-0.213
		l0.496-2.475c0.045,0.016,0.075,0.032,0.085,0.05l0.386-0.565l-0.095-0.021c-0.03,0.035-0.066,0.058-0.103,0.067
		c-0.038,0.009-0.098,0.013-0.179,0.013l0.061-0.346l-1.421,0.085l-0.042,0.183c0.104,0,0.178,0.022,0.223,0.07h-0.387
		c-0.072,0-0.126-0.004-0.16-0.012C54.464,29.581,54.431,29.562,54.399,29.53L54.399,29.53z M54.942,30.654l-0.379,1.797
		c-0.013,0.076-0.054,0.136-0.121,0.181c-0.068,0.044-0.145,0.067-0.232,0.067c-0.136,0-0.257-0.055-0.36-0.166
		c-0.104-0.11-0.155-0.274-0.155-0.492c0-0.077,0.006-0.15,0.02-0.218c0.047-0.225,0.13-0.427,0.25-0.605
		c0.119-0.178,0.264-0.317,0.433-0.415C54.568,30.704,54.75,30.654,54.942,30.654L54.942,30.654z M56.18,31.739
		c0.058-0.229,0.153-0.434,0.286-0.616c0.132-0.181,0.288-0.333,0.469-0.456c0.181-0.122,0.374-0.214,0.578-0.276
		s0.408-0.093,0.613-0.093c0.029-0.003,0.073-0.005,0.132-0.005c0.227,0,0.435,0.043,0.622,0.129c0.163,0.075,0.296,0.182,0.4,0.321
		l0.7-0.96h0.61l-0.576,0.793c-0.019,0.034-0.028,0.07-0.028,0.109c0,0.03,0.009,0.055,0.028,0.073h-0.723
		c0.012,0.016,0.023,0.033,0.034,0.05c0.109,0.172,0.165,0.378,0.165,0.618c0,0.124-0.013,0.242-0.038,0.356
		c-0.051,0.234-0.144,0.442-0.276,0.627c-0.133,0.184-0.292,0.339-0.477,0.463c-0.184,0.124-0.383,0.218-0.594,0.28
		c-0.211,0.063-0.422,0.094-0.632,0.094c-0.183,0-0.354-0.024-0.514-0.072c-0.161-0.048-0.303-0.12-0.427-0.215
		c-0.123-0.096-0.22-0.215-0.289-0.36c-0.07-0.145-0.106-0.31-0.106-0.496C56.138,31.998,56.152,31.876,56.18,31.739L56.18,31.739z
		 M57.295,31.679c-0.032,0.158-0.047,0.308-0.047,0.446c0,0.203,0.033,0.36,0.1,0.471c0.067,0.11,0.152,0.167,0.253,0.167
		c0.1,0,0.199-0.041,0.297-0.124c0.098-0.082,0.188-0.206,0.271-0.371c0.083-0.165,0.149-0.362,0.198-0.59
		c0.024-0.119,0.037-0.24,0.037-0.362c0-0.194-0.037-0.344-0.112-0.45c-0.075-0.107-0.169-0.16-0.285-0.16
		c-0.095,0-0.19,0.037-0.287,0.112c-0.098,0.075-0.184,0.184-0.26,0.33C57.383,31.296,57.328,31.472,57.295,31.679L57.295,31.679z
		 M61.672,30.744c0-0.003-0.002-0.053-0.006-0.152c-0.005-0.099-0.012-0.175-0.021-0.227c-0.01-0.052-0.025-0.094-0.049-0.126
		l-1.161,0.104l-0.047,0.179c0.167,0,0.251,0.074,0.251,0.222c0,0.042-0.007,0.104-0.019,0.182l-0.34,1.664
		c-0.017,0.079-0.037,0.142-0.058,0.189c-0.021,0.047-0.06,0.086-0.116,0.119c-0.056,0.033-0.137,0.049-0.241,0.049l-0.038,0.172
		h1.657l0.038-0.172c-0.151,0-0.228-0.078-0.228-0.234c0-0.028,0.009-0.085,0.025-0.173l0.194-0.996
		c0.022-0.116,0.069-0.227,0.144-0.332c0.074-0.104,0.157-0.187,0.249-0.249c0.092-0.061,0.174-0.093,0.244-0.093
		c0.107,0,0.161,0.066,0.161,0.199c0,0.033-0.005,0.075-0.015,0.124l-0.265,1.347c-0.022,0.101-0.043,0.177-0.062,0.228
		c-0.019,0.05-0.05,0.093-0.095,0.127c-0.044,0.035-0.107,0.052-0.187,0.052l-0.023,0.172h1.619l0.036-0.172
		c-0.164,0-0.246-0.073-0.246-0.22c0-0.038,0.009-0.099,0.025-0.187l0.335-1.615c0.01-0.048,0.015-0.097,0.015-0.147
		c0-0.172-0.058-0.305-0.172-0.403c-0.114-0.098-0.265-0.147-0.453-0.147c-0.172,0-0.358,0.043-0.559,0.13
		C62.064,30.444,61.866,30.572,61.672,30.744L61.672,30.744z M70.591,30.522c-0.096,0.013-0.171,0.038-0.22,0.072
		c-0.05,0.036-0.084,0.078-0.103,0.128c-0.019,0.05-0.039,0.13-0.06,0.24l-0.32,1.579c-0.007,0.036-0.01,0.059-0.01,0.069
		c0,0.053,0.01,0.099,0.029,0.138c0.019,0.04,0.052,0.092,0.095,0.156c0.044,0.064,0.077,0.121,0.098,0.171
		c0.022,0.049,0.033,0.107,0.033,0.172c0,0.133-0.062,0.3-0.189,0.5c-0.106,0.158-0.258,0.293-0.461,0.406
		c-0.202,0.114-0.432,0.201-0.69,0.259c-0.259,0.059-0.525,0.089-0.8,0.089c-0.209,0-0.411-0.018-0.605-0.055
		c-0.194-0.036-0.374-0.09-0.537-0.164c-0.165-0.074-0.305-0.164-0.42-0.273l0.709-0.801l0.109,0.083
		c-0.032,0.075-0.047,0.148-0.047,0.219c0,0.16,0.079,0.285,0.239,0.372c0.16,0.089,0.34,0.132,0.539,0.132
		c0.054,0,0.093-0.002,0.118-0.005c0.173,0,0.348-0.041,0.523-0.124c0.175-0.083,0.297-0.189,0.365-0.32
		c0.025-0.052,0.038-0.095,0.038-0.13c0-0.139-0.175-0.208-0.525-0.208c-0.16,0-0.314,0.01-0.462,0.026
		c-0.035,0.003-0.085,0.005-0.151,0.005c-0.321,0-0.563-0.095-0.729-0.285c-0.165-0.189-0.249-0.431-0.249-0.725
		c0-0.214,0.045-0.434,0.135-0.659c0.09-0.224,0.22-0.431,0.39-0.62c0.171-0.189,0.379-0.341,0.625-0.454
		c0.246-0.115,0.517-0.172,0.814-0.172h1.761L70.591,30.522L70.591,30.522z M69.218,30.744c-0.051-0.007-0.087-0.01-0.109-0.01
		c-0.156,0-0.316,0.053-0.477,0.16c-0.162,0.107-0.3,0.255-0.416,0.443c-0.115,0.189-0.188,0.397-0.217,0.624
		c-0.006,0.065-0.008,0.112-0.008,0.143c0,0.151,0.029,0.279,0.085,0.384c0.057,0.105,0.128,0.183,0.214,0.234
		c0.087,0.05,0.173,0.076,0.263,0.076c0.072,0,0.137-0.018,0.191-0.055c0.054-0.036,0.088-0.087,0.101-0.153L69.218,30.744
		L69.218,30.744z M71.313,29.437c-0.009,0.042-0.014,0.083-0.014,0.118c0,0.132,0.045,0.234,0.134,0.307
		c0.088,0.073,0.198,0.109,0.329,0.109c0.15,0,0.29-0.047,0.42-0.141c0.13-0.095,0.212-0.225,0.245-0.392
		c0.01-0.04,0.015-0.077,0.015-0.111c0-0.087-0.024-0.164-0.072-0.228c-0.047-0.066-0.11-0.114-0.189-0.147
		c-0.079-0.033-0.161-0.05-0.249-0.05c-0.143,0-0.278,0.049-0.403,0.146C71.404,29.144,71.331,29.274,71.313,29.437z"/>
	<path class="st1" d="M85.085,13.886L77.812,3.46l-0.74-0.679h7.168l4.858,7.882l0.391-0.319l2.937-4.364
		c0.721-1.072,0.624-2.318-0.404-3.199h6.773l-7.829,11.103l-0.004,8.055l1.38,1.641h-8.415l1.187-1.616
		C85.113,19.279,85.015,16.563,85.085,13.886L85.085,13.886z M65.338,2.781c0.581,0.797,0.753,1.077,0.818,1.787
		c0.045,0.494,0.012,0.775-0.147,1.237L60.6,21.489c-0.252,0.644-0.776,1.357-1.538,2.049h5.903
		c-0.438-0.388-0.718-0.851-0.82-1.402c-0.093-0.503-0.089-0.692,0.02-1.177l1.2-3.725h6.869l1.07,2.871
		c0.112,0.3,0.176,0.58,0.204,0.902c0.094,1.072-0.25,1.954-1.101,2.578h9.254c-0.908-0.809-1.741-1.655-2.212-2.682l-6.756-18.12
		C70.744,2.781,67.288,2.781,65.338,2.781L65.338,2.781z M71.227,14.532h-4.914l2.382-6.789L71.227,14.532L71.227,14.532z
		 M46.626,2.799l4.65-0.018h2.214h3.433c3.106,0,5.646,2.541,5.646,5.646v0.696c0,3.105-2.542,5.474-5.646,5.568l-2.575,0.078
		c2.071-0.952,2.937-3.358,2.678-5.524c-0.207-1.739-1.103-3.411-2.595-3.442l-0.941-0.02v15.476c0,0.301,0.052,0.427,0.211,0.691
		c0.252,0.421,0.589,0.842,0.937,1.263c0.09,0.109,0.181,0.218,0.272,0.328h-8.009c0.121-0.147,0.239-0.296,0.351-0.45
		c0.242-0.331,0.458-0.682,0.619-1.073c0.104-0.252,0.155-0.438,0.155-0.706V4.689C47.993,3.822,47.132,3.33,46.626,2.799z"/>
	<path class="st0" d="M3.206,2.689h6.465l5.425,15.559L19.699,5.36c0.084-0.501,0.012-0.662-0.18-1.094
		c-0.255-0.523-0.527-1.031-0.782-1.554h4.829c-0.286,1.052-0.709,2.206-1.074,3.267l-6.235,18.12
		c-1.702-0.34-3.599-1.013-5.067-2.404c-1.105-1.047-1.497-2.237-2.042-3.655L3.934,4.232C3.729,3.687,3.475,3.199,3.206,2.689
		L3.206,2.689z M29.018,9.98v11.117c0,0.451,0.104,0.532,0.382,0.894l1.274,1.66h-6.086c0.343-0.523,0.685-1.046,1.028-1.569
		c0.265-0.432,0.379-0.578,0.379-1.079V5.471l-1.711-2.782h6.306l10.21,13.151V5.36c0-0.501-0.099-0.662-0.364-1.094
		c-0.343-0.523-0.7-1.031-1.043-1.554h6.08l-1.268,1.66c-0.278,0.362-0.382,0.443-0.382,0.894v18.917
		c-2.302-0.303-4.447-0.866-6.354-3.304L29.018,9.98z"/>
</g>
</svg>
