{"asset":{"version":"2.0","generator":"babylon.js glTF exporter for 3dsmax 2021 v20201207.3"},"scene":0,"scenes":[{"nodes":[0,1,2,3]}],"nodes":[{"mesh":0,"translation":[-5.34946046E-11,0.0,-9.46039358E-11],"rotation":[0.0,0.05096461,0.0,0.9987005],"name":"Plane001"},{"mesh":1,"translation":[-5.34946046E-11,0.0,-9.46039358E-11],"rotation":[0.0,0.05096461,0.0,0.9987005],"name":"Plane002"},{"mesh":2,"translation":[-5.34946046E-11,0.0,-9.46039358E-11],"rotation":[0.0,0.05096461,0.0,0.9987005],"name":"Plane003"},{"name":"Default light"}],"meshes":[{"primitives":[{"attributes":{"POSITION":1,"NORMAL":2,"TEXCOORD_0":3},"indices":0}],"name":"Plane001"},{"primitives":[{"attributes":{"POSITION":5,"NORMAL":6,"TEXCOORD_0":7},"indices":4,"material":0}],"name":"Plane002"},{"primitives":[{"attributes":{"POSITION":9,"NORMAL":10,"TEXCOORD_0":11},"indices":8,"material":1}],"name":"Plane003"}],"accessors":[{"bufferView":0,"componentType":5125,"count":86040,"type":"SCALAR","name":"accessorIndices"},{"bufferView":1,"componentType":5126,"count":86040,"max":[0.0148499971,0.00315390271,0.0105000045],"min":[-0.014849999,-0.00315390271,-0.0105000036],"type":"VEC3","name":"accessorPositions"},{"bufferView":1,"byteOffset":1032480,"componentType":5126,"count":86040,"type":"VEC3","name":"accessorNormals"},{"bufferView":2,"componentType":5126,"count":86040,"type":"VEC2","name":"accessorUVs"},{"bufferView":0,"byteOffset":344160,"componentType":5125,"count":86040,"type":"SCALAR","name":"accessorIndices"},{"bufferView":1,"byteOffset":2064960,"componentType":5126,"count":86040,"max":[0.0148499971,0.00314732478,0.0105000045],"min":[-0.014849999,-0.00314692128,-0.0105000036],"type":"VEC3","name":"accessorPositions"},{"bufferView":1,"byteOffset":3097440,"componentType":5126,"count":86040,"type":"VEC3","name":"accessorNormals"},{"bufferView":2,"byteOffset":688320,"componentType":5126,"count":86040,"type":"VEC2","name":"accessorUVs"},{"bufferView":0,"byteOffset":688320,"componentType":5125,"count":86040,"type":"SCALAR","name":"accessorIndices"},{"bufferView":1,"byteOffset":4129920,"componentType":5126,"count":86040,"max":[0.0148499971,0.00315390271,0.0105000045],"min":[-0.014849999,-0.00315390271,-0.0105000036],"type":"VEC3","name":"accessorPositions"},{"bufferView":1,"byteOffset":5162400,"componentType":5126,"count":86040,"type":"VEC3","name":"accessorNormals"},{"bufferView":2,"byteOffset":1376640,"componentType":5126,"count":86040,"type":"VEC2","name":"accessorUVs"}],"bufferViews":[{"buffer":0,"byteLength":1032480,"name":"bufferViewScalar"},{"buffer":0,"byteOffset":1032480,"byteLength":6194880,"byteStride":12,"name":"bufferViewFloatVec3"},{"buffer":0,"byteOffset":7227360,"byteLength":2064960,"byteStride":8,"name":"bufferViewFloatVec2"}],"buffers":[{"uri":"scene.bin","byteLength":9292320}],"materials":[{"pbrMetallicRoughness":{"baseColorTexture":{"index":0},"metallicFactor":0.0,"roughnessFactor":0.450053632},"name":"letterhead Mat tren"},{"pbrMetallicRoughness":{"baseColorTexture":{"index":1},"metallicFactor":0.0,"roughnessFactor":0.450053632},"name":"letterhead Mat sau"}],"textures":[{"sampler":0,"source":0,"name":"letterhead Mat tren.png"},{"sampler":0,"source":1,"name":"letterhead Mat sau.png"}],"images":[{"uri":"./letterhead Mat tren.png"},{"uri":"./letterhead Mat sau.png"}],"samplers":[{"magFilter":9729,"minFilter":9987}]}