{
  "accessors": [
    {
      "bufferView": 2,
      "componentType": 5126,
      "count": 65532,
      "max": [
        2.6492199897766113,
        2.6912150382995605,
        6.960151195526123
      ],
      "min": [
        -1.9573990106582642,
        -8.7451801300048828,
        0.2763809859752655
      ],
      "type": "VEC3"
    },
    {
      "bufferView": 2,
      "byteOffset": 786384,
      "componentType": 5126,
      "count": 65532,
      "max": [
        0.99999690055847168,
        0.99999654293060303,
        0.99999916553497314
      ],
      "min": [
        -0.99999868869781494,
        -0.9999692440032959,
        -0.99999833106994629
      ],
      "type": "VEC3"
    },
    {
      "bufferView": 3,
      "componentType": 5126,
      "count": 65532,
      "max": [
        0.99997830390930176,
        0.9999997615814209,
        0.99998873472213745,
        1
      ],
      "min": [
        -0.99978196620941162,
        -0.99987781047821045,
        -0.99991965293884277,
        -1
      ],
      "type": "VEC4"
    },
    {
      "bufferView": 1,
      "componentType": 5126,
      "count": 65532,
      "max": [
        0.9999849796295166,
        0.99135297536849976
      ],
      "min": [
        1.4000000192027073e-05,
        3.7000001611886546e-05
      ],
      "type": "VEC2"
    },
    {
      "bufferView": 0,
      "componentType": 5125,
      "count": 368523,
      "max": [
        65531
      ],
      "min": [
        0
      ],
      "type": "SCALAR"
    },
    {
      "bufferView": 2,
      "byteOffset": 1572768,
      "componentType": 5126,
      "count": 25786,
      "max": [
        2.1236550807952881,
        2.6295568943023682,
        7.0041742324829102
      ],
      "min": [
        -1.751520037651062,
        -5.1364789009094238,
        0.91595602035522461
      ],
      "type": "VEC3"
    },
    {
      "bufferView": 2,
      "byteOffset": 1882200,
      "componentType": 5126,
      "count": 25786,
      "max": [
        0.99998223781585693,
        0.99922740459442139,
        0.99998092651367188
      ],
      "min": [
        -0.9999537467956543,
        -0.9999091625213623,
        -0.99970442056655884
      ],
      "type": "VEC3"
    },
    {
      "bufferView": 3,
      "byteOffset": 1048512,
      "componentType": 5126,
      "count": 25786,
      "max": [
        0.99993836879730225,
        0.99999445676803589,
        0.99996256828308105,
        1
      ],
      "min": [
        -0.99999213218688965,
        -0.99997812509536743,
        -0.9999929666519165,
        -1
      ],
      "type": "VEC4"
    },
    {
      "bufferView": 1,
      "byteOffset": 524256,
      "componentType": 5126,
      "count": 25786,
      "max": [
        0.99995201826095581,
        0.98725998401641846
      ],
      "min": [
        9.0000003183376975e-06,
        0.00054799998179078102
      ],
      "type": "VEC2"
    },
    {
      "bufferView": 0,
      "byteOffset": 1474092,
      "componentType": 5125,
      "count": 131823,
      "max": [
        25785
      ],
      "min": [
        0
      ],
      "type": "SCALAR"
    }
  ],
  "asset": {
    "extras": {
      "author": "thesidekick (https://sketchfab.com/thesidekick)",
      "license": "CC-BY-4.0 (http://creativecommons.org/licenses/by/4.0/)",
      "source": "https://sketchfab.com/3d-models/used-blue-converse-5bd53d9d429249529acce4cab6eae745",
      "title": "Used blue Converse"
    },
    "generator": "Sketchfab-7.44.0",
    "version": "2.0"
  },
  "bufferViews": [
    {
      "buffer": 0,
      "byteLength": 2001384,
      "byteOffset": 0,
      "name": "floatBufferViews",
      "target": 34963
    },
    {
      "buffer": 0,
      "byteLength": 730544,
      "byteOffset": 2001384,
      "byteStride": 8,
      "name": "floatBufferViews",
      "target": 34962
    },
    {
      "buffer": 0,
      "byteLength": 2191632,
      "byteOffset": 2731928,
      "byteStride": 12,
      "name": "floatBufferViews",
      "target": 34962
    },
    {
      "buffer": 0,
      "byteLength": 1461088,
      "byteOffset": 4923560,
      "byteStride": 16,
      "name": "floatBufferViews",
      "target": 34962
    }
  ],
  "buffers": [
    {
      "byteLength": 6384648,
      "uri": "scene.bin"
    }
  ],
  "images": [
    {
      "uri": "textures/Blue_converse_retopo_scuplted_baseColor.jpeg"
    },
    {
      "uri": "textures/Blue_converse_retopo_scuplted_metallicRoughness.png"
    },
    {
      "uri": "textures/Blue_converse_retopo_scuplted_normal.png"
    }
  ],
  "materials": [
    {
      "doubleSided": true,
      "emissiveFactor": [
        0,
        0,
        0
      ],
      "name": "Blue_converse_retopo_scuplted",
      "normalTexture": {
        "index": 2,
        "scale": 0.40170454545454548,
        "texCoord": 0
      },
      "occlusionTexture": {
        "index": 1,
        "strength": 1,
        "texCoord": 0
      },
      "pbrMetallicRoughness": {
        "baseColorFactor": [
          1,
          1,
          1,
          1
        ],
        "baseColorTexture": {
          "index": 0,
          "texCoord": 0
        },
        "metallicFactor": 0,
        "metallicRoughnessTexture": {
          "index": 1,
          "texCoord": 0
        },
        "roughnessFactor": 0.7956439393939394
      }
    }
  ],
  "meshes": [
    {
      "primitives": [
        {
          "attributes": {
            "NORMAL": 1,
            "POSITION": 0,
            "TANGENT": 2,
            "TEXCOORD_0": 3
          },
          "indices": 4,
          "material": 0,
          "mode": 4
        }
      ]
    },
    {
      "primitives": [
        {
          "attributes": {
            "NORMAL": 6,
            "POSITION": 5,
            "TANGENT": 7,
            "TEXCOORD_0": 8
          },
          "indices": 9,
          "material": 0,
          "mode": 4
        }
      ]
    }
  ],
  "nodes": [
    {
      "children": [
        1
      ],
      "name": "RootNode (gltf orientation matrix)",
      "rotation": [
        -0.70710678118654746,
        -0,
        -0,
        0.70710678118654757
      ]
    },
    {
      "children": [
        2
      ],
      "name": "RootNode (model correction matrix)"
    },
    {
      "children": [
        3,
        4
      ],
      "name": "Blue_converse_retopo_SF.obj.cleaner.materialmerger.gles"
    },
    {
      "mesh": 0,
      "name": ""
    },
    {
      "mesh": 1,
      "name": ""
    }
  ],
  "samplers": [
    {
      "magFilter": 9729,
      "minFilter": 9987,
      "wrapS": 10497,
      "wrapT": 10497
    }
  ],
  "scene": 0,
  "scenes": [
    {
      "name": "OSG_Scene",
      "nodes": [
        0
      ]
    }
  ],
  "textures": [
    {
      "sampler": 0,
      "source": 0
    },
    {
      "sampler": 0,
      "source": 1
    },
    {
      "sampler": 0,
      "source": 2
    }
  ]
}

