{"asset":{"version":"2.0","generator":"babylon.js glTF exporter for 3dsmax 2021 v20201207.3"},"scene":0,"scenes":[{"nodes":[0,1,2,3,4]}],"nodes":[{"mesh":0,"translation":[-3.12909961,0.0254277028,0.12697576],"rotation":[0.0775906,-0.290026516,-0.007883285,0.953835547],"scale":[1.0,1.00000024,1.0],"name":"MT002"},{"mesh":1,"translation":[-3.12909961,0.0254277028,0.12697576],"rotation":[0.07759061,-0.290026665,-0.007883293,0.9538355],"scale":[0.99999994,1.00000012,0.99999994],"name":"Mat sau001"},{"translation":[-3.12909961,0.0254277028,0.12697576],"rotation":[0.07759061,-0.290026665,-0.007883293,0.9538355],"scale":[0.99999994,1.00000012,0.99999994],"name":"Mat truoc001"},{"mesh":2,"translation":[-3.12909961,0.0254277028,0.12697576],"rotation":[0.07759061,-0.2900266,-0.007883302,0.9538355],"scale":[0.99999994,1.0,1.0],"name":"Plane005"},{"name":"Default light"}],"meshes":[{"primitives":[{"attributes":{"POSITION":1,"NORMAL":2,"TEXCOORD_0":3},"indices":0,"material":0}],"name":"MT002"},{"primitives":[{"attributes":{"POSITION":5,"NORMAL":6,"TEXCOORD_0":7},"indices":4,"material":1}],"name":"Mat sau001"},{"primitives":[{"attributes":{"POSITION":9,"NORMAL":10,"TEXCOORD_0":11},"indices":8,"material":2}],"name":"Plane005"}],"accessors":[{"bufferView":0,"componentType":5123,"count":11808,"type":"SCALAR","name":"accessorIndices"},{"bufferView":1,"componentType":5126,"count":11808,"max":[0.1305441,0.00668911543,0.205554962],"min":[-0.0968256146,-0.0527144521,-0.154497191],"type":"VEC3","name":"accessorPositions"},{"bufferView":1,"byteOffset":141696,"componentType":5126,"count":11808,"type":"VEC3","name":"accessorNormals"},{"bufferView":2,"componentType":5126,"count":11808,"type":"VEC2","name":"accessorUVs"},{"bufferView":0,"byteOffset":23616,"componentType":5123,"count":9288,"type":"SCALAR","name":"accessorIndices"},{"bufferView":1,"byteOffset":283392,"componentType":5126,"count":9288,"max":[0.130060211,0.00684461975,0.205138028],"min":[-0.0969948545,-0.0526298322,-0.151900738],"type":"VEC3","name":"accessorPositions"},{"bufferView":1,"byteOffset":394848,"componentType":5126,"count":9288,"type":"VEC3","name":"accessorNormals"},{"bufferView":2,"byteOffset":94464,"componentType":5126,"count":9288,"type":"VEC2","name":"accessorUVs"},{"bufferView":0,"byteOffset":42192,"componentType":5123,"count":22512,"type":"SCALAR","name":"accessorIndices"},{"bufferView":1,"byteOffset":506304,"componentType":5126,"count":22512,"max":[0.130563691,0.007023966,0.205604911],"min":[-0.0970817,-0.0530544072,-0.154494688],"type":"VEC3","name":"accessorPositions"},{"bufferView":1,"byteOffset":776448,"componentType":5126,"count":22512,"type":"VEC3","name":"accessorNormals"},{"bufferView":2,"byteOffset":168768,"componentType":5126,"count":22512,"type":"VEC2","name":"accessorUVs"}],"bufferViews":[{"buffer":0,"byteLength":87216,"name":"bufferViewScalar"},{"buffer":0,"byteOffset":87216,"byteLength":1046592,"byteStride":12,"name":"bufferViewFloatVec3"},{"buffer":0,"byteOffset":1133808,"byteLength":348864,"byteStride":8,"name":"bufferViewFloatVec2"}],"buffers":[{"uri":"model.bin","byteLength":1482672}],"materials":[{"pbrMetallicRoughness":{"baseColorTexture":{"index":0},"metallicFactor":0.0,"roughnessFactor":0.7022211},"name":"Mat truoc 01 logo"},{"pbrMetallicRoughness":{"baseColorTexture":{"index":1},"metallicFactor":0.0,"roughnessFactor":0.7022211},"name":"Mat sau 02 hoa tiet"},{"pbrMetallicRoughness":{"baseColorFactor":[0.90196085,0.90196085,0.90196085,1.0],"metallicFactor":0.0,"roughnessFactor":0.7022211},"name":"letterhead"}],"textures":[{"sampler":0,"source":0,"name":"Mat truoc 01 logo.png"},{"sampler":0,"source":1,"name":"Mat sau 02 hoa tiet.png"}],"images":[{"uri":"textures/Mat truoc 01 logo.png"},{"uri":"textures/Mat sau 02 hoa tiet.png"}],"samplers":[{"magFilter":9729,"minFilter":9987}]}