<?xml version="1.0" encoding="utf-8"?>
<!-- Generator: Adobe Illustrator 16.0.0, SVG Export Plug-In . SVG Version: 6.00 Build 0)  -->
<!DOCTYPE svg PUBLIC "-//W3C//DTD SVG 1.0//EN" "http://www.w3.org/TR/2001/REC-SVG-20010904/DTD/svg10.dtd" [
	<!ENTITY ns_flows "http://ns.adobe.com/Flows/1.0/">
	<!ENTITY ns_extend "http://ns.adobe.com/Extensibility/1.0/">
	<!ENTITY ns_ai "http://ns.adobe.com/AdobeIllustrator/10.0/">
	<!ENTITY ns_graphs "http://ns.adobe.com/Graphs/1.0/">
]>

<svg xmlns="http://www.w3.org/2000/svg" data-name="Layer 1" viewBox="0 0 64 64"><path fill="#bbdef9" d="M51,45l7.53,5.6a2,2,0,0,0,1.19.4H62a1,1,0,0,0,1-1V22a1,1,0,0,0-1-1H59.73a2,2,0,0,0-1.19.4L51,27Z"></path><path fill="#c2cde7" d="M43,9H24a4,4,0,0,0-2.93,1.28L16.72,15l-.66.72A4,4,0,0,1,13.12,17H3a2,2,0,0,0-2,2V51a2,2,0,0,0,2,2H29.79c.79,0,3.56.23,4.22.67l4.49,3a2,2,0,0,0,1.11.34H45a2,2,0,0,0,2-2V13A4,4,0,0,0,43,9Zm-.59,7.41A2,2,0,0,1,41,17H26a2,2,0,0,1-2-2,2,2,0,0,1,2-2H41a2,2,0,0,1,2,2A2,2,0,0,1,42.41,16.41Z"></path><path fill="#acb7d0" d="M46,57H39l-7-4H2a1,1,0,0,1-1-1H1a4,4,0,0,1,4-4H43a4,4,0,0,1,4,4h0C47,52.55,46.55,57,46,57Z"></path><path fill="#dae2ef" d="M47,13v2H43a2,2,0,0,0-2-2H26a2,2,0,0,0-2,2H16.72l4.36-4.72A4,4,0,0,1,24,9H43A4,4,0,0,1,47,13Z"></path><rect width="18" height="12" x="7" y="23" fill="#c5e4fa" rx="1" ry="1"></rect><rect width="5" height="28" x="59" y="22" fill="#d2edff" rx="2.5" ry="2.5"></rect><path fill="#e3f2ff" d="M25 26v8a1 1 0 0 1-1 1H16zM24 23L12 35H8a1 1 0 0 1-1-1L18 23zM14 23L7 30 7 25 9 23 14 23z"></path><path fill="#b5c4e0" d="M17.5,57H12a1,1,0,0,1-1-1V53H21l-2.7,3.6A1,1,0,0,1,17.5,57Z"></path><path fill="#acb7d0" d="M47 27H51V45H47z"></path><path fill="#f9e3ae" d="M38 23A3 3 0 1 0 38 29A3 3 0 1 0 38 23Z"></path><path fill="#8d6c9f" d="M62,20H59.73a3,3,0,0,0-1.79.59L50.67,26H48V13a5,5,0,0,0-5-5H24a5,5,0,0,0-3.67,1.61l-5,5.43a3,3,0,0,1-2.2,1H3a3,3,0,0,0-3,3V51a3,3,0,0,0,3,3h7v2a2,2,0,0,0,2,2h5.5a2,2,0,0,0,1.6-.8L21.5,54h8.29a14.57,14.57,0,0,1,3.66.5l4.49,3a3,3,0,0,0,1.66.5H45a3,3,0,0,0,3-3V46h2.67l7.27,5.41a3,3,0,0,0,1.79.59H62a2,2,0,0,0,2-2V22A2,2,0,0,0,62,20ZM17.5,56H12V54h7ZM46,55a1,1,0,0,1-1,1H39.61a1,1,0,0,1-.55-.17l-4.49-3c-1.11-.74-4.74-.84-4.77-.84H3a1,1,0,0,1-1-1V19a1,1,0,0,1,1-1H13.12a5,5,0,0,0,3.67-1.61l5-5.43A3,3,0,0,1,24,10H43a3,3,0,0,1,3,3V55Zm2-27h2V44H48ZM62,50H59.73a1,1,0,0,1-.6-.2L52,44.5v-17l7.13-5.3a1,1,0,0,1,.6-.2H62Z"></path><path fill="#8d6c9f" d="M59 25a1 1 0 0 0-1 1V46a1 1 0 0 0 2 0V26A1 1 0 0 0 59 25zM24 22H8a2 2 0 0 0-2 2V34a2 2 0 0 0 2 2H24a2 2 0 0 0 2-2V24A2 2 0 0 0 24 22zM8 34V24H24V34zM14 46.06a1 1 0 0 0-1 1v2a1 1 0 0 0 2 0v-2A1 1 0 0 0 14 46.06zM9 46.06a1 1 0 0 0-1 1v2a1 1 0 0 0 2 0v-2A1 1 0 0 0 9 46.06zM4 46.06a1 1 0 0 0-1 1v2a1 1 0 0 0 2 0v-2A1 1 0 0 0 4 46.06zM19 46.06a1 1 0 0 0-1 1v2a1 1 0 0 0 2 0v-2A1 1 0 0 0 19 46.06zM24 46.06a1 1 0 0 0-1 1v2a1 1 0 0 0 2 0v-2A1 1 0 0 0 24 46.06zM29 46.06a1 1 0 0 0-1 1v2a1 1 0 0 0 2 0v-2A1 1 0 0 0 29 46.06zM34 46.06a1 1 0 0 0-1 1v2a1 1 0 0 0 2 0v-2A1 1 0 0 0 34 46.06zM39 46.06a1 1 0 0 0-1 1v2a1 1 0 0 0 2 0v-2A1 1 0 0 0 39 46.06zM44 46.06a1 1 0 0 0-1 1v2a1 1 0 0 0 2 0v-2A1 1 0 0 0 44 46.06zM44 15a3 3 0 0 0-3-3H26a3 3 0 0 0 0 6H41A3 3 0 0 0 44 15zM25 15a1 1 0 0 1 1-1H41a1 1 0 0 1 0 2H26A1 1 0 0 1 25 15zM38 22a4 4 0 1 0 4 4A4 4 0 0 0 38 22zm0 6a2 2 0 1 1 2-2A2 2 0 0 1 38 28zM25 38H7a1 1 0 0 0 0 2H25a1 1 0 0 0 0-2z"></path></svg>