<?xml version="1.0" encoding="utf-8"?>
<!-- Generator: Adobe Illustrator 16.0.0, SVG Export Plug-In . SVG Version: 6.00 Build 0)  -->
<!DOCTYPE svg PUBLIC "-//W3C//DTD SVG 1.1//EN" "http://www.w3.org/Graphics/SVG/1.1/DTD/svg11.dtd">
<svg xmlns="http://www.w3.org/2000/svg" viewBox="0 0 40 40"><path fill="#dff0fe" d="M8.323 36.549L2.489 25.852 1.513 15.117 7.332 5.419 19.5 1.525 31.668 5.419 37.48 15.125 36.511 25.852 30.677 36.549 19.5 38.493z"></path><path fill="#4788c7" d="M19.5,2.05l11.836,3.787l5.632,9.405l-0.945,10.461l-5.67,10.394L19.5,37.985L8.647,36.097 l-5.67-10.394L2.025,15.235l5.638-9.397L19.5,2.05 M19.5,1L7,5L1,15l1,11l6,11l11.5,2L31,37l6-11l0.993-10.992L32,5L19.5,1L19.5,1 z"></path><path fill="#dff0fe" d="M9.428 24.226L12.609 11.5 26.391 11.5 29.572 24.226 19.5 30.729z"></path><path fill="#4788c7" d="M26,12l3,12l-9.5,6.133L10,24l3-12H26 M26.781,11H26H13h-0.781l-0.189,0.757l-3,12l-0.174,0.694 l0.601,0.388l9.5,6.133l0.542,0.35l0.542-0.35l9.5-6.133l0.601-0.388l-0.174-0.694l-3-12L26.781,11L26.781,11z"></path><path fill="#98ccfd" d="M19.5 30.729L29.572 24.226 29.509 23.975 36.512 25.847 30.677 36.549 19.5 38.493z"></path><path fill="#4788c7" d="M29.914,24.6l5.857,1.566l-5.417,9.931L20,37.898v-6.897l0.042-0.027l9.5-6.133L29.914,24.6 M28.817,23.272L29,24l-9.5,6.133L19,29.811v9.103L19.5,39L31,37l6-11l0.048-0.527L28.817,23.272L28.817,23.272z"></path><path fill="#b6dcfe" d="M29.567 24.207L26.431 11.664 31.645 5.411 31.668 5.419 37.48 15.125 36.511 25.852 36.433 25.996z"></path><path fill="#4788c7" d="M31.588,6.259l5.38,8.983L36.052,25.38l-6.072-1.583l-0.01-0.04l-2.992-11.969L31.588,6.259 M31.476,4.832L25.5,12H26l3,12l-0.636,0.41l8.32,2.169L37,26l0.993-10.992L32,5L31.476,4.832L31.476,4.832z"></path><g><path fill="#b6dcfe" d="M8.323 36.549L2.491 25.855 2.487 25.81 9.492 23.971 9.428 24.226 19.5 30.729 19.5 38.493z"></path><path fill="#4788c7" d="M9.079,24.596l0.378,0.244l9.5,6.133L19,31.001v6.897L8.647,36.097l-5.433-9.961L9.079,24.596 M10.183,23.272l-8.225,2.16L2,26l6,11l11.5,2l0.5-0.087v-9.103l-0.5,0.323L10,24L10.183,23.272L10.183,23.272z"></path></g><g><path fill="#fff" d="M2.489,25.852L1.513,15.117l5.814-9.69l0.034-0.01l5.239,6.284 c-0.039,0.052-0.068,0.112-0.084,0.178l-3,12c-0.025,0.1-0.018,0.202,0.016,0.294l-7,1.757L2.489,25.852z"></path><path fill="#4788c7" d="M7.411,6.258l4.611,5.531L9.03,23.757c-0.002,0.009-0.004,0.018-0.006,0.027l-6.082,1.527 L2.025,15.235L7.411,6.258 M7.537,4.847L7,5L1,15l1,11l0.278,0.509l8.359-2.098L10,24l3-12h0.5L7.537,4.847L7.537,4.847z"></path></g><path fill="#4788c7" d="M18 16v8h-1.266v-6.45c-.229.164-.476.303-.739.417-.264.115-.565.216-.903.303v-1.08c.211-.069.415-.142.611-.218.196-.076.39-.162.581-.256.192-.095.384-.2.578-.317.195-.116.396-.249.603-.398H18zM24 23.956h-4.911v-.606c0-.247.035-.479.104-.695.069-.216.162-.421.278-.611.116-.192.253-.371.409-.541.156-.169.324-.332.502-.491.178-.158.36-.31.546-.458.186-.147.367-.295.546-.444.167-.142.32-.281.458-.418.138-.136.256-.277.355-.423s.175-.299.229-.461c.055-.161.082-.337.082-.526 0-.207-.032-.388-.095-.543-.064-.154-.153-.284-.268-.387-.114-.104-.25-.182-.406-.235-.156-.052-.327-.079-.513-.079-.32 0-.646.075-.977.224-.331.149-.649.373-.955.671v-1.217c.16-.12.322-.224.486-.313.164-.089.333-.164.508-.224.175-.059.358-.104.551-.133S21.326 16 21.544 16c.353 0 .673.046.96.139.287.092.533.229.737.409.204.181.361.405.472.674.11.269.166.578.166.928 0 .317-.039.601-.118.854-.078.253-.189.489-.332.707-.144.218-.318.426-.521.622-.204.196-.431.398-.682.606-.211.171-.421.338-.63.499-.21.162-.398.321-.565.475s-.303.309-.406.463c-.104.155-.156.31-.156.467v.027H24V23.956z"></path></svg>