<?xml version="1.0" encoding="utf-8"?>
<!-- Generator: Adobe Illustrator 16.0.0, SVG Export Plug-In . SVG Version: 6.00 Build 0)  -->
<!DOCTYPE svg PUBLIC "-//W3C//DTD SVG 1.1//EN" "http://www.w3.org/Graphics/SVG/1.1/DTD/svg11.dtd">
<svg xmlns="http://www.w3.org/2000/svg" viewBox="0 0 40 40"><path fill="#fff" d="M4.577 11.204L19.441 0.655 19.5 0.715 19.5 7.518 19.427 7.521 4.63 11.392z"></path><path fill="#4788c7" d="M19,1.581V7v0.116L6.648,10.347L19,1.581 M19.5,0L4,11l0.281,1L19.5,8.019L20,8V7V0.511L19.5,0 L19.5,0z"></path><path fill="#dff0fe" d="M4.554 11.343L19.08 6.521 19.211 6.554 6.694 26.444z"></path><path fill="#4788c7" d="M18.107,7.371L6.998,25.023l-1.89-13.337L18.107,7.371 M19.062,6L4,11l2.281,16.094l0.703-0.172 L20,6.24L19.062,6L19.062,6z"></path><path fill="#98ccfd" d="M0.616 29.703L7.117 26.5 7.36 26.5 19 37.759 19 38.217z"></path><path fill="#4788c7" d="M7.183,27.024l10.253,9.918L1.776,29.689L7.183,27.024 M7.562,26H7l-6.879,3.39L0,29.969L19.5,39 v-1.453L7.562,26L7.562,26z"></path><path fill="#dff0fe" d="M19.573 7.521L19.5 7.518 19.5 0.715 19.559 0.655 34.423 11.204 34.37 11.392z"></path><path fill="#4788c7" d="M20,1.581l12.352,8.766L20,7.116V7V1.581 M19.5,0L19,0.511V7v1l0.5,0.019L34.719,12L35,11L19.5,0 L19.5,0z"></path><path fill="#b6dcfe" d="M32.256 26.352L19.789 6.554 19.92 6.521 34.446 11.343 32.315 26.377z"></path><path fill="#4788c7" d="M20.894,7.371l12.999,4.315l-1.889,13.326L20.894,7.371 M19.938,6L19,6.24l12.917,20.51 l0.802,0.344L35,11L19.938,6L19.938,6z"></path><path fill="#98ccfd" d="M20 37.759L31.64 26.5 31.883 26.5 38.384 29.703 20 38.217z"></path><path fill="#4788c7" d="M31.817,27.024l5.408,2.665l-15.661,7.253L31.817,27.024 M32,26h-0.563L19.5,37.547V39L39,29.969 l-0.121-0.579L32,26L32,26z"></path><g><path fill="#b6dcfe" d="M7.4 26.5L31.6 26.5 19.5 38.302z"></path><path fill="#4788c7" d="M30.371,27L19.5,37.603L8.629,27H19.5H30.371 M32.828,26H19.5H6.172L19.5,39L32.828,26L32.828,26z"></path></g><g><path fill="#dff0fe" d="M6.68 26.5L19.5 6.059 32.32 26.5z"></path><path fill="#4788c7" d="M19.5,7l11.917,19H7.583L19.5,7 M19.5,5.118l-0.847,1.351l-11.917,19L5.776,27h1.808h23.833h1.808 l-0.96-1.531l-11.917-19L19.5,5.118L19.5,5.118z"></path></g><path fill="#4788c7" d="M18.911 24H14v-.606c0-.247.035-.479.104-.695.069-.216.162-.421.278-.611.116-.192.253-.371.409-.541.156-.169.324-.332.502-.491.178-.158.36-.31.546-.458.186-.147.367-.295.546-.444.167-.142.32-.281.458-.418.138-.136.256-.277.355-.423.098-.146.175-.299.229-.461.055-.161.082-.337.082-.526 0-.207-.032-.388-.095-.543-.064-.154-.153-.284-.268-.387-.114-.104-.25-.182-.406-.235-.156-.052-.327-.079-.513-.079-.32 0-.646.075-.977.224s-.649.373-.955.671v-1.217c.16-.12.322-.224.486-.313.164-.089.333-.164.508-.224.175-.059.358-.104.551-.133.193-.029.398-.044.617-.044.353 0 .673.046.96.139.287.092.533.229.737.409.204.181.361.405.472.674.11.269.166.578.166.928 0 .317-.039.601-.118.854-.078.253-.189.489-.332.707-.144.218-.318.426-.521.622-.204.196-.431.398-.682.606-.211.171-.421.338-.63.499-.21.162-.398.321-.565.475-.167.155-.303.309-.406.463-.104.155-.156.31-.156.467v.027h3.531V24zM22.564 24c-.806 0-1.435-.329-1.886-.988C20.226 22.354 20 21.402 20 20.157c0-1.368.235-2.402.707-3.104C21.178 16.351 21.858 16 22.748 16c1.701 0 2.553 1.323 2.553 3.968 0 1.31-.24 2.31-.721 2.998C24.1 23.656 23.427 24 22.564 24zM22.688 16.999c-.939 0-1.408 1.035-1.408 3.104 0 1.936.459 2.904 1.382 2.904.907 0 1.36-.984 1.36-2.953C24.022 18.017 23.577 16.999 22.688 16.999z"></path><g><path fill="#b6dcfe" d="M0.57 29.688L4.406 11.5 4.566 11.5 6.72 26.651 0.606 29.706z"></path><path fill="#4788c7" d="M4.406,13.923l1.769,12.442l-4.909,2.453L4.406,13.923 M5,11H4L0,29.969l0.61,0.294l6.655-3.325 L5,11L5,11z"></path></g><g><path fill="#98ccfd" d="M32.28 26.651L34.434 11.5 34.594 11.5 38.43 29.688 38.394 29.706z"></path><path fill="#4788c7" d="M34.594,13.923l3.141,14.894l-4.909-2.453L34.594,13.923 M35,11h-1l-2.266,15.938l6.655,3.325 L39,29.969L35,11L35,11z"></path></g></svg>