<?xml version="1.0" encoding="utf-8"?>
<!-- Generator: Adobe Illustrator 16.0.0, SVG Export Plug-In . SVG Version: 6.00 Build 0)  -->
<!DOCTYPE svg PUBLIC "-//W3C//DTD SVG 1.1//EN" "http://www.w3.org/Graphics/SVG/1.1/DTD/svg11.dtd">
<svg xmlns="http://www.w3.org/2000/svg" data-name="Layer 1" viewBox="0 0 64 64"><path fill="#faefde" d="M51,53H13l1.46-5,2.62-9,7-24,2.08-7.12A4,4,0,0,1,30,5h4a4,4,0,0,1,3.84,2.88L39.92,15l7,24,2.62,9Z"></path><path fill="#f7cc8f" d="M39.92,15H24.08L26,8.43l.16-.55A4,4,0,0,1,30,5h4a4,4,0,0,1,3.84,2.88l.16.55Z"></path><path fill="#efd8be" d="M51 53L13 53 14.46 48 49.54 48 51 53z"></path><path fill="#f9dd8f" d="M38,8.43V10H26V8.43l.16-.55A4,4,0,0,1,30,5h4a4,4,0,0,1,3.84,2.88Z"></path><path fill="#f7cc8f" d="M46.92 39L17.08 39 20.58 27 43.42 27 46.92 39z"></path><rect width="52" height="6" x="6" y="53" fill="#f7cc8f" rx="3" ry="3"></rect><path fill="#8d6c9f" d="M55,52H51.75L38.8,7.6A5,5,0,0,0,34,4H30a5,5,0,0,0-4.8,3.6L12.25,52H9a4,4,0,0,0,0,8H55a4,4,0,0,0,0-8ZM27.12,8.16A3,3,0,0,1,30,6h4a3,3,0,0,1,2.88,2.16L38.58,14H25.42ZM21.33,28H35a1,1,0,0,0,0-2H21.92l2.93-10H39.16l2.93,10H39a1,1,0,0,0,0,2h3.67l2.92,10H29a1,1,0,0,0,0,2l17.16,0,3.51,12H14.33ZM55,58H9a2,2,0,0,1,0-4H55a2,2,0,0,1,0,4Z"></path><path fill="#8d6c9f" d="M25 38H21a1 1 0 0 0 0 2h4a1 1 0 0 0 0-2zM44 46a1 1 0 0 0-1 1v2a1 1 0 0 0 2 0V47A1 1 0 0 0 44 46zM19 46a1 1 0 0 0-1 1v2a1 1 0 0 0 2 0V47A1 1 0 0 0 19 46zM24 46a1 1 0 0 0-1 1v2a1 1 0 0 0 2 0V47A1 1 0 0 0 24 46zM29 46a1 1 0 0 0-1 1v2a1 1 0 0 0 2 0V47A1 1 0 0 0 29 46zM34 46a1 1 0 0 0-1 1v2a1 1 0 0 0 2 0V47A1 1 0 0 0 34 46zM39 46a1 1 0 0 0-1 1v2a1 1 0 0 0 2 0V47A1 1 0 0 0 39 46z"></path></svg>