<?xml version="1.0" encoding="utf-8"?>
<!-- Generator: Adobe Illustrator 16.0.0, SVG Export Plug-In . SVG Version: 6.00 Build 0)  -->
<!DOCTYPE svg PUBLIC "-//W3C//DTD SVG 1.1//EN" "http://www.w3.org/Graphics/SVG/1.1/DTD/svg11.dtd">
<svg xmlns="http://www.w3.org/2000/svg" viewBox="0 0 64 64"><linearGradient id="DORfa6SQvi9UFG72HHg93a" x1="32" x2="32" y1="4.702" y2="58.057" gradientUnits="userSpaceOnUse"><stop offset="0" stop-color="#1a6dff"></stop><stop offset="1" stop-color="#c822ff"></stop></linearGradient><path fill="url(#DORfa6SQvi9UFG72HHg93a)" d="M54.456,17.021L33.583,4.77c-0.977-0.574-2.19-0.574-3.165,0L9.544,17.021 C8.592,17.58,8,18.613,8,19.717v24.566c0,1.104,0.592,2.137,1.544,2.695L30.417,59.23c0.488,0.287,1.036,0.43,1.583,0.43 s1.095-0.143,1.582-0.43l20.874-12.252C55.408,46.42,56,45.387,56,44.283V19.717C56,18.613,55.408,17.58,54.456,17.021z M54,44.283 c0,0.397-0.213,0.77-0.556,0.971L32.569,57.506c-0.352,0.207-0.788,0.207-1.14,0L10.556,45.254C10.213,45.053,10,44.681,10,44.283 V19.717c0-0.397,0.213-0.77,0.556-0.971L31.431,6.494C31.606,6.391,31.803,6.339,32,6.339s0.395,0.052,0.57,0.155l20.874,12.252 C53.787,18.947,54,19.319,54,19.717V44.283z"></path><linearGradient id="DORfa6SQvi9UFG72HHg93b" x1="32" x2="32" y1="4.702" y2="58.057" gradientUnits="userSpaceOnUse"><stop offset="0" stop-color="#1a6dff"></stop><stop offset="1" stop-color="#c822ff"></stop></linearGradient><path fill="url(#DORfa6SQvi9UFG72HHg93b)" d="M51.45,20.165L32.503,9.136c-0.311-0.182-0.695-0.182-1.006,0L12.55,20.165 c-0.308,0.179-0.497,0.508-0.497,0.864v21.941c0,0.356,0.189,0.686,0.497,0.864l18.947,11.029C31.652,54.955,31.826,55,32,55 s0.348-0.045,0.503-0.136L51.45,43.835c0.308-0.179,0.497-0.508,0.497-0.864V21.029C51.947,20.673,51.758,20.344,51.45,20.165z M49.947,42.396L32,52.843L14.053,42.396V21.604L32,11.157l17.947,10.447V42.396z"></path><g><linearGradient id="DORfa6SQvi9UFG72HHg93c" x1="24.631" x2="24.631" y1="14.234" y2="47.276" gradientUnits="userSpaceOnUse"><stop offset="0" stop-color="#6dc7ff"></stop><stop offset="1" stop-color="#e6abff"></stop></linearGradient><polygon fill="url(#DORfa6SQvi9UFG72HHg93c)" points="16.769,41.127 31.506,49.5 32.494,47.762 17.757,39.389"></polygon><linearGradient id="DORfa6SQvi9UFG72HHg93d" x1="47" x2="47" y1="14.234" y2="47.276" gradientUnits="userSpaceOnUse"><stop offset="0" stop-color="#6dc7ff"></stop><stop offset="1" stop-color="#e6abff"></stop></linearGradient><rect width="2" height="16" x="46" y="24" fill="url(#DORfa6SQvi9UFG72HHg93d)"></rect><linearGradient id="DORfa6SQvi9UFG72HHg93e" x1="24.631" x2="24.631" y1="14.234" y2="47.276" gradientUnits="userSpaceOnUse"><stop offset="0" stop-color="#6dc7ff"></stop><stop offset="1" stop-color="#e6abff"></stop></linearGradient><polygon fill="url(#DORfa6SQvi9UFG72HHg93e)" points="16.769,22.873 17.757,24.611 32.494,16.238 31.506,14.5"></polygon></g></svg>